<?xml version="1.0" encoding="UTF-8" standalone="no"?>
<!-- Created with Inkscape (http://www.inkscape.org/) -->

<svg
   width="199.44347mm"
   height="157.52422mm"
   viewBox="0 0 199.44347 157.52422"
   version="1.1"
   id="svg1127"
   inkscape:version="1.2 (dc2aedaf03, 2022-05-15)"
   sodipodi:docname="Anniversary Logo.svg"
   xmlns:inkscape="http://www.inkscape.org/namespaces/inkscape"
   xmlns:sodipodi="http://sodipodi.sourceforge.net/DTD/sodipodi-0.dtd"
   xmlns="http://www.w3.org/2000/svg"
   xmlns:svg="http://www.w3.org/2000/svg">
  <sodipodi:namedview
     id="namedview1129"
     pagecolor="#ffffff"
     bordercolor="#000000"
     borderopacity="0.25"
     inkscape:showpageshadow="2"
     inkscape:pageopacity="0.0"
     inkscape:pagecheckerboard="0"
     inkscape:deskcolor="#d1d1d1"
     inkscape:document-units="mm"
     showgrid="false"
     inkscape:zoom="0.914906"
     inkscape:cx="295.65879"
     inkscape:cy="500.59787"
     inkscape:window-width="2560"
     inkscape:window-height="1387"
     inkscape:window-x="-8"
     inkscape:window-y="22"
     inkscape:window-maximized="1"
     inkscape:current-layer="layer1" />
  <defs
     id="defs1124">
    <inkscape:path-effect
       effect="bend_path"
       id="path-effect5521"
       is_visible="true"
       lpeversion="1"
       bendpath="m 76.575958,182.13622 c 18.684736,-4.2516 37.621412,-4.47214 56.851382,0"
       prop_scale="1"
       scale_y_rel="false"
       vertical="false"
       hide_knot="false"
       bendpath-nodetypes="cc" />
    <inkscape:path-effect
       effect="mirror_symmetry"
       start_point="86.442577,180.58976"
       end_point="86.442577,187.90026"
       center_point="86.442577,184.24501"
       id="path-effect5469"
       is_visible="true"
       lpeversion="1.2"
       lpesatellites=""
       mode="free"
       discard_orig_path="false"
       fuse_paths="false"
       oposite_fuse="false"
       split_items="false"
       split_open="false"
       link_styles="false" />
    <rect
       x="245.58063"
       y="548.35388"
       width="92.511955"
       height="18.609514"
       id="rect3702" />
    <inkscape:path-effect
       effect="mirror_symmetry"
       start_point="99.100724,143.3727"
       end_point="99.100724,157.48248"
       center_point="99.100724,150.42759"
       id="path-effect3634"
       is_visible="true"
       lpeversion="1.2"
       lpesatellites=""
       mode="free"
       discard_orig_path="false"
       fuse_paths="false"
       oposite_fuse="false"
       split_items="false"
       split_open="false"
       link_styles="false" />
    <inkscape:path-effect
       effect="mirror_symmetry"
       start_point="101.32454,146.26111"
       end_point="101.32454,157.76365"
       center_point="101.32454,152.01238"
       id="path-effect3630"
       is_visible="true"
       lpeversion="1.2"
       lpesatellites=""
       mode="free"
       discard_orig_path="false"
       fuse_paths="false"
       oposite_fuse="false"
       split_items="false"
       split_open="false"
       link_styles="false" />
    <rect
       x="358.03375"
       y="531.9303"
       width="84.629669"
       height="91.199097"
       id="rect2855" />
    <filter
       style="color-interpolation-filters:sRGB"
       inkscape:label="Drop Shadow"
       id="filter3127"
       x="0"
       y="0"
       width="1.0250522"
       height="1.029304">
      <feFlood
         flood-opacity="0.498039"
         flood-color="rgb(0,0,0)"
         result="flood"
         id="feFlood3117" />
      <feComposite
         in="flood"
         in2="SourceGraphic"
         operator="in"
         result="composite1"
         id="feComposite3119" />
      <feGaussianBlur
         in="composite1"
         stdDeviation="0"
         result="blur"
         id="feGaussianBlur3121" />
      <feOffset
         dx="1.5"
         dy="1.5"
         result="offset"
         id="feOffset3123" />
      <feComposite
         in="SourceGraphic"
         in2="offset"
         operator="over"
         result="composite2"
         id="feComposite3125" />
    </filter>
    <filter
       style="color-interpolation-filters:sRGB"
       inkscape:label="Drop Shadow"
       id="filter3265"
       x="0"
       y="0"
       width="1.0417016"
       height="1.0663224">
      <feFlood
         flood-opacity="0.498039"
         flood-color="rgb(0,0,0)"
         result="flood"
         id="feFlood3255" />
      <feComposite
         in="flood"
         in2="SourceGraphic"
         operator="in"
         result="composite1"
         id="feComposite3257" />
      <feGaussianBlur
         in="composite1"
         stdDeviation="0"
         result="blur"
         id="feGaussianBlur3259" />
      <feOffset
         dx="0.3"
         dy="0.4"
         result="offset"
         id="feOffset3261" />
      <feComposite
         in="SourceGraphic"
         in2="offset"
         operator="over"
         result="composite2"
         id="feComposite3263" />
    </filter>
    <filter
       style="color-interpolation-filters:sRGB"
       inkscape:label="Drop Shadow"
       id="filter3313"
       x="0"
       y="0"
       width="1.0695027"
       height="1.0829029">
      <feFlood
         flood-opacity="0.498039"
         flood-color="rgb(0,0,0)"
         result="flood"
         id="feFlood3303" />
      <feComposite
         in="flood"
         in2="SourceGraphic"
         operator="in"
         result="composite1"
         id="feComposite3305" />
      <feGaussianBlur
         in="composite1"
         stdDeviation="0"
         result="blur"
         id="feGaussianBlur3307" />
      <feOffset
         dx="0.5"
         dy="0.5"
         result="offset"
         id="feOffset3309" />
      <feComposite
         in="SourceGraphic"
         in2="offset"
         operator="over"
         result="composite2"
         id="feComposite3311" />
    </filter>
    <filter
       style="color-interpolation-filters:sRGB"
       inkscape:label="Drop Shadow"
       id="filter3410"
       x="0"
       y="0"
       width="1.0086847"
       height="1.0510036">
      <feFlood
         flood-opacity="0.498039"
         flood-color="rgb(0,0,0)"
         result="flood"
         id="feFlood3400" />
      <feComposite
         in="flood"
         in2="SourceGraphic"
         operator="in"
         result="composite1"
         id="feComposite3402" />
      <feGaussianBlur
         in="composite1"
         stdDeviation="0"
         result="blur"
         id="feGaussianBlur3404" />
      <feOffset
         dx="0.2"
         dy="0.2"
         result="offset"
         id="feOffset3406" />
      <feComposite
         in="SourceGraphic"
         in2="offset"
         operator="over"
         result="composite2"
         id="feComposite3408" />
    </filter>
    <filter
       style="color-interpolation-filters:sRGB"
       inkscape:label="Drop Shadow"
       id="filter3838"
       x="0"
       y="0"
       width="1.0168643"
       height="1.0391437">
      <feFlood
         flood-opacity="0.498039"
         flood-color="rgb(0,0,0)"
         result="flood"
         id="feFlood3828" />
      <feComposite
         in="flood"
         in2="SourceGraphic"
         operator="in"
         result="composite1"
         id="feComposite3830" />
      <feGaussianBlur
         in="composite1"
         stdDeviation="0"
         result="blur"
         id="feGaussianBlur3832" />
      <feOffset
         dx="0.5"
         dy="0.5"
         result="offset"
         id="feOffset3834" />
      <feComposite
         in="SourceGraphic"
         in2="offset"
         operator="over"
         result="composite2"
         id="feComposite3836" />
    </filter>
    <rect
       x="245.58063"
       y="548.35388"
       width="72.456909"
       height="34.586098"
       id="rect3844" />
  </defs>
  <g
     inkscape:label="Layer 1"
     inkscape:groupmode="layer"
     id="layer1"
     transform="translate(-6.3255091,-18.039919)">
    <path
       style="display:none;fill:none;stroke:#dddddd;stroke-width:0.565;stroke-dasharray:none;stroke-opacity:1;paint-order:markers fill stroke"
       d="m 99.024033,146.44004 c 0,0 -30.719261,-3.76577 -42.048147,-3.47632 0.659445,4.31796 1.942652,12.5761 1.942652,12.5761 15.058101,-0.38269 15.711983,2.18441 40.182186,1.94266 m 0.07669,-11.04244 c 0,0 30.719265,-3.76577 42.048145,-3.47632 -0.65944,4.31796 -1.94265,12.5761 -1.94265,12.5761 -15.0581,-0.38269 -15.71198,2.18441 -40.182186,1.94266"
       id="path3532"
       sodipodi:nodetypes="cccc"
       class="UnoptimicedTransforms"
       inkscape:path-effect="#path-effect3634"
       inkscape:original-d="m 99.024033,146.44004 c 0,0 -30.719261,-3.76577 -42.048147,-3.47632 0.659445,4.31796 1.942652,12.5761 1.942652,12.5761 15.058101,-0.38269 15.711983,2.18441 40.182186,1.94266"
       transform="translate(5.8992759)"
       sodipodi:insensitive="true" />
    <path
       id="path1223"
       style="fill:#e24646;fill-opacity:1;stroke:#dddddd;stroke-width:1.91228;stroke-dasharray:none;stroke-opacity:1"
       d="m 150.36483,131.88171 c -3.36422,3.07378 -5.28245,-1.22511 -9.0054,1.40279 -3.72295,2.62791 -0.31476,5.87502 -4.33765,8.01562 -4.02299,2.14057 -4.81183,-2.50031 -9.07136,-0.8808 -4.25954,1.61948 -1.76586,5.61218 -6.19479,6.68505 -4.4289,1.07284 -4.03887,-3.6184 -8.5673,-3.10909 -4.52848,0.50931 -3.10608,4.99669 -7.66268,4.93442 -4.55656,-0.0623 -3.01212,-4.50912 -7.524957,-5.142 -4.512836,-0.63287 -4.251142,4.06726 -8.649071,2.8738 -4.39794,-1.1935 -1.796105,-5.11657 -6.009779,-6.85187 -4.213678,-1.73526 -5.129073,2.88229 -9.092032,0.63257 -3.96296,-2.24971 -0.467242,-5.40246 -4.116988,-8.13116 -3.649746,-2.72867 -5.684726,1.51618 -8.963697,-1.64838 -3.278971,-3.1646 0.890979,-5.34896 -1.965508,-8.89957 -2.85649,-3.5506 -5.883189,0.0548 -8.272146,-3.8258 -2.388957,-3.8806 2.193218,-4.95933 0.309484,-9.10876 -1.883751,-4.14944 -5.711992,-1.40998 -7.060823,-5.76279 -1.348835,-4.352814 3.357645,-4.25808 2.565001,-8.745633 -0.792646,-4.487553 -5.181885,-2.786203 -5.405844,-7.337724 -0.223957,-4.551487 4.311102,-3.289284 4.659366,-7.832953 0.348261,-4.543703 -4.326184,-3.987383 -3.411192,-8.451582 0.914989,-4.4642 4.993677,-2.113826 6.460964,-6.428158 1.467288,-4.314297 -3.198652,-4.93797 -1.202205,-9.034369 1.996446,-4.0964 5.362478,-0.805525 7.856597,-4.619415 2.494119,-3.813857 -1.870138,-5.578295 1.082321,-9.049499 2.952456,-3.471238 5.394334,0.553342 8.758569,-2.520447 3.364231,-3.073789 -0.424116,-5.868149 3.298838,-8.496056 3.722957,-2.627907 5.087253,1.877483 9.110214,-0.26298 4.022961,-2.140564 1.048557,-5.789254 5.308082,-7.408732 4.259525,-1.619477 4.460513,3.083638 8.889436,2.010801 4.428898,-1.072872 2.455328,-5.346622 6.9838,-5.855931 4.52844,-0.509308 3.55348,4.096061 8.11008,4.158337 4.55656,0.06228 3.70785,-4.568004 8.22069,-3.935125 4.51283,0.632879 2.42321,4.851089 6.82114,6.044586 4.39796,1.193497 4.72738,-3.50241 8.94105,-1.767113 4.21368,1.735298 1.14067,5.301337 5.10365,7.551053 3.96294,2.249716 5.44988,-2.216717 9.09962,0.511949 3.64974,2.728665 -0.21356,5.418442 3.0654,8.583038 3.27899,3.164597 5.82993,-0.79175 8.68643,2.758856 2.8565,3.550605 -1.55435,5.195095 0.8346,9.075728 2.38896,3.8806 5.84368,0.682971 7.72742,4.832406 1.88375,4.149436 -2.7975,4.645307 -1.44865,8.998121 1.34881,4.352814 5.49022,2.114808 6.28285,6.602327 0.79267,4.487553 -3.86482,3.803703 -3.64087,8.35519 0.22406,4.551487 4.79183,3.4137 4.44356,7.957369 -0.34828,4.543703 -4.68938,2.723047 -5.60436,7.187246 -0.91498,4.4642 3.7923,4.49815 2.32502,8.81244 -1.46727,4.31434 -5.21922,1.47131 -7.21567,5.56771 -1.99645,4.09639 2.55453,5.29994 0.0602,9.1138 -2.49411,3.81389 -5.42115,0.12726 -8.3736,3.59829 -2.95249,3.47124 1.15623,5.76875 -2.20802,8.84254 z" />
    <path
       id="path2316"
       style="fill-opacity:0;stroke:#dddddd;stroke-width:2.13023"
       d="M 161.10552,83.963931 A 54.740483,54.740483 0 0 1 106.36505,138.7044 54.740483,54.740483 0 0 1 51.624572,83.963931 54.740483,54.740483 0 0 1 106.36505,29.223462 54.740483,54.740483 0 0 1 161.10552,83.963931 Z" />
    <g
       aria-label="20"
       transform="matrix(0.89549789,0,0,0.89549789,-255.97673,-434.88658)"
       id="text2853"
       style="white-space:pre;shape-inside:url(#rect2855);display:inline;fill-opacity:0;stroke:#dddddd;stroke-width:2.51339;filter:url(#filter3127)">
      <path
         d="m 364.36132,577.17286 h 13.04687 q 0.88542,0 1.38021,-0.65104 0.52083,-0.67708 0.88542,-2.5 0.15625,-0.75521 0.49479,-0.98958 0.33854,-0.26042 1.43229,-0.26042 1.61458,0 1.61458,0.70313 0,0.23437 -0.0781,0.54687 -0.1302,0.70313 -0.54687,3.35938 -0.46875,2.89062 -0.9375,5.05208 -0.44271,2.13541 -0.67708,2.34374 -0.20834,0.20834 -1.19792,0.20834 h -20.54686 v -6.09375 q 0,-1.27604 2.1875,-3.22916 1.09375,-0.98959 5.05208,-5.96354 3.98437,-4.97396 5.15625,-8.125 1.17187,-3.15104 1.17187,-8.41145 0,-4.40104 -0.85938,-5.65104 -0.83333,-1.27604 -2.42187,-1.27604 -1.19791,0 -1.875,0.67708 -0.67708,0.67709 -0.67708,1.77084 0,0.625 0.13021,1.51041 0.15625,1.17188 0.15625,2.26563 0,2.36979 -1.09375,3.67187 -1.06771,1.30208 -2.73438,1.30208 -1.77083,0 -2.81249,-1.40625 -1.04167,-1.40625 -1.04167,-3.38541 0,-4.11458 3.07292,-6.97917 3.07291,-2.89062 8.22916,-2.89062 5.23437,0 8.59374,3.30729 3.38542,3.30729 3.38542,8.5677 0,2.91667 -1.19792,5.59896 -1.19792,2.65625 -3.28125,4.73958 -2.05729,2.05729 -6.04166,5.18229 -5.46875,4.24479 -7.96875,7.0052 z"
         style="font-size:53.3333px;font-family:'Bernard MT Condensed';-inkscape-font-specification:'Bernard MT Condensed, Normal';fill:#dddddd;fill-opacity:1;stroke:none;paint-order:markers fill stroke"
         id="path5668" />
      <path
         d="m 397.3561,542.77184 q 3.33333,0 6.14583,2.70833 2.81249,2.70833 4.21874,7.36979 1.40625,4.63541 1.40625,11.01562 0,10.62499 -3.54166,16.09374 -3.51563,5.46875 -8.56771,5.46875 -4.79166,0 -8.2552,-5.20833 -3.46354,-5.20833 -3.46354,-15.93749 0,-10.67708 3.41146,-16.09375 3.4375,-5.41666 8.64583,-5.41666 z m 1.64062,6.66666 q 0,-1.84895 -0.44271,-2.55208 -0.41666,-0.72916 -1.40625,-0.72916 -1.92708,0 -1.92708,3.28124 v 30.15624 q 0,2.55208 1.82292,2.55208 0.88541,0 1.40625,-0.75521 0.54687,-0.75521 0.54687,-1.79687 z"
         style="font-size:53.3333px;font-family:'Bernard MT Condensed';-inkscape-font-specification:'Bernard MT Condensed, Normal';fill:#dddddd;fill-opacity:1;stroke:none;paint-order:markers fill stroke"
         id="path5670" />
    </g>
    <g
       aria-label="TH"
       transform="matrix(4.2607107,0,0,2.6885748,-257.90225,-422.33134)"
       id="text3193"
       style="font-size:7.93817px;font-family:'BIZ UDMincho';-inkscape-font-specification:'BIZ UDMincho, Normal';fill:#dddddd;stroke-width:0.0562548;paint-order:markers fill stroke;filter:url(#filter3313)">
      <path
         d="m 87.411218,184.14167 h 3.034954 l 0.06977,1.57756 H 90.27175 q -0.08527,-0.65118 -0.240316,-0.88762 -0.193803,-0.29458 -0.538772,-0.29458 h -0.302333 v 4.96136 q 0,0.20155 0.08915,0.27907 0.08915,0.0775 0.356597,0.10853 v 0.28683 h -1.414762 v -0.28683 q 0.263572,-0.031 0.356598,-0.10853 0.08915,-0.0736 0.08915,-0.27907 v -4.96136 h -0.302333 q -0.375977,0 -0.565904,0.34109 -0.139538,0.25195 -0.213183,0.84111 H 87.34145 Z"
         id="path5673" />
      <path
         d="m 91.264021,184.14167 h 1.251967 v 0.28683 q -0.213183,0.0271 -0.290704,0.10078 -0.07364,0.0736 -0.07364,0.28683 v 1.95741 h 1.496159 v -1.95741 q 0,-0.21319 -0.06977,-0.28683 -0.07752,-0.0736 -0.294581,-0.10078 v -0.28683 h 1.251967 v 0.28683 q -0.220935,0.0233 -0.302332,0.10078 -0.06977,0.0698 -0.06977,0.28683 v 4.68228 q 0,0.20543 0.06977,0.2752 0.07752,0.0775 0.302332,0.1124 v 0.28683 H 93.2757 v -0.28683 q 0.232564,-0.0349 0.306209,-0.12016 0.06589,-0.0698 0.06589,-0.26744 v -2.32952 H 92.15164 v 2.32952 q 0,0.20543 0.07364,0.2752 0.07364,0.0775 0.298456,0.1124 v 0.28683 h -1.259719 v -0.28683 q 0.232564,-0.0349 0.306209,-0.12016 0.06589,-0.0698 0.06589,-0.26744 v -4.68228 q 0,-0.21319 -0.06977,-0.28683 -0.07752,-0.0775 -0.302333,-0.10078 z"
         id="path5675" />
    </g>
    <g
       aria-label="Anniversary"
       id="text3350"
       style="font-size:4.23333px;font-family:'BIZ UDMincho';-inkscape-font-specification:'BIZ UDMincho, Normal';fill:#dddddd;stroke-width:0.1;paint-order:markers fill stroke;filter:url(#filter3410)"
       transform="matrix(3.384559,0,0,3.384559,-249.01364,-418.64308)">
      <path
         d="m 94.289541,154.20614 h 0.241845 l 0.638721,2.90215 q 0.0248,0.10748 0.07235,0.15709 0.04754,0.0496 0.152963,0.0682 v 0.15297 h -0.715202 v -0.15297 q 0.173633,-0.0165 0.173633,-0.12195 0,-0.0331 -0.01033,-0.0806 l -0.150895,-0.81028 h -0.61805 l -0.148828,0.75034 q 0,0.004 -0.0021,0.0165 -0.0041,0.0248 -0.01447,0.0744 -0.0041,0.0227 -0.0041,0.0413 0,0.0496 0.06615,0.093 0.04754,0.031 0.103353,0.0372 v 0.15297 H 93.48547 v -0.15297 q 0.08888,-0.0207 0.128158,-0.0599 0.04547,-0.0455 0.07028,-0.16536 z m 0.08475,0.44442 -0.274918,1.45934 h 0.549837 z"
         id="path5678" />
      <path
         d="m 95.726144,157.48656 v -0.15297 q 0.144694,-0.0248 0.19017,-0.0806 0.04341,-0.0517 0.04341,-0.17363 v -1.54409 q 0,-0.0992 -0.04754,-0.13229 -0.05374,-0.0372 -0.1819,-0.0496 v -0.15297 q 0.258382,-0.002 0.496093,-0.0847 v 0.35967 q 0.06821,-0.15296 0.179834,-0.24598 0.138492,-0.11369 0.299723,-0.11369 0.332796,0 0.456819,0.39274 0.06615,0.20878 0.06615,0.53951 v 1.03146 q 0,0.13849 0.04961,0.19223 0.04961,0.0517 0.177767,0.062 v 0.15297 h -0.671793 v -0.15297 q 0.101286,-0.0186 0.134359,-0.0661 0.03927,-0.0579 0.03927,-0.1881 v -1.04387 q 0,-0.67386 -0.299723,-0.67386 -0.10542,0 -0.214974,0.10956 -0.124024,0.12402 -0.217041,0.3638 v 1.24437 q 0,0.13849 0.04134,0.19223 0.03307,0.0434 0.14056,0.062 v 0.15297 z"
         id="path5680" />
      <path
         d="m 97.842809,157.48656 v -0.15297 q 0.144694,-0.0248 0.190169,-0.0806 0.04341,-0.0517 0.04341,-0.17363 v -1.54409 q 0,-0.0992 -0.04754,-0.13229 -0.05374,-0.0372 -0.181901,-0.0496 v -0.15297 q 0.258382,-0.002 0.496094,-0.0847 v 0.35967 q 0.06821,-0.15296 0.179834,-0.24598 0.138492,-0.11369 0.299723,-0.11369 0.332796,0 0.456819,0.39274 0.06615,0.20878 0.06615,0.53951 v 1.03146 q 0,0.13849 0.04961,0.19223 0.04961,0.0517 0.177767,0.062 v 0.15297 h -0.671793 v -0.15297 q 0.101286,-0.0186 0.134358,-0.0661 0.03927,-0.0579 0.03927,-0.1881 v -1.04387 q 0,-0.67386 -0.299723,-0.67386 -0.105419,0 -0.214973,0.10956 -0.124024,0.12402 -0.217041,0.3638 v 1.24437 q 0,0.13849 0.04134,0.19223 0.03307,0.0434 0.14056,0.062 v 0.15297 z"
         id="path5682" />
      <path
         d="m 100.7925,154.06971 q 0.0744,0 0.14056,0.0414 0.12195,0.0785 0.12195,0.22117 0,0.10335 -0.0723,0.17983 -0.0765,0.0827 -0.19017,0.0827 -0.0662,0 -0.12403,-0.031 -0.13849,-0.0765 -0.13849,-0.23151 0,-0.11989 0.091,-0.19844 0.0744,-0.0641 0.17157,-0.0641 z m -0.41548,3.41685 v -0.15297 q 0.1757,-0.0248 0.22738,-0.0661 0.0641,-0.0537 0.0641,-0.1881 v -1.51102 q 0,-0.11576 -0.0517,-0.1571 -0.0558,-0.0434 -0.21084,-0.0579 v -0.15297 q 0.25218,-0.002 0.52916,-0.0847 v 1.96371 q 0,0.13642 0.06,0.1881 0.0579,0.0475 0.22324,0.0661 v 0.15297 z"
         id="path5684" />
      <path
         d="m 102.0286,155.20039 h 0.69453 v 0.15297 q -0.16123,0.0186 -0.16123,0.11575 0,0.0393 0.0289,0.1509 l 0.38654,1.44693 0.35139,-1.37872 q 0.0289,-0.11576 0.0289,-0.19637 0,-0.10749 -0.1819,-0.13849 v -0.15297 h 0.60565 v 0.15297 q -0.10542,0.0207 -0.14469,0.0765 -0.0476,0.0661 -0.10129,0.26665 l -0.48576,1.84174 H 102.845 l -0.56224,-1.90996 q -0.0393,-0.13642 -0.0889,-0.19843 -0.0517,-0.0682 -0.16536,-0.0765 z"
         id="path5686" />
      <path
         d="m 104.58141,156.32074 v 0.0806 q 0,0.41962 0.14676,0.67593 0.1447,0.25631 0.36587,0.25631 0.30386,0 0.49196,-0.49609 l 0.12609,0.12816 q -0.22944,0.60565 -0.66766,0.60565 -0.27698,0 -0.47749,-0.24392 -0.27285,-0.33486 -0.27285,-0.95498 0,-0.54983 0.21291,-0.9095 0.20877,-0.34727 0.51676,-0.34727 0.30799,0 0.5147,0.35347 0.18603,0.32246 0.18603,0.76688 v 0.0848 z m 0.83923,-0.20257 q -0.0103,-0.36587 -0.11576,-0.58085 -0.10749,-0.22324 -0.27905,-0.22324 -0.1509,0 -0.27699,0.21704 -0.14056,0.23565 -0.15503,0.58705 z"
         id="path5688" />
      <path
         d="m 106.56165,157.48656 v -0.15297 q 0.14469,-0.0186 0.1943,-0.0661 0.0476,-0.0475 0.0476,-0.1881 v -1.51102 q 0,-0.12402 -0.0517,-0.1695 -0.0434,-0.0372 -0.18604,-0.0455 v -0.15297 q 0.22118,0 0.49196,-0.0847 v 0.45682 q 0.093,-0.21704 0.22531,-0.32866 0.1509,-0.12816 0.31006,-0.12816 0.0847,0 0.1571,0.0434 0.14882,0.0889 0.14882,0.25425 0,0.0682 -0.0289,0.12402 -0.0579,0.11162 -0.18811,0.11162 -0.0723,0 -0.12815,-0.0413 -0.0806,-0.0599 -0.0806,-0.15709 0,-0.0662 0.0537,-0.13229 -0.10542,0.0393 -0.21084,0.17363 -0.15089,0.19637 -0.24184,0.43201 v 1.15549 q 0,0.13022 0.0599,0.1881 0.0476,0.0475 0.19844,0.0661 v 0.15297 z"
         id="path5690" />
      <path
         d="m 108.63284,156.74655 h 0.14056 q 0.0269,0.23565 0.15916,0.42581 0.1385,0.20051 0.34933,0.20051 0.15917,0 0.25839,-0.13643 0.0827,-0.11162 0.0827,-0.26458 0,-0.24805 -0.34313,-0.48782 l -0.11369,-0.0806 q -0.25838,-0.1819 -0.36794,-0.31419 -0.14469,-0.16743 -0.14469,-0.40515 0,-0.20257 0.11576,-0.35553 0.15916,-0.21291 0.42994,-0.21291 0.19017,0 0.36794,0.1695 0.031,0.0289 0.0537,0.0289 0.0393,0 0.0537,-0.11369 h 0.12609 v 0.63046 h -0.13643 q -0.15916,-0.51677 -0.42788,-0.51677 -0.13436,0 -0.22738,0.11162 -0.0682,0.0827 -0.0682,0.22738 0,0.15709 0.0909,0.26045 0.0724,0.0847 0.25632,0.20464 l 0.12402,0.0806 q 0.25425,0.16743 0.34933,0.28939 0.15296,0.19844 0.15296,0.46715 0,0.28732 -0.1819,0.46302 -0.15916,0.15297 -0.41341,0.15297 -0.26458,0 -0.39274,-0.16123 -0.0579,-0.0724 -0.091,-0.0724 -0.0475,0 -0.0847,0.20877 h -0.11782 z"
         id="path5692" />
      <path
         d="m 111.67761,156.00034 v -0.0847 q 0,-0.60151 -0.38654,-0.60151 -0.21084,0 -0.30799,0.15296 0.10129,0.06 0.10129,0.17984 0,0.0537 -0.0269,0.0971 -0.0538,0.0868 -0.1695,0.0868 -0.0868,0 -0.14263,-0.0599 -0.0579,-0.062 -0.0579,-0.16123 0,-0.16743 0.1571,-0.31626 0.18603,-0.17777 0.45682,-0.17777 0.3576,0 0.53123,0.27906 0.12816,0.2067 0.12816,0.5333 v 1.12654 q 0,0.21704 0.062,0.21704 0.0579,0 0.11162,-0.1695 l 0.12196,0.10542 q -0.0517,0.1695 -0.10542,0.24598 -0.0806,0.10956 -0.20257,0.10956 -0.23771,0 -0.26665,-0.3638 -0.0785,0.16329 -0.20464,0.25838 -0.1447,0.10542 -0.31419,0.10542 -0.30386,0 -0.44442,-0.29766 -0.0786,-0.16743 -0.0786,-0.39274 0,-0.3452 0.22118,-0.57464 0.12815,-0.13643 0.35966,-0.21704 0.17157,-0.06 0.34313,-0.0724 z m 0,0.21291 -0.0889,0.008 q -0.64699,0.0599 -0.64699,0.63872 0,0.15503 0.0393,0.25838 0.0703,0.1819 0.23978,0.1819 0.1633,0 0.30799,-0.17363 0.14883,-0.17983 0.14883,-0.39481 z"
         id="path5694" />
      <path
         d="m 112.91164,157.48656 v -0.15297 q 0.1447,-0.0186 0.19431,-0.0661 0.0475,-0.0475 0.0475,-0.1881 v -1.51102 q 0,-0.12402 -0.0517,-0.1695 -0.0434,-0.0372 -0.18603,-0.0455 v -0.15297 q 0.22117,0 0.49196,-0.0847 v 0.45682 q 0.093,-0.21704 0.22531,-0.32866 0.15089,-0.12816 0.31006,-0.12816 0.0847,0 0.15709,0.0434 0.14883,0.0889 0.14883,0.25425 0,0.0682 -0.0289,0.12402 -0.0579,0.11162 -0.1881,0.11162 -0.0724,0 -0.12816,-0.0413 -0.0806,-0.0599 -0.0806,-0.15709 0,-0.0662 0.0537,-0.13229 -0.10542,0.0393 -0.21084,0.17363 -0.1509,0.19637 -0.24185,0.43201 v 1.15549 q 0,0.13022 0.0599,0.1881 0.0475,0.0475 0.19844,0.0661 v 0.15297 z"
         id="path5696" />
      <path
         d="m 114.72445,155.20039 h 0.71107 v 0.15297 q -0.17777,0.0186 -0.17777,0.0992 0,0.0413 0.0248,0.11163 l 0.41548,1.30431 0.35139,-1.22783 q 0.0289,-0.10129 0.0289,-0.16537 0,-0.0806 -0.16329,-0.11989 l -0.0145,-0.002 v -0.15297 h 0.61391 v 0.15297 q -0.0889,0.0207 -0.13022,0.0579 -0.0579,0.0496 -0.11369,0.23358 l -0.53537,1.72392 q -0.0951,0.31006 -0.20877,0.45682 -0.12816,0.16537 -0.33073,0.16537 -0.22117,0 -0.33073,-0.17984 -0.0537,-0.0847 -0.0537,-0.17363 0,-0.0951 0.0496,-0.15503 0.062,-0.0765 0.16743,-0.0765 0.11162,0 0.1757,0.0951 0.0372,0.0558 0.0372,0.12402 0,0.10955 -0.0889,0.18397 0.1447,-0.0103 0.22324,-0.12609 0.0703,-0.10336 0.13643,-0.32246 l 0.0372,-0.12816 -0.56638,-1.68465 q -0.0558,-0.1633 -0.25838,-0.1943 z"
         id="path5698" />
    </g>
    <path
       id="rect3476"
       style="fill:#dddddd;stroke-width:0.338456;paint-order:markers fill stroke"
       d="m 65.141434,96.717627 h 82.447216 v 1.038179 H 65.141434 Z" />
    <path
       id="rect4002"
       style="fill:#f4f4f4;fill-opacity:1;stroke:#dddddd;stroke-width:1.91228;stroke-dasharray:none;stroke-opacity:1;paint-order:markers fill stroke"
       d="m 8.664026,150.04331 c 11.078609,-2.53023 22.255313,-4.63191 33.496077,-6.30026 l 3.632864,24.47588 c -10.612038,1.57531 -21.163475,3.55893 -31.62028,5.94613 2.576522,-4.81809 5.267514,-9.61499 8.072288,-14.38637 -4.432804,-3.31423 -8.960403,-6.5607 -13.580949,-9.73538 z"
       sodipodi:nodetypes="cccccc" />
    <path
       style="fill:#dddddd;fill-opacity:1;stroke:#dddddd;stroke-width:1.91228;stroke-linecap:butt;stroke-linejoin:miter;stroke-dasharray:none;stroke-opacity:1;paint-order:normal"
       d="m 43.069371,156.10576 c 0,0 1.854539,11.75129 1.609081,11.52554 -0.245212,-0.22541 -14.059272,-9.46316 -14.059272,-9.46316 4.139633,-0.74829 8.290325,-1.43583 12.450191,-2.06238 z"
       id="path4059"
       sodipodi:nodetypes="cscc" />
    <path
       id="path5471"
       style="fill:#f4f4f4;fill-opacity:1;stroke:#dddddd;stroke-width:1.91228;stroke-dasharray:none;stroke-opacity:1;paint-order:markers fill stroke"
       d="m 203.42784,149.89395 c -11.07905,-2.56509 -22.25608,-4.67445 -33.49711,-6.33282 l -3.60987,24.46434 c 10.58629,1.56329 21.10509,3.55257 31.52246,5.9726 -2.5507,-4.82611 -5.22329,-9.62836 -8.01592,-14.40272 4.4334,-3.30604 8.96712,-6.54127 13.60044,-9.7014 z"
       sodipodi:nodetypes="cccccc" />
    <path
       style="fill:#dddddd;fill-opacity:1;stroke:#dddddd;stroke-width:1.91228;stroke-linecap:butt;stroke-linejoin:miter;stroke-dasharray:none;stroke-opacity:1;paint-order:normal"
       d="m 169.03189,155.91724 c 0,0 -1.84448,11.74571 -1.59971,11.51986 0.24436,-0.22575 14.03357,-9.46066 14.03357,-9.46066 -4.1337,-0.75018 -8.27894,-1.4365 -12.43386,-2.0592 z"
       id="path5473"
       sodipodi:nodetypes="cscc" />
    <path
       id="rect4000"
       style="fill:#f4f4f4;stroke:#dddddd;stroke-width:1.91228;paint-order:markers fill stroke"
       d="M 24.326181,132.24019 C 78.183562,122.31043 133.81687,122.09145 187.76309,132.0625 l -4.50187,24.31971 c -50.8749,-9.42156 -103.51229,-9.19784 -154.449178,0.19191 z" />
    <g
       aria-label="2002 - 2022"
       transform="matrix(1.7686559,0,0,1.6353327,-373.12911,-757.7606)"
       id="text3700"
       style="font-size:9.12687px;font-family:'BIZ UDMincho';-inkscape-font-specification:'BIZ UDMincho, Normal';white-space:pre;shape-inside:url(#rect3702);fill:#e24646;stroke-width:2.13539;paint-order:markers fill stroke;filter:url(#filter3838)">
      <path
         d="m 245.85567,552.31003 -0.0508,-0.52747 c 0.0834,-0.57997 0.20619,-1.05807 0.3684,-1.4344 0.12201,-0.28503 0.33765,-0.64961 0.648,-1.09169 0.019,-0.0259 0.038,-0.0518 0.057,-0.0778 0.0584,-0.0794 0.11683,-0.15874 0.17532,-0.23808 0.28814,-0.39484 0.4833,-0.73112 0.58442,-1.01027 0.13472,-0.38392 0.18416,-0.78734 0.14726,-1.2103 -0.033,-0.37863 -0.11936,-0.66221 -0.2595,-0.85079 -0.19634,-0.26628 -0.47419,-0.38087 -0.83278,-0.34278 -0.1992,0.0212 -0.37067,0.0919 -0.51416,0.21195 -0.1293,0.1066 -0.20779,0.24212 -0.23563,0.40642 0.22486,0.0918 0.34584,0.23257 0.36336,0.42174 0.0101,0.10937 -0.005,0.20809 -0.0465,0.29617 -0.073,0.1423 -0.19325,0.22257 -0.36081,0.24105 -0.16756,0.0185 -0.30514,-0.0364 -0.41296,-0.16468 -0.0697,-0.0848 -0.11144,-0.19808 -0.12508,-0.33992 -0.027,-0.28072 0.0309,-0.54563 0.17426,-0.79456 0.24642,-0.43356 0.63441,-0.67945 1.16248,-0.73543 0.53725,-0.057 0.97236,0.0793 1.30349,0.40702 0.29065,0.28713 0.45697,0.68834 0.50052,1.20316 0.049,0.57988 -0.0619,1.10383 -0.33054,1.57254 -0.14929,0.25687 -0.37815,0.55889 -0.68593,0.90744 -0.0568,0.0641 -0.11365,0.12828 -0.17041,0.19244 -0.55658,0.6286 -0.89541,1.36035 -1.01976,2.19235 0.52446,-0.0579 1.04909,-0.11399 1.57388,-0.16828 0.30285,-0.0313 0.50969,-0.14018 0.62079,-0.32742 0.0846,-0.14276 0.14109,-0.42143 0.16959,-0.83597 0.0964,-0.01 0.19276,-0.0191 0.28915,-0.0286 0,1e-5 0.0108,1.7978 0.0108,1.79781 -1.03523,0.10238 -2.06987,0.21181 -3.10385,0.32829 z"
         id="path5485" />
      <path
         d="m 251.54593,544.60597 c 0.45516,-0.0387 0.85308,0.20436 1.19121,0.72832 0.42472,0.65758 0.67657,1.61864 0.76083,2.88432 0.0728,1.09304 -0.0213,1.9677 -0.27851,2.62232 -0.2552,0.643 -0.64037,0.98551 -1.15801,1.02964 -0.48475,0.0413 -0.89318,-0.20544 -1.22781,-0.74166 -0.37907,-0.60624 -0.61622,-1.48394 -0.70709,-2.63208 -0.10357,-1.30879 0.0179,-2.32409 0.37003,-3.04794 0.25295,-0.52355 0.60341,-0.80496 1.04935,-0.84292 z m 0.0146,0.39212 c -0.23334,0.0199 -0.42219,0.22554 -0.5655,0.61666 -0.22179,0.62211 -0.28243,1.56712 -0.1851,2.83776 0.0764,0.99744 0.23123,1.76521 0.46227,2.30186 0.21691,0.50842 0.47145,0.74992 0.7652,0.72488 0.28177,-0.024 0.4926,-0.27838 0.63385,-0.76372 0.16775,-0.57947 0.21632,-1.39736 0.14345,-2.45167 -0.0936,-1.35441 -0.31231,-2.30692 -0.66016,-2.85975 -0.18082,-0.28894 -0.37909,-0.42433 -0.59401,-0.40602 z"
         id="path5487" />
      <path
         d="m 256.27189,544.25173 c 0.45576,-0.0295 0.8494,0.22156 1.17843,0.75223 0.41327,0.66602 0.64847,1.63194 0.71085,2.89903 0.0539,1.09427 -0.0553,1.96683 -0.32374,2.61611 -0.26626,0.63769 -0.65726,0.97235 -1.17554,1.00601 -0.48535,0.0315 -0.88944,-0.22343 -1.21474,-0.76629 -0.36853,-0.61375 -0.59049,-1.49605 -0.66152,-2.64576 -0.081,-1.3106 0.058,-2.32322 0.42257,-3.0398 0.26193,-0.51832 0.61719,-0.79259 1.06369,-0.82153 z m 0.008,0.39233 c -0.23364,0.0152 -0.426,0.21696 -0.57603,0.60509 -0.23249,0.6175 -0.30943,1.56107 -0.23406,2.83339 0.0592,0.99876 0.20072,1.76949 0.42244,2.31068 0.2081,0.51269 0.45841,0.75927 0.75254,0.74017 0.28212,-0.0183 0.4973,-0.26837 0.64689,-0.75074 0.17771,-0.57596 0.2404,-1.39268 0.18575,-2.44822 -0.0702,-1.356 -0.2724,-2.31271 -0.61064,-2.87244 -0.17578,-0.29253 -0.37168,-0.43189 -0.58689,-0.41793 z"
         id="path5489" />
      <path
         d="m 259.65805,551.17631 -0.0234,-0.52964 c 0.11326,-0.57394 0.26061,-1.04378 0.44202,-1.40966 0.13656,-0.27715 0.37071,-0.62804 0.70343,-1.05057 0.0203,-0.0247 0.0406,-0.0494 0.0609,-0.0742 0.0624,-0.0757 0.12484,-0.15139 0.18735,-0.22704 0.30811,-0.37671 0.52037,-0.70059 0.63577,-0.97314 0.15437,-0.3751 0.22463,-0.77482 0.2097,-1.19929 -0.0134,-0.37998 -0.0849,-0.6683 -0.21503,-0.86504 -0.18222,-0.27773 -0.4537,-0.40895 -0.81369,-0.39265 -0.19997,0.009 -0.37482,0.0693 -0.5243,0.18043 -0.13462,0.0986 -0.22,0.22912 -0.25629,0.39146 0.21975,0.10527 0.33325,0.25311 0.34095,0.44302 0.004,0.1098 -0.0162,0.20741 -0.0618,0.29284 -0.0803,0.13764 -0.20446,0.21049 -0.37269,0.21879 -0.16825,0.008 -0.30277,-0.0548 -0.40377,-0.1894 -0.0652,-0.0889 -0.10101,-0.20449 -0.10728,-0.34691 -0.0124,-0.28188 0.0591,-0.54283 0.2151,-0.78266 0.26846,-0.41789 0.66856,-0.63986 1.19868,-0.66375 0.53935,-0.0243 0.9667,0.13812 1.28033,0.4853 0.27531,0.30425 0.42057,0.71485 0.43738,1.23142 0.0189,0.58185 -0.11897,1.09817 -0.41144,1.5498 -0.16234,0.24738 -0.40647,0.53501 -0.73178,0.86432 -0.0601,0.0606 -0.1201,0.12117 -0.18009,0.18179 -0.5882,0.5938 -0.96434,1.30378 -1.13155,2.12683 0.52657,-0.0261 1.05322,-0.0503 1.57993,-0.0727 0.30396,-0.0129 0.51609,-0.10907 0.6367,-0.28926 0.0919,-0.13738 0.16267,-0.41216 0.21259,-0.82425 0.0967,-0.004 0.19343,-0.007 0.29015,-0.011 -0.0278,0.59845 -0.0552,1.1969 -0.0824,1.79536 -1.03877,0.0395 -2.07732,0.0861 -3.11557,0.13977 z"
         id="path5491" />
      <path
         d="m 268.51733,547.16589 c 1.30965,-0.0164 2.61941,-0.0216 3.92912,-0.0156 l -0.002,0.51233 c -1.30721,-0.006 -2.61448,-7.8e-4 -3.92164,0.0156 z"
         id="path5493" />
      <path
         d="m 278.10788,550.97161 0.0134,-0.52991 c 0.15275,-0.56297 0.33229,-1.0194 0.53857,-1.36941 0.1554,-0.2652 0.41323,-0.596 0.77431,-0.99018 0.022,-0.023 0.0439,-0.046 0.0659,-0.069 0.0675,-0.0704 0.135,-0.14078 0.20258,-0.21112 0.33338,-0.35051 0.56753,-0.65612 0.70156,-0.91845 0.18,-0.36138 0.27784,-0.75415 0.29247,-1.17852 0.0131,-0.3799 -0.0382,-0.67314 -0.15427,-0.87986 -0.16241,-0.29169 -0.424,-0.44458 -0.78412,-0.4576 -0.20004,-0.007 -0.37858,0.0386 -0.53537,0.13727 -0.14107,0.0873 -0.23529,0.21053 -0.28276,0.36942 0.21182,0.1228 0.31472,0.27942 0.30921,0.46936 -0.003,0.10982 -0.0305,0.20546 -0.0819,0.28692 -0.0896,0.13069 -0.2185,0.19323 -0.38683,0.18783 -0.16835,-0.005 -0.2981,-0.0792 -0.38946,-0.22162 -0.0589,-0.0939 -0.0865,-0.21206 -0.0829,-0.35455 0.007,-0.28202 0.0966,-0.53636 0.26884,-0.76277 0.29673,-0.3948 0.71113,-0.58357 1.24145,-0.5643 0.53953,0.0196 0.9544,0.2163 1.24301,0.58792 0.25338,0.32571 0.36967,0.74685 0.3505,1.2632 -0.0216,0.58158 -0.19502,1.08508 -0.51804,1.51153 -0.17908,0.23341 -0.44249,0.50029 -0.78973,0.80214 -0.0641,0.0555 -0.12817,0.11103 -0.1922,0.16659 -0.62773,0.54415 -1.05206,1.22138 -1.27592,2.02831 0.52679,0.0168 1.05352,0.0355 1.58019,0.0559 0.30394,0.0118 0.5221,-0.0668 0.65488,-0.23658 0.10114,-0.12949 0.19085,-0.39765 0.26927,-0.80441 0.0967,0.004 0.19337,0.008 0.29005,0.0126 -0.0693,0.59434 -0.1383,1.18871 -0.20698,1.78311 -1.03833,-0.0452 -2.07694,-0.0831 -3.11575,-0.1139 z"
         id="path5495" />
      <path
         d="m 284.68107,544.14308 c 0.45597,0.0262 0.82098,0.32356 1.09263,0.89076 0.34125,0.71191 0.47423,1.69998 0.40412,2.96613 -0.0605,1.09344 -0.25995,1.94681 -0.59428,2.55898 -0.33094,0.60094 -0.75417,0.88568 -1.27248,0.85599 -0.48538,-0.0278 -0.86021,-0.33023 -1.12685,-0.90903 -0.30221,-0.65448 -0.43092,-1.55787 -0.38187,-2.70848 0.0559,-1.31164 0.2994,-2.30053 0.73621,-2.96791 0.31422,-0.48293 0.69581,-0.7121 1.14252,-0.68644 z m -0.0331,0.39063 c -0.23375,-0.0134 -0.44591,0.16361 -0.6354,0.53086 -0.29531,0.58503 -0.46997,1.51287 -0.52752,2.78581 -0.0452,0.99923 0.0152,1.78201 0.17916,2.34655 0.15334,0.53458 0.37631,0.80998 0.67046,0.82684 0.28214,0.0162 0.52192,-0.20599 0.72077,-0.66688 0.23653,-0.55041 0.38391,-1.354 0.43961,-2.40907 0.0716,-1.35541 -0.0297,-2.33029 -0.30744,-2.92748 -0.14419,-0.31198 -0.32434,-0.47427 -0.53964,-0.48663 z"
         id="path5497" />
      <path
         d="m 287.32346,551.43376 0.032,-0.52892 c 0.17237,-0.55624 0.36776,-1.00492 0.58616,-1.34618 0.16458,-0.2586 0.43382,-0.57855 0.80847,-0.95759 0.0228,-0.0221 0.0455,-0.0442 0.0683,-0.0662 0.0699,-0.0676 0.13984,-0.13512 0.20984,-0.20263 0.34544,-0.33653 0.59016,-0.63227 0.7333,-0.88888 0.19257,-0.35369 0.30414,-0.74212 0.33366,-1.16554 0.0264,-0.37904 -0.0145,-0.67414 -0.12327,-0.88546 -0.15206,-0.29812 -0.40813,-0.46162 -0.76756,-0.48941 -0.19966,-0.0154 -0.3797,0.023 -0.53984,0.11519 -0.14406,0.0815 -0.24254,0.2007 -0.29554,0.35751 0.20737,0.13139 0.30472,0.2921 0.29254,0.48166 -0.007,0.1096 -0.0377,0.20403 -0.0919,0.28332 -0.0941,0.1269 -0.22513,0.1841 -0.39316,0.1718 -0.16804,-0.0123 -0.29512,-0.0914 -0.38142,-0.2374 -0.0555,-0.0962 -0.079,-0.21543 -0.0704,-0.35766 0.0171,-0.28148 0.11533,-0.53195 0.29541,-0.75111 0.31038,-0.3823 0.73115,-0.55392 1.26046,-0.5129 0.53851,0.0417 0.94622,0.2553 1.22159,0.63847 0.24178,0.33585 0.34321,0.76143 0.30591,1.27655 -0.042,0.58022 -0.23303,1.07618 -0.5708,1.489 -0.18715,0.22586 -0.45975,0.4817 -0.81733,0.76904 -0.066,0.0528 -0.13198,0.10568 -0.19791,0.15856 -0.64637,0.51793 -1.09413,1.1772 -1.34611,1.97427 0.52578,0.0384 1.05144,0.0787 1.57697,0.12076 0.30329,0.0243 0.52404,-0.0453 0.66269,-0.20949 0.10561,-0.12522 0.20466,-0.38948 0.29732,-0.79267 0.0965,0.008 0.19293,0.0163 0.28939,0.0245 -0.0902,0.591 -0.17998,1.18205 -0.26949,1.77313 -1.0359,-0.0878 -2.07234,-0.16836 -3.10922,-0.24172 z"
         id="path5499" />
      <path
         d="m 291.92321,551.80681 0.0413,-0.52814 c 0.18214,-0.55256 0.38541,-0.99711 0.60979,-1.33379 0.16911,-0.25514 0.44395,-0.56947 0.82523,-0.94069 0.0231,-0.0216 0.0463,-0.0432 0.0694,-0.0648 0.0711,-0.0661 0.1422,-0.13221 0.21338,-0.19826 0.35133,-0.32932 0.60123,-0.61995 0.74888,-0.87354 0.19879,-0.34964 0.31722,-0.73568 0.35421,-1.1584 0.0331,-0.37841 -0.003,-0.6743 -0.10762,-0.88782 -0.14678,-0.30119 -0.39994,-0.46995 -0.75884,-0.50514 -0.19937,-0.0195 -0.38007,0.0152 -0.54183,0.10402 -0.14547,0.0785 -0.24603,0.19566 -0.3018,0.35134 0.20503,0.13563 0.29952,0.29831 0.28401,0.48758 -0.009,0.10943 -0.0413,0.20321 -0.0969,0.28136 -0.0964,0.12493 -0.22835,0.17942 -0.39615,0.16366 -0.1678,-0.0158 -0.29347,-0.0974 -0.37719,-0.24522 -0.0538,-0.0973 -0.0752,-0.21701 -0.0641,-0.35903 0.022,-0.28107 0.12469,-0.52945 0.30861,-0.74485 0.31709,-0.37582 0.74085,-0.53872 1.26938,-0.48678 0.53772,0.0528 0.94163,0.27478 1.2102,0.66355 0.23583,0.34077 0.32972,0.76836 0.28332,1.2826 -0.0523,0.57923 -0.25202,1.07113 -0.59704,1.47688 -0.19112,0.22195 -0.46819,0.4721 -0.8308,0.75199 -0.0669,0.0515 -0.13382,0.10293 -0.20067,0.15444 -0.65541,0.50447 -1.11471,1.15435 -1.38069,1.94605 0.52499,0.0492 1.04984,0.10034 1.57452,0.15329 0.30279,0.0306 0.52473,-0.0344 0.66625,-0.19575 0.1078,-0.12301 0.21152,-0.38516 0.31129,-0.78636 0.0963,0.0101 0.19261,0.0203 0.2889,0.0305 -0.10058,0.58901 -0.20085,1.17807 -0.30079,1.76718 -1.03414,-0.1092 -2.06893,-0.21116 -3.10429,-0.30589 z"
         id="path5501" />
    </g>
  </g>
</svg>
