<?xml version="1.0" encoding="utf-8"?>
<!-- Generator: Adobe Illustrator 21.1.0, SVG Export Plug-In . SVG Version: 6.00 Build 0)  -->
<svg version="1.1" id="Layer_1" xmlns="http://www.w3.org/2000/svg" xmlns:xlink="http://www.w3.org/1999/xlink" x="0px" y="0px"
	 viewBox="0 0 632 295" style="enable-background:new 0 0 632 295;" xml:space="preserve">
<style type="text/css">
	.st0{fill:url(#SVGID_1_);}
	.st1{fill:url(#SVGID_2_);}
	.st2{fill:url(#SVGID_3_);}
	.st3{fill:url(#SVGID_4_);}
	.st4{fill:url(#SVGID_5_);}
	.st5{fill:#FAE319;}
	.st6{fill:url(#SVGID_6_);}
	.st7{fill:url(#SVGID_7_);}
	.st8{fill:url(#SVGID_8_);}
	.st9{fill:url(#SVGID_9_);}
	.st10{fill:url(#SVGID_10_);}
	.st11{fill:url(#SVGID_11_);}
	.st12{fill:url(#SVGID_12_);}
	.st13{fill:url(#SVGID_13_);}
	.st14{fill:url(#SVGID_14_);}
	.st15{fill:url(#SVGID_15_);}
	.st16{fill:url(#SVGID_16_);}
	.st17{fill:url(#SVGID_17_);}
	.st18{fill:url(#SVGID_18_);}
	.st19{fill:url(#SVGID_19_);}
	.st20{fill:url(#SVGID_20_);}
	.st21{fill:url(#SVGID_21_);}
	.st22{fill:url(#SVGID_22_);}
	.st23{fill:url(#SVGID_23_);}
	.st24{fill:url(#SVGID_24_);}
	.st25{fill:url(#SVGID_25_);}
	.st26{fill:url(#SVGID_26_);}
	.st27{fill:url(#SVGID_27_);}
	.st28{fill:url(#SVGID_28_);}
	.st29{fill:url(#SVGID_29_);}
	.st30{fill:url(#SVGID_30_);}
	.st31{fill:url(#SVGID_31_);}
	.st32{fill:url(#SVGID_32_);}
	.st33{fill:url(#SVGID_33_);}
	.st34{fill:url(#SVGID_34_);}
	.st35{fill:url(#SVGID_35_);}
	.st36{fill:url(#SVGID_36_);}
	.st37{fill:url(#SVGID_37_);}
	.st38{fill:url(#SVGID_38_);}
	.st39{fill:url(#SVGID_39_);}
	.st40{fill:url(#SVGID_40_);}
	.st41{fill:url(#SVGID_41_);}
	.st42{fill:url(#SVGID_42_);}
	.st43{fill:url(#SVGID_43_);}
	.st44{fill:url(#SVGID_44_);}
	.st45{fill:url(#SVGID_45_);}
	.st46{fill:url(#SVGID_46_);}
	.st47{fill:url(#SVGID_47_);}
	.st48{fill:url(#SVGID_48_);}
	.st49{fill:url(#SVGID_49_);}
	.st50{fill:url(#SVGID_50_);}
	.st51{fill:url(#SVGID_51_);}
	.st52{fill:#28459D;}
</style>
<radialGradient id="SVGID_1_" cx="307.2577" cy="236.8711" r="204.3921" gradientTransform="matrix(1 0 0 -1 0 310)" gradientUnits="userSpaceOnUse">
	<stop  offset="0.3023" style="stop-color:#F8DC4A"/>
	<stop  offset="0.6345" style="stop-color:#F8D851"/>
	<stop  offset="1" style="stop-color:#F4C84F"/>
</radialGradient>
<ellipse class="st0" cx="318.9" cy="121.7" rx="297.3" ry="119.3"/>
<linearGradient id="SVGID_2_" gradientUnits="userSpaceOnUse" x1="441.7911" y1="245.1657" x2="439.8263" y2="125.3165" gradientTransform="matrix(1 0 0 -1 0 310)">
	<stop  offset="8.802083e-02" style="stop-color:#28459D"/>
	<stop  offset="0.9521" style="stop-color:#252B67"/>
</linearGradient>
<path class="st1" d="M479.2,50.6c-1.8,4.2-4.9,6.9-9.4,7.9c-3.4,0.8-6.8,0.4-10.2-0.2c-10.7-1.8-21.4-2.9-32.3-1.6
	c-13.8,1.6-26,6.2-35.4,16.8c-4,4.6-6.2,10.3-7.4,16c-1,4.8-1.3,9.9-0.3,14.9c0.9,4.6,2,9,4.2,13c5.1,9.4,14,13.9,23.2,17.7
	c8.7,3.6,17.8,5.9,26.5,9.5c4.2,1.7,7.9,4.1,11,7.2c8.1,8,4.9,22.5-5.8,26.9c-7.3,3-14.7,2.7-21.9-0.3
	c-10.5-4.3-17.9-12.2-24.3-21.2c-3.5-4.9-6.8-9.8-8.8-15.5c-0.7-2.1-1.7-4.4-4.8-3.4c0.6,4.9,1.2,9.8,1.8,14.7
	c1.5,11.5,3.2,22.9,4.7,34.4c0.3,2.3-0.2,4.7,1.6,6.6c1.3-0.1,1.7-1.3,2.1-2.2c3.3-6.4,8.7-8.1,15.5-8c11,0.2,21.9,2.5,33,2.1
	c14.7-0.4,28.4-4.2,40.2-13.3c6.5-5,10.8-11.5,13.5-19.5c3.1-9.4,3.1-18.5,0.1-27.6c-2.9-9.2-10.1-14.9-18.1-19.4
	c-9.2-5.2-19.1-8.8-29.1-12.4c-5.2-1.9-10.4-3.9-14.7-7.6c-4.9-4.2-6.7-10.3-4.7-16.1c1.7-4.8,7.3-8.3,13.4-8.7
	c10.7-0.6,19.1,4.3,26.9,10.8c6,5,10.6,11.1,14.7,17.7c0.2,0.2,0.2,0.5,0.4,0.8c1,1.2,1.9,3.3,3.8,2.4c1.8-0.7,1.1-2.7,0.9-4.2
	c-1.5-12.2-3-24.3-4.6-36.4c-0.2-1.6-1-4.9-1.2-6.8c-0.2-1.8-2-2.2-2.6-0.9C480.4,46.2,479.8,49.2,479.2,50.6z"/>
<linearGradient id="SVGID_3_" gradientUnits="userSpaceOnUse" x1="419.8935" y1="245.5247" x2="417.9287" y2="125.6755" gradientTransform="matrix(1 0 0 -1 0 310)">
	<stop  offset="8.802083e-02" style="stop-color:#28459D"/>
	<stop  offset="0.9521" style="stop-color:#252B67"/>
</linearGradient>
<path class="st2" d="M615.9,106.7C612.2,92.9,604,82,593.8,72.5C578.2,58,559.9,48,540.4,39.9c-22.1-9.2-45.1-15.4-68.6-19.8
	c-18.4-3.4-37-6.1-55.8-6.7c-10.5-0.3-39.2-1.1-49.1-0.7c-16.2,0.6-32.3,1.9-48.4,4.1c-27.9,3.8-55.1,10-81.5,20.1
	c-5.1,1.9-10.1,4-15.5,6.1c2,0.8,3.3,0,4.5-0.4c30.7-10,62.1-16.6,94.3-19.7c20.2-1.9,40.4-2.2,60.7-0.8c24,1.6,47.5,5.7,70.5,12.5
	c10.2,3,34.5,13.4,41.2,16.4c15.8,7,29.7,17.2,41.8,29.6c4.8,5,9.2,10.2,12.9,16.1c10.1,15.8,9.4,32.3,3.3,49.1
	c-6.7,18.1-19.4,31.4-34.8,42.3c-3,2.1-6.2,4.1-9.3,6.1c4.7,0.9,17.2,0.7,23.5,1.2c19.9-8.1,38.7-19.4,54.3-34.4
	c8.9-8.6,15.9-18.5,18.4-30.9c3.3-16.1-0.7-30.4-10.6-43.5c-14.1-18.6-33.4-29.8-54-39.3c-11.4-5.3-23.3-9.7-35.3-13.4
	c-0.8-0.3-1.6-0.7-2.3-1.2c10.1,2.5,19.9,5.8,29.7,9.5c17.6,6.6,34.4,14.7,49.5,26.1c12,9,22,19.6,27.1,34
	c7.2,20.3,2.2,38.4-11.7,54.2c-11.7,13.4-29,29.8-60.7,39.1c5.9-1.7,13.5-1.1,19.6-1c1.2,0,15.2-8.5,21-12.1
	c13-7.9,23-17.6,31.7-30.2C616.5,138.4,620.3,123.3,615.9,106.7z"/>
<linearGradient id="SVGID_4_" gradientUnits="userSpaceOnUse" x1="130.2878" y1="250.2723" x2="128.323" y2="130.4231" gradientTransform="matrix(1 0 0 -1 0 310)">
	<stop  offset="8.802083e-02" style="stop-color:#28459D"/>
	<stop  offset="0.9521" style="stop-color:#252B67"/>
</linearGradient>
<path class="st3" d="M115.7,171c-11.9-7.7-21.2-18.4-27.6-31.3c-8.1-16.2-7-32.5,0.1-48.6c4.9-10.9,12.1-20.3,21.4-28.2
	c8.1-6.9,16.7-13.1,26-18.4c15.9-9,32.8-15.6,50.3-20.4c12.8-3.6,50-9.3,54.3-9.9c-10.7-0.3-21.4,0.3-32.1,1.2
	c-5.5,0.4-10.9,1-16.4,1.5c-3,0.4-8,1-11.1,1.4c-15.8,2.5-31.5,5.4-46.9,9.7c-28.8,8-56.3,18.7-80.4,36.9
	c-10.6,8-19.7,17.4-26.1,29.2c-12.1,22.3-8.1,43.5,7.8,63.8s33.5,29.5,43.4,34.6c5.2,2.7,13.7,2.6,19.3,1.7
	c-13.6-5.5-26.4-12.4-38.6-20.5c-7-4.7-13.2-10.6-18.8-17c-10.7-12.3-16-26.4-13.8-42.7c1.4-10.2,5.9-19.2,12.3-27.3
	c10.8-13.5,24.8-23.1,39.9-31.1c21.9-11.5,45.1-19.2,69-25.2c0.6-0.2,1.3-0.1,2,0.3c-8.5,2.8-16.9,5.6-25.4,8.4
	c-14.5,4.8-28.6,10.6-42,17.9c-13,7-25.2,15.3-35,26.7c-10.1,11.9-16,25.4-15.3,41.1c0.5,11.6,5.4,21.6,12.7,30.5
	c12.1,14.8,28,24.7,44.8,33.2c4,2,8.1,3.8,12.2,5.6c1.3,0.1,2.5,0.2,3.8,0.2c14.3,0,28.6,0,43,0c1.9,0,3.9,0.6,5.8-0.2
	C143,189.5,123.8,176.2,115.7,171z"/>
<linearGradient id="SVGID_5_" gradientUnits="userSpaceOnUse" x1="197.7606" y1="249.1662" x2="195.7959" y2="129.317" gradientTransform="matrix(1 0 0 -1 0 310)">
	<stop  offset="8.802083e-02" style="stop-color:#28459D"/>
	<stop  offset="0.9521" style="stop-color:#252B67"/>
</linearGradient>
<path class="st4" d="M269.3,61.6c-0.2-2.3-1.8-2.5-3.6-2.5c-15.7,0-31.4,0-47.1,0c-0.4,0-0.8,0-1.2,0.1c-1.4,0.4-2.8,0.9-3,2.5
	c-0.2,1.8,1.7,2.3,3,2.6c5.2,1.2,8.8,4.4,11.6,8.7c7.1,11.1,8.9,23.8,10.4,36.6c0.7,6.2,0.5,12.5,0.9,18.7c0.3,5.6,0.1,11.2,0.1,17
	c-0.5-0.2-0.8-0.2-0.9-0.4c-7.7-15.9-15.5-31.8-23.1-47.8c-3.9-8.3-8.6-16.2-11.4-25c-0.7-2.3-1.8-4.9,0.3-7.1
	c1.1-1.3,2.3-2.6,1.4-4.4c-0.9-1.8-2.7-1.6-4.4-1.6c-21.8,0-43.6,0-65.4,0c-1.2,0-2.3,0.1-3.5,0.4c-1.4,0.4-2.8,0.9-2.5,2.6
	c0.2,1.7,1.6,2.3,3.2,2.2c2-0.1,3.8,0.5,5.6,1.2c4.9,1.8,8.3,6.3,8.2,11.4c-0.3,21.3,0.7,42.6-0.6,63.9c-0.4,7.8-1.7,15.5-4.7,22.7
	c-2.5,6-4.8,11-10.5,13.2c-1.6,0.6-4,2.4-6.4,2.4c-2.7,1.3-2.7,3.5,8.6,3.8c15.8,0,30.7,0,45.6,0c0.7,0,1.4,0,2.1,0
	c1-0.1,1.9-0.4,2.2-1.5c0.3-1.1-0.4-2.3-1.4-2.7c-0.8-0.3-1.6-0.7-2.4-0.8c-9-1.2-14.5-6.9-18.5-14.4c-6.2-11.7-7.8-24.6-8.7-37.5
	c-1-14-0.5-27.9-0.6-41.9c0-1.2,0-2.5,0-3.7c1.2,1,1.8,2.1,2.4,3.2c11.3,22.1,22.7,44.2,33.8,66.3c5.6,11.2,12,22.1,16.7,33.8
	c2.8,7.1,3.8,7.4,9.6,2.1c0.1-0.1,0.3-0.3,0.4-0.4c8.3-7,17.5-12.5,28-15.5c3.8-1.1,7.7-1.9,11.7-2.4c1.3-0.1,3.2-0.4,3.3-2.3
	c0.1-1.9-1.4-2.6-3.1-2.9c-1.5-0.3-3-0.6-4.5-1.1c-4.1-1.4-5.7-3.8-5.7-8c0-2.4,0-4.9,0-7.3c0.3-14.9-0.7-29.8,1.3-44.7
	c1-7.1,2.3-14,5-20.7c3-7.3,6.7-13.9,15.2-15.9C268.3,64.2,269.5,63.7,269.3,61.6z"/>
<path class="st5" d="M186.5,17.4c-2.3,0.4-4.5,0.7-6.7,1.1c1.8-2.2,3.9-2.9,6.5-1.4c0.2,0.1,0.4,0.2,0.5,0.2
	C186.7,17.3,186.6,17.4,186.5,17.4z"/>
<linearGradient id="SVGID_6_" gradientUnits="userSpaceOnUse" x1="321.9758" y1="262.7021" x2="319.0287" y2="112.3994" gradientTransform="matrix(1 0 0 -1 0 310)">
	<stop  offset="0.125" style="stop-color:#D53E3B"/>
	<stop  offset="0.7747" style="stop-color:#AF1A28"/>
</linearGradient>
<path class="st6" d="M340.5,59.2c11.8,0,23.7,0,35.5,0c1.5,0,3,0.1,3.6,1.5c1.2,2.7,0.5,3.6-2.6,3.7c-0.8,0-1.6,0-2.3,0
	c-4.2,0.1-6,1.4-7.1,5.5c-1.1,4-1.5,8.1-1.6,12.1c-0.1,22.4-0.1,44.8-0.2,67.2c0,7.6-2.1,14.5-6.9,20.6
	c-5.3,6.8-12.4,10.7-20.4,12.9c-16.3,4.4-32.8,5-49.1,0.1c-23.3-6.9-34.6-32.6-23.6-53.5c7.1-13.6,23.6-16.3,33.5-5.7
	c6.7,7.2,8.5,21.7,3.7,30.3c-2.5,4.4-6.3,7.1-11.1,8.4c-2,0.6-4,1.1-5.6,2.4c-2.7,2-3.2,4.8-1.4,7.7c1.3,2.1,3.1,3.6,5.2,4.7
	c6.9,3.7,14,3.4,20.8,0c6-2.9,7.2-8.9,7.8-14.9c1.1-12.3,0.5-24.6,0.6-36.9s0.1-24.6-0.1-37c-0.1-5.3-0.2-10.5-1-15.8
	c-0.9-6.4-2.8-8.3-9.3-8.3c-2,0-3.9-0.2-5.8-0.6c-1.1-0.2-1.8-0.5-1.9-1.7c-0.1-1.3,0.4-2.4,1.7-2.7c0.7-0.2,1.5-0.1,2.3-0.1
	C316.9,59.2,328.7,59.2,340.5,59.2L340.5,59.2z"/>
<linearGradient id="SVGID_7_" gradientUnits="userSpaceOnUse" x1="315.5817" y1="145.0195" x2="315.5817" y2="76.2518" gradientTransform="matrix(1 0 0 -1 0 310)">
	<stop  offset="0.3363" style="stop-color:#6D6E71"/>
	<stop  offset="0.3814" style="stop-color:#646668"/>
	<stop  offset="0.5237" style="stop-color:#4C4C4E"/>
	<stop  offset="0.6654" style="stop-color:#313031"/>
	<stop  offset="0.8054" style="stop-color:#111111"/>
	<stop  offset="0.9413" style="stop-color:#000000"/>
</linearGradient>
<path class="st7" d="M550.2,194.5c1.2,0,2.6-1.8,7.9-1.8c2.7,0,5.2,0,6.3,3c0.3,0.7,0.7,0.8,1.3,0.5c1.7-0.8,3.4-0.5,5.3,0.6
	c0-2,0-3.7,0-5.5c0.1-3.3,1.4-5.1,4.6-5.2c4.4-0.2,8.8-0.2,13.2,0c3.1,0.2,4.4,1.8,4.5,4.7c0.1,1-0.2,3,0.2,2.9
	c1.8-0.3,3.8,1.4,5.3-0.1c3-2.9,7.3-4.2,9.8-7.9c0.9-1.3,2.5-1.5,4-1.5c3.9-0.1,7.8-0.1,11.7,0c4,0.1,5.3,1.6,5.3,5.7
	c0,2.8,0.3,5.7-0.1,8.5c-0.7,6.4,0.3,12.7,0.1,19.1s0,12.9,0,19.4c0,1.7,0.3,3.5-0.8,5.1c-0.8,1.1,0.7,1.6,0.7,2.6
	c0,5,0.2,10-0.1,14.9c-0.1,2.2-2.2,3.2-4.3,3.2c-4.4,0.1-8.8,0-13.2,0c-1.1,0-2.3-0.3-2.9-1.1c-3.1-3.5-7.8-4.8-11.1-7.9
	c-1.2-1-2.4-0.3-3.6-0.3c-2.1,0-0.9,1.7-1,2.7c-0.4,2.1-1.5,3.5-3.5,3.7c-5.1,0.7-10.3,0.7-15.5,0c-2.2-0.3-3.2-2-3.4-4.2
	c-0.1-1.4,0-2.9,0-4.5c-2.9,1.4-6,1.7-8.4,4c-2.3,2.2-8.8,0.8-10.4-1.9c-0.5-0.9-1-1.1-1.8-1.1s-1.6,0-2.3,0
	c-154.8,0-309.7,0-464.5,0c-2,0-3.8-0.4-4.9,2.2c-0.7,1.8-8,2.4-9.6,0.8c-1.2-1.2-2.5-2-4.1-2.5c-1.5-0.5-2.9-1.1-4.5-1.7
	c0,1.4,0,2.5,0,3.7c-0.1,3.7-1.3,5.3-5,5.4c-4.1,0.2-8.2,0.2-12.3,0c-2.7-0.1-4.7-1.4-5-4.4c-0.1-0.8,0.5-2.2-0.5-2.3
	c-1.3-0.1-2.8-0.9-3.9,0.1c-3.5,3-8.1,4.4-11.2,7.9c-0.8,0.9-2,1.2-3.2,1.2c-4.3,0-8.6,0-12.9,0c-2.8,0-4.9-1.7-4.7-4.5
	c0.2-5.1-1-10.3,0.9-15.4c0.6-1.5-1.1-3.3-1-5.2c0.1-9.3-0.5-18.6,0.2-27.9c0.5-6.5-0.7-12.9-0.2-19.4c0.3-4.5,1.6-6.1,6.2-6.2
	c3.5,0,7-0.1,10.6,0c2.3,0,3.8,1.6,5.6,2.8c4.1,2.5,6.7,7.9,12.8,6.8c1.3-0.2,1.3-0.6,1.3-1.5c0.4-5.3,1.5-6.4,6.8-6.4
	c3.1,0,6.3,0,9.4,0c4.7,0.1,6.1,1.4,6.1,6.1c0,1.4,0,2.7,0,4.3c2-0.3,3.8-1.2,5.7-0.1c0.4,0.2,0.8,0,1-0.4c1.4-4.1,5-4,7.9-3.2
	C79.8,194.1,544.1,194.4,550.2,194.5z M40.4,195c-0.7,2-0.4,4-0.3,6c0.1,1.5,0.8,2.5,2.6,2.5c4.6,0,9.1,0,13.7,0
	c1.6,0,2.4-0.7,2.4-2.3c-0.1-2.8,0.4-5.6-0.1-8.4c0-4.6-0.3-4.9-4.9-4.9c-2,0-4.1,0-6.1,0C40.4,188,40.4,188,40.4,195z M573.4,194.7
	c-1.3,2.2-0.6,4.6-0.5,6.8c0.1,1.3,1.1,2,2.5,2c4.6,0,9.1,0,13.7,0c1.7,0,2.5-0.9,2.5-2.6c0-2.7-0.1-5.4-0.1-8.1
	c0-4.4-0.4-4.8-4.8-4.8c-2.8,0-5.6,0-8.5,0C572.9,188,571.9,189.3,573.4,194.7z M609.4,194c0,2.2-0.2,4.5-0.1,6.7
	c0.1,1.8,0.9,2.9,2.9,2.8c4.5-0.1,9,0,13.4,0c1.6,0,2.4-0.7,2.4-2.2c-0.1-3.2,0.4-6.4-0.1-9.6c0-5.3-0.1-5.4-5.6-5.4
	c-1.8,0-3.5,0-5.3,0C608,186.1,609.3,186.5,609.4,194z M3.7,193.3c-0.1,2.4-0.2,4.9-0.2,7.3c0,1.9,0.9,2.9,2.9,2.9c4.5,0,9,0,13.5,0
	c1.7,0,2.6-0.8,2.5-2.5c-0.1-3.1,0.4-6.2-0.1-9.3c0-5.4-0.1-5.4-5.6-5.4c-1.9,0-3.7,0-5.6,0C3.8,186.2,3.8,186.2,3.7,193.3z
	 M22.3,223.6L22.3,223.6c0-5,0-10,0.1-15c0-2.2-1.1-3.3-3.1-3.4c-4.1-0.1-8.2-0.1-12.3,0c-2.1,0.1-3.4,1.1-3.4,3.5
	c0,9.8,0,19.6,0,29.3c0,2.4,1,3.6,3.5,3.6c3.9-0.1,7.8-0.1,11.7,0c2.7,0.1,3.6-1.1,3.5-3.7C22.2,233.2,22.3,228.4,22.3,223.6z
	 M628,223.8L628,223.8c0-5,0-10,0-14.9c0-2.3-1.1-3.5-3.3-3.6c-4-0.1-8-0.1-12,0c-2.3,0.1-3.6,1.2-3.5,3.7c0.1,9.7,0,19.3,0,29
	c0,2.5,1.1,3.8,3.7,3.7c3.9-0.1,7.8-0.1,11.7,0c2.6,0.1,3.4-1.1,3.4-3.6C627.9,233.3,628,228.5,628,223.8z M572.8,222.9
	c0,4.7,0.1,9.4,0,14.1c0,2.5,1,3.6,3.5,3.6c4,0,8,0,12,0c2.3,0,3.4-0.9,3.4-3.3c-0.1-9.4-0.1-18.8,0-28.1c0-2.5-1.1-3.7-3.4-3.8
	c-4-0.1-8-0.1-12,0c-2.4,0.1-3.6,1.4-3.5,4C572.9,213.9,572.8,218.4,572.8,222.9z M58.7,222.9C58.7,222.9,58.8,222.9,58.7,222.9
	c0-4.6-0.1-9.2,0.1-13.8c0.1-2.5-0.9-3.7-3.3-3.8c-4-0.1-8-0.1-12,0c-2.2,0.1-3.5,1.2-3.5,3.7c0.1,9.3,0.1,18.6,0,27.9
	c0,2.5,1.2,3.6,3.6,3.6c4,0,8,0,12,0c2.2,0,3.2-1,3.1-3.2C58.7,232.5,58.7,227.7,58.7,222.9z M563.3,224.6c0.1,0,0.2,0,0.2,0
	c0-7.8,0-15.6,0-23.4c0-1.2,0-2.4-0.3-3.5c-0.8-3.2-2.3-3.7-7-3.2c-2.8,0.3-2.7,2.3-2.7,4.3c0,9.7,0,19.3,0.1,29
	c0,7.2,0,14.5,0.1,21.7c0,1.7,0,3.4,2,4.2c4.8,1.8,7.7-0.2,7.7-5.4C563.4,240.4,563.3,232.5,563.3,224.6z M77.9,224.5
	c0.1,0,0.1,0,0.2,0c0-8.8,0-17.6,0-26.4c0-1.5-0.1-3-1.9-3.5c-5.3-1.6-8.2,0.5-8.2,6.1c0,15.5,0.1,31.1,0.1,46.6
	c0,1.7,0.5,3.3,1.2,4.8c1.5,3.3,4.5,1.6,6.7,1.6c1.9,0,1.9-1.8,1.9-3.4C77.9,241.7,77.9,233.1,77.9,224.5z M24.8,257.1
	c4.5-2.3,8-4,7-10.1c-1.1-6.5,0.5-13.3,0-20c-0.4-5.1,0.6-10.3,0.4-15.4c-0.2-5-0.6-10.1-0.1-15.1c0.1-0.5,0-1-0.4-1.3
	c-2.3-1.6-4.2-3.7-6.8-4.9C24.8,212.6,24.8,234.7,24.8,257.1z M607.3,189.8c-2.6,2-4.6,3.5-6.6,5c-0.7,0.5-0.9,1.1-0.8,2
	c0.6,4.8,1.1,9.6-0.5,14.4c-0.4,1.1-0.3,2.5,0.3,3.7c0.5,1.1,0.8,2.2,0.7,3.4c-0.4,5.3,1,10.7-1,15.9c-0.2,0.5-0.2,1.2,0.1,1.7
	c1.8,4,1.7,8.5,0.8,12.4c-1.1,4.5,1.4,5.7,4.1,7.3c0.6,0.4,1.2,1.2,2,0.8c0.6-0.4,0.3-1.3,0.3-1.9c0.2-13,0.4-26,0.5-38.9
	C607.4,207.2,607.3,198.8,607.3,189.8z M627.9,252.1L627.9,252.1c0.1-2,0.1-3.9,0.1-5.9c0-1.9-0.8-2.8-2.9-2.8
	c-4.3,0.1-8.6,0.1-12.9,0c-2.1,0-3,0.9-3,3c0,3.4,0,6.8,0,10.3c0,2.9,1.1,4.1,4,4.2c3.7,0.1,7.4,0,11.1,0c2.4,0,3.7-0.9,3.5-3.5
	C627.8,255.6,627.9,253.8,627.9,252.1z M13,243.4c-2.1,0-4.1,0.1-6.2,0c-2.5-0.2-3.3,1-3.3,3.3c0,3.5,0.1,7,0,10.5
	c-0.1,2.4,1.4,3.4,3.4,3.5c4.1,0.2,8.2,0.1,12.3,0c1.7,0,2.9-0.8,2.9-2.9c0-3.9,0.1-7.8,0.1-11.7c0-1.9-0.8-2.9-2.9-2.8
	C17.3,243.5,15.2,243.5,13,243.4z M582.1,258c2.1,0,4.3,0,6.4,0c2.1,0,3-1,3-3c0-2.7,0-5.5,0.1-8.2c0.1-2.4-1.2-3.4-3.3-3.5
	c-4.2-0.1-8.4-0.1-12.6,0c-2,0-3,1.2-2.9,3.2c0,2.8,0,5.7,0,8.5c0,2.1,1.1,3,3.1,3C578,258,580,258,582.1,258z M49.5,258
	c2.1,0,4.1,0,6.2,0c1.9,0,3-0.7,3-2.7c0-3,0.1-6.1,0.1-9.1c0-1.9-1-2.9-2.8-2.9c-4.2,0-8.4,0-12.6,0c-2.1,0-3.2,1.1-3.2,3.3
	c0,2.7,0,5.5,0,8.2c0,2.1,1.1,3.2,3.3,3.3C45.4,258,47.4,258,49.5,258z M593.5,223.9c0,2.3,0,4.7,0,7c0,0.8-0.2,1.9,0.8,2.3
	c0.9,0.4,1.9,0.3,2.8-0.3c1.2-0.8,1.4-2,1.4-3.3c0-3,0-6,0-9.1c0-1.3,0-2.5-0.3-3.8c-0.3-1.8-1.7-2.2-3.3-2.1
	c-1.9,0.1-1.4,1.5-1.4,2.6C593.4,219.4,593.5,221.7,593.5,223.9z M38.2,224.2c0-2.4,0-4.9,0-7.3c0-1,0.2-2.3-1.4-2.3
	c-1.5,0-3.1,0.4-3.1,2c-0.2,4.9-0.2,9.7,0,14.6c0.1,1.7,1.6,2.3,3.3,2.2c1.7-0.1,1.2-1.5,1.3-2.4C38.3,228.7,38.2,226.5,38.2,224.2z
	 M565.8,223.9c0,2.1,0,4.3,0,6.4c0,1.2,0.4,2.2,1.7,2.3c1.2,0.1,2.6-0.3,2.7-1.6c0.5-4.6,0.5-9.3,0-13.9c-0.1-1.3-1.3-1.9-2.6-1.7
	c-1.6,0.1-1.8,1.2-1.8,2.5C565.8,219.8,565.8,221.8,565.8,223.9z M66.3,224.2c0-2.1,0-4.3,0-6.4c0-1.5-0.7-2.4-2.2-2.5
	c-1.5,0-2.4,0.8-2.4,2.3c-0.1,4.3,0,8.6,0,12.8c0,1.6,1.2,2.3,2.5,2.2c1.2-0.1,2.2-0.8,2.1-2.3C66.3,228.3,66.3,226.2,66.3,224.2z
	 M598.5,202.4c-0.1-1,0.3-2.9-0.2-4.7c-0.5-1.8-1.9-2.1-3.5-2c-1.7,0.1-1.5,1.4-1.3,2.4c0.5,3.3-1.7,6.5-0.1,9.9
	c0.5,1-0.2,2.6,1.8,2.6c1.8,0,3.1-0.8,3.3-2.7C598.6,206.4,598.5,204.9,598.5,202.4z M598.5,242.9L598.5,242.9
	c-0.1-1.1,0-2.2-0.1-3.2c-0.2-2.1-2-3.5-3.8-3c-0.9,0.2-2.8,5-2.2,6c1.2,2,1,4.1,1,6.2c0,1.3,0,2.7,1.9,2.6c1.6-0.1,2.5-0.9,2.6-2.5
	C598.2,246.9,598.4,244.9,598.5,242.9z M36.7,236.5c-1.5,0.3-2.9,0.8-3,2.2c-0.1,3.6-0.1,7.2,0.2,10.8c0.1,1.4,1.5,2,2.9,1.9
	c1.8,0,1.3-1.4,1.3-2.4c0.1-1.8-0.2-3.6,0.8-5.2c1.6-2.5-0.8-4.4-0.9-6.7C37.9,237,37,236.7,36.7,236.5z M33.5,203L33.5,203
	c0,1.8,0,3.5,0,5.3c0.1,1.2,0.8,2,2,2.2c0.8,0.2,2.3,0.4,2.4-0.3c0.1-2.2,1.9-4.2,1.1-6.4c-0.7-1.8-0.8-3.6-0.8-5.5
	c0-1.2,0.3-2.7-1.8-2.6c-1.7,0.1-2.9,0.7-3,2.5C33.4,199.9,33.5,201.4,33.5,203z M66.2,243.4h0.1c0-1.5,0-2.9,0-4.4
	s-0.7-2.5-2.2-2.5c-1.5-0.1-2.5,0.8-2.5,2.3c0,3.1,0,6.2,0.1,9.3c0,1.5,1.1,2.1,2.4,2c1.1-0.1,2.1-0.7,2-2
	C66.2,246.5,66.2,244.9,66.2,243.4z M66.4,204.7c0-1.5,0-2.9,0-4.4c0-1.7-0.7-2.7-2.4-2.6c-1.7,0-2.4,1.1-2.4,2.7c0,2.8,0,5.7,0,8.5
	c0,1.7,1,2.5,2.6,2.4s2.2-0.9,2.2-2.5C66.3,207.4,66.4,206.1,66.4,204.7z M570.4,204.6L570.4,204.6c-0.1-1.7,0.1-3.3-0.1-5
	c-0.2-1.4-1.2-2.1-2.7-2s-1.9,1.1-1.9,2.4c0,2.9,0,5.9,0,8.8c0,1.3,0.3,2.3,1.9,2.4c1.6,0.1,2.7-0.7,2.8-2.3
	C570.6,207.5,570.4,206.1,570.4,204.6z M565.8,243.2L565.8,243.2c0.1,1.5,0.1,2.9,0.1,4.4c0,1-0.1,2,1.3,2.1
	c1.3,0.1,2.7-0.2,2.8-1.5c0.4-3.5,0.8-7-0.2-10.4c-0.4-1.3-1.4-1.6-2.5-1.4s-1.6,0.9-1.6,2.1C565.8,240.1,565.8,241.7,565.8,243.2z"
	/>
<linearGradient id="SVGID_8_" gradientUnits="userSpaceOnUse" x1="13" y1="104.8276" x2="13" y2="68.3468" gradientTransform="matrix(1 0 0 -1 0 310)">
	<stop  offset="0.1647" style="stop-color:#BCBEC0"/>
	<stop  offset="0.5654" style="stop-color:#6D6E71"/>
	<stop  offset="0.7881" style="stop-color:#BCBEC0"/>
</linearGradient>
<path class="st8" d="M22.3,223.6c0,4.8-0.1,9.6,0,14.4c0.1,2.6-0.8,3.8-3.5,3.7c-3.9-0.1-7.8-0.1-11.7,0c-2.5,0.1-3.5-1.2-3.5-3.6
	c0-9.8,0-19.6,0-29.3c0-2.4,1.3-3.4,3.4-3.5c4.1-0.1,8.2-0.1,12.3,0c2.1,0,3.1,1.1,3.1,3.4C22.3,213.6,22.4,218.6,22.3,223.6
	L22.3,223.6z"/>
<linearGradient id="SVGID_9_" gradientUnits="userSpaceOnUse" x1="618.6" y1="104.8389" x2="618.6" y2="68.3176" gradientTransform="matrix(1 0 0 -1 0 310)">
	<stop  offset="0.1647" style="stop-color:#BCBEC0"/>
	<stop  offset="0.5449" style="stop-color:#6D6E71"/>
	<stop  offset="0.744" style="stop-color:#BCBEC0"/>
</linearGradient>
<path class="st9" d="M628,223.8c0,4.8-0.1,9.6,0,14.4c0,2.4-0.8,3.6-3.4,3.6c-3.9-0.1-7.8-0.1-11.7,0c-2.6,0-3.7-1.2-3.7-3.7
	c0-9.7,0-19.3,0-29c0-2.5,1.3-3.6,3.5-3.7c4-0.1,8-0.1,12,0c2.1,0.1,3.3,1.2,3.3,3.6C628,213.8,628,218.8,628,223.8L628,223.8z"/>
<linearGradient id="SVGID_10_" gradientUnits="userSpaceOnUse" x1="582.2471" y1="104.7363" x2="582.2471" y2="69.4613" gradientTransform="matrix(1 0 0 -1 0 310)">
	<stop  offset="0.1647" style="stop-color:#BCBEC0"/>
	<stop  offset="0.5449" style="stop-color:#6D6E71"/>
	<stop  offset="0.744" style="stop-color:#BCBEC0"/>
</linearGradient>
<path class="st10" d="M572.8,222.9c0-4.5,0.1-9,0-13.5c-0.1-2.6,1.1-3.9,3.5-4c4-0.1,8-0.1,12,0c2.3,0.1,3.4,1.3,3.4,3.8
	c-0.1,9.4-0.1,18.8,0,28.1c0,2.4-1.1,3.3-3.4,3.3c-4,0-8,0-12,0c-2.5,0-3.5-1.2-3.5-3.6C572.9,232.2,572.8,227.5,572.8,222.9z"/>
<linearGradient id="SVGID_11_" gradientUnits="userSpaceOnUse" x1="49.4034" y1="104.7364" x2="49.4034" y2="69.4614" gradientTransform="matrix(1 0 0 -1 0 310)">
	<stop  offset="0.1647" style="stop-color:#BCBEC0"/>
	<stop  offset="0.5654" style="stop-color:#6D6E71"/>
	<stop  offset="0.7881" style="stop-color:#BCBEC0"/>
</linearGradient>
<path class="st11" d="M58.7,222.9c0,4.8-0.1,9.6,0,14.4c0,2.3-0.9,3.2-3.1,3.2c-4,0-8,0-12,0c-2.4,0-3.6-1.1-3.6-3.6
	c0-9.3,0-18.6,0-27.9c0-2.5,1.3-3.7,3.5-3.7c4-0.1,8-0.1,12,0c2.4,0.1,3.4,1.3,3.3,3.8C58.6,213.7,58.8,218.3,58.7,222.9
	C58.8,222.9,58.7,222.9,58.7,222.9z"/>
<linearGradient id="SVGID_12_" gradientUnits="userSpaceOnUse" x1="558.4205" y1="115.7069" x2="558.4205" y2="55.6939" gradientTransform="matrix(1 0 0 -1 0 310)">
	<stop  offset="0.1647" style="stop-color:#BCBEC0"/>
	<stop  offset="0.5449" style="stop-color:#6D6E71"/>
	<stop  offset="0.744" style="stop-color:#BCBEC0"/>
</linearGradient>
<path class="st12" d="M563.3,224.6c0,7.9,0,15.8,0,23.7c0,5.2-2.9,7.1-7.7,5.4c-1.9-0.7-2-2.5-2-4.2c0-7.2,0-14.5-0.1-21.7
	c0-9.7,0-19.3-0.1-29c0-2-0.1-4,2.7-4.3c4.7-0.6,6.2,0,7,3.2c0.3,1.1,0.3,2.3,0.3,3.5c0,7.8,0,15.6,0,23.4
	C563.5,224.6,563.4,224.6,563.3,224.6z"/>
<linearGradient id="SVGID_13_" gradientUnits="userSpaceOnUse" x1="73.05" y1="115.921" x2="73.05" y2="55.8622" gradientTransform="matrix(1 0 0 -1 0 310)">
	<stop  offset="0.1647" style="stop-color:#BCBEC0"/>
	<stop  offset="0.5654" style="stop-color:#6D6E71"/>
	<stop  offset="0.7881" style="stop-color:#BCBEC0"/>
</linearGradient>
<path class="st13" d="M77.9,224.5c0,8.6,0,17.2,0,25.8c0,1.5,0,3.4-1.9,3.4c-2.3,0-5.2,1.7-6.7-1.6c-0.7-1.5-1.2-3.1-1.2-4.8
	c0-15.5-0.1-31.1-0.1-46.6c0-5.6,2.9-7.7,8.2-6.1c1.8,0.6,1.9,2,1.9,3.5c0,8.8,0,17.6,0,26.4C78.1,224.5,78,224.5,77.9,224.5z"/>
<linearGradient id="SVGID_14_" gradientUnits="userSpaceOnUse" x1="28.4634" y1="119.7" x2="28.4634" y2="52.9" gradientTransform="matrix(1 0 0 -1 0 310)">
	<stop  offset="0.1647" style="stop-color:#BCBEC0"/>
	<stop  offset="0.5654" style="stop-color:#6D6E71"/>
	<stop  offset="0.7881" style="stop-color:#BCBEC0"/>
</linearGradient>
<path class="st14" d="M24.8,257.1c0-22.4,0-44.5,0-66.8c2.7,1.2,4.6,3.3,6.8,4.9c0.5,0.3,0.5,0.7,0.4,1.3c-0.5,5,0,10.1,0.1,15.1
	c0.2,5.1-0.8,10.3-0.4,15.4c0.5,6.7-1,13.5,0,20C32.8,253.1,29.3,254.9,24.8,257.1z"/>
<linearGradient id="SVGID_15_" gradientUnits="userSpaceOnUse" x1="603.3022" y1="120.2" x2="603.3022" y2="53.4526" gradientTransform="matrix(1 0 0 -1 0 310)">
	<stop  offset="0.1647" style="stop-color:#BCBEC0"/>
	<stop  offset="0.5449" style="stop-color:#6D6E71"/>
	<stop  offset="0.744" style="stop-color:#BCBEC0"/>
</linearGradient>
<path class="st15" d="M607.3,189.8c0,9.1,0.1,17.4,0,25.8c-0.1,13-0.3,26-0.5,38.9c0,0.7,0.3,1.5-0.3,1.9c-0.8,0.5-1.4-0.4-2-0.8
	c-2.8-1.6-5.2-2.8-4.1-7.3c0.9-3.9,1-8.3-0.8-12.4c-0.2-0.5-0.3-1.2-0.1-1.7c2-5.2,0.6-10.6,1-15.9c0.1-1.2-0.2-2.3-0.7-3.4
	c-0.6-1.2-0.7-2.6-0.3-3.7c1.7-4.8,1.1-9.6,0.5-14.4c-0.1-0.9,0.1-1.5,0.8-2C602.7,193.2,604.7,191.7,607.3,189.8z"/>
<linearGradient id="SVGID_16_" gradientUnits="userSpaceOnUse" x1="618.7001" y1="66.581" x2="618.7001" y2="49.129" gradientTransform="matrix(1 0 0 -1 0 310)">
	<stop  offset="0.1647" style="stop-color:#BCBEC0"/>
	<stop  offset="0.5449" style="stop-color:#6D6E71"/>
	<stop  offset="0.744" style="stop-color:#BCBEC0"/>
</linearGradient>
<path class="st16" d="M627.9,252.1c0,1.8-0.1,3.5,0,5.3c0.2,2.6-1.2,3.5-3.5,3.5c-3.7,0-7.4,0.1-11.1,0c-2.9-0.1-3.9-1.2-4-4.2
	c0-3.4,0-6.8,0-10.3c0-2.1,0.9-3,3-3c4.3,0.1,8.6,0.1,12.9,0c2,0,2.9,0.9,2.9,2.8c0,2,0,3.9,0,5.9
	C628,252.1,627.9,252.1,627.9,252.1z"/>
<linearGradient id="SVGID_17_" gradientUnits="userSpaceOnUse" x1="12.9476" y1="66.6068" x2="12.9476" y2="49.125" gradientTransform="matrix(1 0 0 -1 0 310)">
	<stop  offset="0.1647" style="stop-color:#BCBEC0"/>
	<stop  offset="0.5654" style="stop-color:#6D6E71"/>
	<stop  offset="0.7881" style="stop-color:#BCBEC0"/>
</linearGradient>
<path class="st17" d="M13,243.4c2.1,0,4.3,0.1,6.4,0c2-0.1,2.9,0.9,2.9,2.8c0,3.9-0.1,7.8-0.1,11.7c0,2-1.2,2.8-2.9,2.9
	c-4.1,0.1-8.2,0.1-12.3,0c-2-0.1-3.5-1.1-3.4-3.5c0.1-3.5,0-7,0-10.5c0-2.3,0.8-3.5,3.3-3.3C8.9,243.6,11,243.4,13,243.4z"/>
<linearGradient id="SVGID_18_" gradientUnits="userSpaceOnUse" x1="582.3027" y1="66.8291" x2="582.3027" y2="52.0261" gradientTransform="matrix(1 0 0 -1 0 310)">
	<stop  offset="0.1647" style="stop-color:#BCBEC0"/>
	<stop  offset="0.5449" style="stop-color:#6D6E71"/>
	<stop  offset="0.744" style="stop-color:#BCBEC0"/>
</linearGradient>
<path class="st18" d="M582.1,258c-2,0-4.1,0-6.1,0s-3.1-0.9-3.1-3c0-2.8,0-5.7,0-8.5c0-2,0.9-3.2,2.9-3.2c4.2-0.1,8.4-0.1,12.6,0
	c2.1,0.1,3.4,1.1,3.3,3.5c-0.1,2.7-0.1,5.5-0.1,8.2c0,2.1-0.9,3.1-3,3C586.4,257.9,584.2,258,582.1,258z"/>
<linearGradient id="SVGID_19_" gradientUnits="userSpaceOnUse" x1="49.3034" y1="66.8" x2="49.3034" y2="52.0193" gradientTransform="matrix(1 0 0 -1 0 310)">
	<stop  offset="0.1647" style="stop-color:#BCBEC0"/>
	<stop  offset="0.5654" style="stop-color:#6D6E71"/>
	<stop  offset="0.7881" style="stop-color:#BCBEC0"/>
</linearGradient>
<path class="st19" d="M49.5,258c-2.1,0-4.1,0-6.2,0s-3.2-1.1-3.3-3.3c0-2.7,0-5.5,0-8.2c0-2.1,1.1-3.3,3.2-3.3c4.2,0,8.4,0,12.6,0
	c1.9,0,2.9,1,2.8,2.9c0,3-0.1,6.1-0.1,9.1c0,2-1.1,2.8-3,2.7C53.6,258,51.5,258,49.5,258z"/>
<linearGradient id="SVGID_20_" gradientUnits="userSpaceOnUse" x1="618.6472" y1="123.8038" x2="618.6472" y2="106.4861" gradientTransform="matrix(1 0 0 -1 0 310)">
	<stop  offset="0.1647" style="stop-color:#BCBEC0"/>
	<stop  offset="0.5449" style="stop-color:#6D6E71"/>
	<stop  offset="0.744" style="stop-color:#BCBEC0"/>
</linearGradient>
<path class="st20" d="M627.9,191.7c0-5.3-0.1-5.4-5.6-5.4c-1.8,0-3.5,0-5.3,0c-9-0.1-7.8,0.3-7.7,7.8c0,2.2-0.2,4.5-0.1,6.7
	c0.1,1.8,0.9,2.9,2.9,2.8c4.5-0.1,9,0,13.4,0c1.6,0,2.4-0.7,2.4-2.2C627.9,198.1,628.4,194.9,627.9,191.7z"/>
<linearGradient id="SVGID_21_" gradientUnits="userSpaceOnUse" x1="12.9788" y1="123.8" x2="12.9788" y2="106.5" gradientTransform="matrix(1 0 0 -1 0 310)">
	<stop  offset="0.1647" style="stop-color:#BCBEC0"/>
	<stop  offset="0.5654" style="stop-color:#6D6E71"/>
	<stop  offset="0.7881" style="stop-color:#BCBEC0"/>
</linearGradient>
<path class="st21" d="M22.2,191.6c0-5.4-0.1-5.4-5.6-5.4c-1.9,0-3.7,0-5.6,0c-7.2,0-7.2,0-7.3,7.1c-0.1,2.4-0.2,4.9-0.2,7.3
	c0,1.9,0.9,2.9,2.9,2.9c4.5,0,9,0,13.5,0c1.7,0,2.6-0.8,2.5-2.5C22.3,197.9,22.7,194.8,22.2,191.6z"/>
<linearGradient id="SVGID_22_" gradientUnits="userSpaceOnUse" x1="49.3811" y1="122.0316" x2="49.3811" y2="106.4653" gradientTransform="matrix(1 0 0 -1 0 310)">
	<stop  offset="0.1647" style="stop-color:#BCBEC0"/>
	<stop  offset="0.5654" style="stop-color:#6D6E71"/>
	<stop  offset="0.7881" style="stop-color:#BCBEC0"/>
</linearGradient>
<path class="st22" d="M58.7,192.8c0-4.6-0.3-4.9-5-4.9c-2.1,0-4.1,0-6.2,0c-6.3,0-7.3,0-7.1,2.3c-0.3,2.7-0.6,8.7-0.5,10.7
	c0.1,1.5,0.9,2.5,2.6,2.5c4.6,0,9.3,0,13.9,0c1.6,0,2.4-0.7,2.4-2.3C58.7,198.5,59.1,195.6,58.7,192.8z"/>
<linearGradient id="SVGID_23_" gradientUnits="userSpaceOnUse" x1="582.0264" y1="122.0356" x2="582.0264" y2="106.4735" gradientTransform="matrix(1 0 0 -1 0 310)">
	<stop  offset="0.1647" style="stop-color:#BCBEC0"/>
	<stop  offset="0.5449" style="stop-color:#6D6E71"/>
	<stop  offset="0.744" style="stop-color:#BCBEC0"/>
</linearGradient>
<path class="st23" d="M591.5,192.8c0-4.4-0.5-4.8-4.9-4.8c-2.9,0-5.8,0-8.7,0c-5.5,0-5.7,0.6-5.5,4.6c0,2.9-0.1,6.7,0,9
	c0.1,1.3,1.1,2,2.6,2c4.7,0,9.4,0,14.1,0c1.7,0,2.6-0.9,2.6-2.6C591.6,198.2,591.5,195.5,591.5,192.8z"/>
<linearGradient id="SVGID_24_" gradientUnits="userSpaceOnUse" x1="595.9778" y1="95.3882" x2="595.9778" y2="76.5596" gradientTransform="matrix(1 0 0 -1 0 310)">
	<stop  offset="0.1647" style="stop-color:#BCBEC0"/>
	<stop  offset="0.5449" style="stop-color:#6D6E71"/>
	<stop  offset="0.744" style="stop-color:#BCBEC0"/>
</linearGradient>
<path class="st24" d="M593.5,223.9c0-2.2,0-4.5,0-6.7c0-1.1-0.4-2.5,1.4-2.6c1.6-0.1,3,0.3,3.3,2.1c0.2,1.2,0.2,2.5,0.3,3.8
	c0,3,0,6,0,9.1c0,1.3-0.2,2.5-1.4,3.3c-0.9,0.6-1.9,0.7-2.8,0.3c-1-0.4-0.8-1.4-0.8-2.3C593.4,228.6,593.5,226.3,593.5,223.9z"/>
<linearGradient id="SVGID_25_" gradientUnits="userSpaceOnUse" x1="35.8569" y1="95.3969" x2="35.8569" y2="76.6126" gradientTransform="matrix(1 0 0 -1 0 310)">
	<stop  offset="0.1647" style="stop-color:#BCBEC0"/>
	<stop  offset="0.5654" style="stop-color:#6D6E71"/>
	<stop  offset="0.7881" style="stop-color:#BCBEC0"/>
</linearGradient>
<path class="st25" d="M38.2,224.2c0,2.2,0,4.5,0,6.7c0,1,0.5,2.3-1.3,2.4c-1.7,0.1-3.2-0.5-3.3-2.2c-0.2-4.9-0.2-9.7,0-14.6
	c0.1-1.6,1.6-2,3.1-2c1.7,0,1.4,1.3,1.4,2.3C38.2,219.3,38.2,221.8,38.2,224.2z"/>
<linearGradient id="SVGID_26_" gradientUnits="userSpaceOnUse" x1="568.1874" y1="94.7383" x2="568.1874" y2="77.4017" gradientTransform="matrix(1 0 0 -1 0 310)">
	<stop  offset="0.1647" style="stop-color:#BCBEC0"/>
	<stop  offset="0.5449" style="stop-color:#6D6E71"/>
	<stop  offset="0.744" style="stop-color:#BCBEC0"/>
</linearGradient>
<path class="st26" d="M565.8,223.9c0-2,0-4.1,0-6.1c0-1.3,0.2-2.3,1.8-2.5c1.4-0.1,2.5,0.5,2.6,1.7c0.5,4.6,0.5,9.3,0,13.9
	c-0.1,1.3-1.5,1.8-2.7,1.6c-1.3-0.1-1.7-1-1.7-2.3C565.8,228.1,565.8,226,565.8,223.9z"/>
<linearGradient id="SVGID_27_" gradientUnits="userSpaceOnUse" x1="63.9778" y1="94.7075" x2="63.9778" y2="77.3906" gradientTransform="matrix(1 0 0 -1 0 310)">
	<stop  offset="0.1647" style="stop-color:#BCBEC0"/>
	<stop  offset="0.5654" style="stop-color:#6D6E71"/>
	<stop  offset="0.7881" style="stop-color:#BCBEC0"/>
</linearGradient>
<path class="st27" d="M66.3,224.2c0,2,0,4.1,0,6.1c0,1.5-0.9,2.2-2.1,2.3c-1.4,0.1-2.5-0.6-2.5-2.2c0-4.3-0.1-8.6,0-12.8
	c0-1.5,0.9-2.4,2.4-2.3c1.5,0,2.2,1,2.2,2.5C66.3,219.9,66.3,222,66.3,224.2z"/>
<linearGradient id="SVGID_28_" gradientUnits="userSpaceOnUse" x1="595.6823" y1="114.217" x2="595.6823" y2="99.3533" gradientTransform="matrix(1 0 0 -1 0 310)">
	<stop  offset="0.1647" style="stop-color:#BCBEC0"/>
	<stop  offset="0.5449" style="stop-color:#6D6E71"/>
	<stop  offset="0.744" style="stop-color:#BCBEC0"/>
</linearGradient>
<path class="st28" d="M598.5,202.4c0,2.4,0.1,4,0,5.6c-0.2,1.9-1.4,2.6-3.3,2.7c-2,0-1.4-1.6-1.8-2.6c-1.6-3.4,0.6-6.6,0.1-9.9
	c-0.1-1-0.4-2.3,1.3-2.4c1.6-0.1,3,0.2,3.5,2S598.4,201.5,598.5,202.4z"/>
<linearGradient id="SVGID_29_" gradientUnits="userSpaceOnUse" x1="595.4425" y1="73.4435" x2="595.4425" y2="58.5365" gradientTransform="matrix(1 0 0 -1 0 310)">
	<stop  offset="0.1647" style="stop-color:#BCBEC0"/>
	<stop  offset="0.5449" style="stop-color:#6D6E71"/>
	<stop  offset="0.744" style="stop-color:#BCBEC0"/>
</linearGradient>
<path class="st29" d="M598.5,242.9c-0.2,2-0.4,4-0.5,6.1c-0.1,1.6-1,2.4-2.6,2.5c-1.9,0.1-1.8-1.2-1.9-2.6c-0.1-2.1,0.2-4.2-1-6.2
	c-0.6-1,1.3-5.8,2.2-6c1.8-0.5,3.6,0.9,3.8,3C598.5,240.7,598.5,241.8,598.5,242.9L598.5,242.9z"/>
<linearGradient id="SVGID_30_" gradientUnits="userSpaceOnUse" x1="36.5443" y1="73.4809" x2="36.5443" y2="58.5392" gradientTransform="matrix(1 0 0 -1 0 310)">
	<stop  offset="0.1647" style="stop-color:#BCBEC0"/>
	<stop  offset="0.5654" style="stop-color:#6D6E71"/>
	<stop  offset="0.7881" style="stop-color:#BCBEC0"/>
</linearGradient>
<path class="st30" d="M36.7,236.5c0.4,0.2,1.3,0.5,1.3,0.8c0.1,2.2,2.5,4.1,0.9,6.7c-1,1.5-0.7,3.4-0.8,5.2c0,1,0.4,2.3-1.3,2.4
	c-1.4,0-2.8-0.6-2.9-1.9c-0.3-3.6-0.3-7.2-0.2-10.8C33.7,237.3,35.2,236.8,36.7,236.5z"/>
<linearGradient id="SVGID_31_" gradientUnits="userSpaceOnUse" x1="36.38" y1="114.2312" x2="36.38" y2="99.3159" gradientTransform="matrix(1 0 0 -1 0 310)">
	<stop  offset="0.1647" style="stop-color:#BCBEC0"/>
	<stop  offset="0.5654" style="stop-color:#6D6E71"/>
	<stop  offset="0.7881" style="stop-color:#BCBEC0"/>
</linearGradient>
<path class="st31" d="M33.5,203c0-1.6-0.1-3.1,0-4.7c0.1-1.8,1.3-2.5,3-2.5c2-0.1,1.8,1.3,1.8,2.6c0,1.9,0.1,3.6,0.8,5.5
	c0.8,2.2-1,4.2-1.1,6.4c0,0.7-1.5,0.5-2.4,0.3c-1.2-0.3-1.9-1-2-2.2C33.5,206.5,33.5,204.8,33.5,203L33.5,203z"/>
<linearGradient id="SVGID_32_" gradientUnits="userSpaceOnUse" x1="64.0293" y1="73.5665" x2="64.0293" y2="59.9559" gradientTransform="matrix(1 0 0 -1 0 310)">
	<stop  offset="0.1647" style="stop-color:#BCBEC0"/>
	<stop  offset="0.5654" style="stop-color:#6D6E71"/>
	<stop  offset="0.7881" style="stop-color:#BCBEC0"/>
</linearGradient>
<path class="st32" d="M66.2,243.4c0,1.6,0,3.1,0,4.7c0,1.4-1,2-2,2c-1.2,0.1-2.3-0.5-2.4-2c-0.1-3.1-0.2-6.2-0.1-9.3
	c0-1.5,1-2.3,2.5-2.3c1.5,0.1,2.2,1,2.2,2.5s0,2.9,0,4.4C66.3,243.4,66.2,243.4,66.2,243.4z"/>
<linearGradient id="SVGID_33_" gradientUnits="userSpaceOnUse" x1="64.0047" y1="112.3546" x2="64.0047" y2="98.7221" gradientTransform="matrix(1 0 0 -1 0 310)">
	<stop  offset="0.1647" style="stop-color:#BCBEC0"/>
	<stop  offset="0.5654" style="stop-color:#6D6E71"/>
	<stop  offset="0.7881" style="stop-color:#BCBEC0"/>
</linearGradient>
<path class="st33" d="M66.4,204.7c0,1.4,0,2.7,0,4.1c0.1,1.6-0.6,2.4-2.2,2.5c-1.6,0.1-2.6-0.7-2.6-2.4c0-2.8,0-5.7,0-8.5
	c0-1.6,0.7-2.7,2.4-2.7s2.4,1,2.4,2.6C66.3,201.7,66.4,203.2,66.4,204.7z"/>
<linearGradient id="SVGID_34_" gradientUnits="userSpaceOnUse" x1="568.0723" y1="112.3821" x2="568.0723" y2="98.724" gradientTransform="matrix(1 0 0 -1 0 310)">
	<stop  offset="0.1647" style="stop-color:#BCBEC0"/>
	<stop  offset="0.5449" style="stop-color:#6D6E71"/>
	<stop  offset="0.744" style="stop-color:#BCBEC0"/>
</linearGradient>
<path class="st34" d="M570.4,204.6c0,1.5,0.1,2.9,0,4.4c-0.2,1.6-1.2,2.4-2.8,2.3c-1.5-0.1-1.9-1.1-1.9-2.4c0-2.9,0-5.9,0-8.8
	c0-1.3,0.3-2.3,1.9-2.4c1.5-0.1,2.6,0.6,2.7,2C570.5,201.3,570.4,203,570.4,204.6L570.4,204.6z"/>
<linearGradient id="SVGID_35_" gradientUnits="userSpaceOnUse" x1="568.1638" y1="73.5737" x2="568.1638" y2="60.1995" gradientTransform="matrix(1 0 0 -1 0 310)">
	<stop  offset="0.1647" style="stop-color:#BCBEC0"/>
	<stop  offset="0.5449" style="stop-color:#6D6E71"/>
	<stop  offset="0.744" style="stop-color:#BCBEC0"/>
</linearGradient>
<path class="st35" d="M565.8,243.2c0-1.6,0-3.1,0-4.7c0-1.2,0.5-1.9,1.6-2.1s2.1,0.1,2.5,1.4c1,3.4,0.6,6.9,0.2,10.4
	c-0.2,1.3-1.5,1.6-2.8,1.5c-1.4-0.1-1.3-1.2-1.3-2.1c0-1.5,0-2.9,0-4.4C565.9,243.2,565.8,243.2,565.8,243.2z"/>
<g>
	
		<linearGradient id="SVGID_36_" gradientUnits="userSpaceOnUse" x1="116.65" y1="98" x2="116.65" y2="74.9132" gradientTransform="matrix(1 0 0 -1 0 310)">
		<stop  offset="0" style="stop-color:#BCBEC0"/>
		<stop  offset="2.439079e-02" style="stop-color:#CACCCE"/>
		<stop  offset="6.459801e-02" style="stop-color:#DCDEDF"/>
		<stop  offset="0.1121" style="stop-color:#EBEBEC"/>
		<stop  offset="0.1708" style="stop-color:#F5F5F5"/>
		<stop  offset="0.2533" style="stop-color:#FCFCFC"/>
		<stop  offset="0.4821" style="stop-color:#FFFFFF"/>
		<stop  offset="0.7279" style="stop-color:#FCFCFC"/>
		<stop  offset="0.8164" style="stop-color:#F5F5F5"/>
		<stop  offset="0.8796" style="stop-color:#EBEBEC"/>
		<stop  offset="0.9306" style="stop-color:#DCDEDF"/>
		<stop  offset="0.9738" style="stop-color:#CACCCE"/>
		<stop  offset="1" style="stop-color:#BCBEC0"/>
	</linearGradient>
	<path class="st36" d="M123.8,217c-0.2-0.2-0.5-0.4-0.9-0.7s-1-0.6-1.7-0.9s-1.4-0.5-2.1-0.7c-0.8-0.2-1.6-0.3-2.3-0.3
		c-1.4,0-2.5,0.3-3.2,0.8s-1,1.3-1,2.2c0,0.5,0.1,1,0.4,1.4c0.3,0.4,0.6,0.7,1.1,0.9c0.5,0.3,1.1,0.5,1.9,0.7
		c0.8,0.2,1.6,0.5,2.6,0.7c1.3,0.3,2.5,0.7,3.5,1.1c1.1,0.4,1.9,0.9,2.7,1.5c0.7,0.6,1.3,1.3,1.7,2.1c0.4,0.8,0.6,1.9,0.6,3.1
		c0,1.4-0.3,2.6-0.8,3.6s-1.3,1.8-2.2,2.4s-1.9,1.1-3.1,1.4c-1.2,0.3-2.4,0.4-3.7,0.4c-2,0-3.9-0.3-5.9-0.9
		c-1.9-0.6-3.7-1.4-5.2-2.5l2.3-4.4c0.2,0.2,0.6,0.5,1.2,0.9c0.6,0.4,1.3,0.7,2.1,1.1s1.7,0.7,2.6,0.9c1,0.2,2,0.4,3,0.4
		c2.8,0,4.2-0.9,4.2-2.7c0-0.6-0.2-1.1-0.5-1.5s-0.8-0.7-1.4-1c-0.6-0.3-1.3-0.6-2.2-0.8c-0.8-0.2-1.8-0.5-2.8-0.8
		c-1.3-0.3-2.4-0.7-3.3-1.1c-0.9-0.4-1.7-0.9-2.3-1.5s-1.1-1.2-1.4-1.9c-0.3-0.7-0.5-1.6-0.5-2.6c0-1.3,0.2-2.5,0.7-3.6
		c0.5-1,1.2-1.9,2.1-2.6c0.9-0.7,1.9-1.2,3.1-1.6c1.2-0.4,2.4-0.5,3.8-0.5c1.9,0,3.6,0.3,5.1,0.9c1.6,0.6,2.9,1.3,4.1,2.1L123.8,217
		z"/>
	
		<linearGradient id="SVGID_37_" gradientUnits="userSpaceOnUse" x1="140.55" y1="98" x2="140.55" y2="74.9132" gradientTransform="matrix(1 0 0 -1 0 310)">
		<stop  offset="0" style="stop-color:#BCBEC0"/>
		<stop  offset="2.439079e-02" style="stop-color:#CACCCE"/>
		<stop  offset="6.459801e-02" style="stop-color:#DCDEDF"/>
		<stop  offset="0.1121" style="stop-color:#EBEBEC"/>
		<stop  offset="0.1708" style="stop-color:#F5F5F5"/>
		<stop  offset="0.2533" style="stop-color:#FCFCFC"/>
		<stop  offset="0.4821" style="stop-color:#FFFFFF"/>
		<stop  offset="0.7279" style="stop-color:#FCFCFC"/>
		<stop  offset="0.8164" style="stop-color:#F5F5F5"/>
		<stop  offset="0.8796" style="stop-color:#EBEBEC"/>
		<stop  offset="0.9306" style="stop-color:#DCDEDF"/>
		<stop  offset="0.9738" style="stop-color:#CACCCE"/>
		<stop  offset="1" style="stop-color:#BCBEC0"/>
	</linearGradient>
	<path class="st37" d="M134.1,210.1l6.5,12.7l6.6-12.7h5.5l-9.6,17.2v9.2H138v-9.3l-9.6-17.1L134.1,210.1L134.1,210.1z"/>
	
		<linearGradient id="SVGID_38_" gradientUnits="userSpaceOnUse" x1="164.35" y1="98" x2="164.35" y2="74.9132" gradientTransform="matrix(1 0 0 -1 0 310)">
		<stop  offset="0" style="stop-color:#BCBEC0"/>
		<stop  offset="2.439079e-02" style="stop-color:#CACCCE"/>
		<stop  offset="6.459801e-02" style="stop-color:#DCDEDF"/>
		<stop  offset="0.1121" style="stop-color:#EBEBEC"/>
		<stop  offset="0.1708" style="stop-color:#F5F5F5"/>
		<stop  offset="0.2533" style="stop-color:#FCFCFC"/>
		<stop  offset="0.4821" style="stop-color:#FFFFFF"/>
		<stop  offset="0.7279" style="stop-color:#FCFCFC"/>
		<stop  offset="0.8164" style="stop-color:#F5F5F5"/>
		<stop  offset="0.8796" style="stop-color:#EBEBEC"/>
		<stop  offset="0.9306" style="stop-color:#DCDEDF"/>
		<stop  offset="0.9738" style="stop-color:#CACCCE"/>
		<stop  offset="1" style="stop-color:#BCBEC0"/>
	</linearGradient>
	<path class="st38" d="M171.5,217c-0.2-0.2-0.5-0.4-0.9-0.7s-1-0.6-1.7-0.9s-1.4-0.5-2.1-0.7c-0.8-0.2-1.6-0.3-2.3-0.3
		c-1.4,0-2.5,0.3-3.2,0.8s-1,1.3-1,2.2c0,0.5,0.1,1,0.4,1.4c0.3,0.4,0.6,0.7,1.1,0.9c0.5,0.3,1.1,0.5,1.9,0.7
		c0.8,0.2,1.6,0.5,2.6,0.7c1.3,0.3,2.5,0.7,3.5,1.1c1.1,0.4,1.9,0.9,2.7,1.5c0.7,0.6,1.3,1.3,1.7,2.1c0.4,0.8,0.6,1.9,0.6,3.1
		c0,1.4-0.3,2.6-0.8,3.6s-1.3,1.8-2.2,2.4s-1.9,1.1-3.1,1.4c-1.2,0.3-2.4,0.4-3.7,0.4c-2,0-3.9-0.3-5.9-0.9
		c-1.9-0.6-3.7-1.4-5.2-2.5l2.3-4.4c0.2,0.2,0.6,0.5,1.2,0.9c0.6,0.4,1.3,0.7,2.1,1.1s1.7,0.7,2.6,0.9c1,0.2,2,0.4,3,0.4
		c2.8,0,4.2-0.9,4.2-2.7c0-0.6-0.2-1.1-0.5-1.5s-0.8-0.7-1.4-1c-0.6-0.3-1.3-0.6-2.2-0.8c-0.8-0.2-1.8-0.5-2.8-0.8
		c-1.3-0.3-2.4-0.7-3.3-1.1c-0.9-0.4-1.7-0.9-2.3-1.5s-1.1-1.2-1.4-1.9c-0.3-0.7-0.5-1.6-0.5-2.6c0-1.3,0.2-2.5,0.7-3.6
		c0.5-1,1.2-1.9,2.1-2.6c0.9-0.7,1.9-1.2,3.1-1.6c1.2-0.4,2.4-0.5,3.8-0.5c1.9,0,3.6,0.3,5.1,0.9c1.6,0.6,2.9,1.3,4.1,2.1L171.5,217
		z"/>
	
		<linearGradient id="SVGID_39_" gradientUnits="userSpaceOnUse" x1="187.85" y1="98" x2="187.85" y2="74.9132" gradientTransform="matrix(1 0 0 -1 0 310)">
		<stop  offset="0" style="stop-color:#BCBEC0"/>
		<stop  offset="2.439079e-02" style="stop-color:#CACCCE"/>
		<stop  offset="6.459801e-02" style="stop-color:#DCDEDF"/>
		<stop  offset="0.1121" style="stop-color:#EBEBEC"/>
		<stop  offset="0.1708" style="stop-color:#F5F5F5"/>
		<stop  offset="0.2533" style="stop-color:#FCFCFC"/>
		<stop  offset="0.4821" style="stop-color:#FFFFFF"/>
		<stop  offset="0.7279" style="stop-color:#FCFCFC"/>
		<stop  offset="0.8164" style="stop-color:#F5F5F5"/>
		<stop  offset="0.8796" style="stop-color:#EBEBEC"/>
		<stop  offset="0.9306" style="stop-color:#DCDEDF"/>
		<stop  offset="0.9738" style="stop-color:#CACCCE"/>
		<stop  offset="1" style="stop-color:#BCBEC0"/>
	</linearGradient>
	<path class="st39" d="M198.9,214.6h-8.5v21.9h-5.1v-21.9h-8.5v-4.5h22v4.5H198.9z"/>
	
		<linearGradient id="SVGID_40_" gradientUnits="userSpaceOnUse" x1="212.1" y1="98" x2="212.1" y2="74.9132" gradientTransform="matrix(1 0 0 -1 0 310)">
		<stop  offset="0" style="stop-color:#BCBEC0"/>
		<stop  offset="2.439079e-02" style="stop-color:#CACCCE"/>
		<stop  offset="6.459801e-02" style="stop-color:#DCDEDF"/>
		<stop  offset="0.1121" style="stop-color:#EBEBEC"/>
		<stop  offset="0.1708" style="stop-color:#F5F5F5"/>
		<stop  offset="0.2533" style="stop-color:#FCFCFC"/>
		<stop  offset="0.4821" style="stop-color:#FFFFFF"/>
		<stop  offset="0.7279" style="stop-color:#FCFCFC"/>
		<stop  offset="0.8164" style="stop-color:#F5F5F5"/>
		<stop  offset="0.8796" style="stop-color:#EBEBEC"/>
		<stop  offset="0.9306" style="stop-color:#DCDEDF"/>
		<stop  offset="0.9738" style="stop-color:#CACCCE"/>
		<stop  offset="1" style="stop-color:#BCBEC0"/>
	</linearGradient>
	<path class="st40" d="M221.3,232.1v4.5h-18.4v-26.4h18v4.5H208v6.4h11.1v4.2H208v6.9h13.3V232.1z"/>
	
		<linearGradient id="SVGID_41_" gradientUnits="userSpaceOnUse" x1="239.35" y1="98" x2="239.35" y2="74.9132" gradientTransform="matrix(1 0 0 -1 0 310)">
		<stop  offset="0" style="stop-color:#BCBEC0"/>
		<stop  offset="2.439079e-02" style="stop-color:#CACCCE"/>
		<stop  offset="6.459801e-02" style="stop-color:#DCDEDF"/>
		<stop  offset="0.1121" style="stop-color:#EBEBEC"/>
		<stop  offset="0.1708" style="stop-color:#F5F5F5"/>
		<stop  offset="0.2533" style="stop-color:#FCFCFC"/>
		<stop  offset="0.4821" style="stop-color:#FFFFFF"/>
		<stop  offset="0.7279" style="stop-color:#FCFCFC"/>
		<stop  offset="0.8164" style="stop-color:#F5F5F5"/>
		<stop  offset="0.8796" style="stop-color:#EBEBEC"/>
		<stop  offset="0.9306" style="stop-color:#DCDEDF"/>
		<stop  offset="0.9738" style="stop-color:#CACCCE"/>
		<stop  offset="1" style="stop-color:#BCBEC0"/>
	</linearGradient>
	<path class="st41" d="M247.6,236.6v-17.5l-6.8,13H238l-6.8-13v17.5H226v-26.4h5.5l7.8,15l7.9-15h5.5v26.4H247.6z"/>
	
		<linearGradient id="SVGID_42_" gradientUnits="userSpaceOnUse" x1="267.55" y1="98" x2="267.55" y2="74.9132" gradientTransform="matrix(1 0 0 -1 0 310)">
		<stop  offset="0" style="stop-color:#BCBEC0"/>
		<stop  offset="2.439079e-02" style="stop-color:#CACCCE"/>
		<stop  offset="6.459801e-02" style="stop-color:#DCDEDF"/>
		<stop  offset="0.1121" style="stop-color:#EBEBEC"/>
		<stop  offset="0.1708" style="stop-color:#F5F5F5"/>
		<stop  offset="0.2533" style="stop-color:#FCFCFC"/>
		<stop  offset="0.4821" style="stop-color:#FFFFFF"/>
		<stop  offset="0.7279" style="stop-color:#FCFCFC"/>
		<stop  offset="0.8164" style="stop-color:#F5F5F5"/>
		<stop  offset="0.8796" style="stop-color:#EBEBEC"/>
		<stop  offset="0.9306" style="stop-color:#DCDEDF"/>
		<stop  offset="0.9738" style="stop-color:#CACCCE"/>
		<stop  offset="1" style="stop-color:#BCBEC0"/>
	</linearGradient>
	<path class="st42" d="M274.7,217c-0.2-0.2-0.5-0.4-0.9-0.7s-1-0.6-1.7-0.9s-1.4-0.5-2.1-0.7c-0.8-0.2-1.6-0.3-2.3-0.3
		c-1.4,0-2.5,0.3-3.2,0.8s-1,1.3-1,2.2c0,0.5,0.1,1,0.4,1.4s0.6,0.7,1.1,0.9c0.5,0.3,1.1,0.5,1.9,0.7s1.6,0.5,2.6,0.7
		c1.3,0.3,2.5,0.7,3.5,1.1c1.1,0.4,1.9,0.9,2.7,1.5c0.7,0.6,1.3,1.3,1.7,2.1c0.4,0.8,0.6,1.9,0.6,3.1c0,1.4-0.3,2.6-0.8,3.6
		s-1.3,1.8-2.2,2.4c-0.9,0.6-1.9,1.1-3.1,1.4s-2.4,0.4-3.7,0.4c-2,0-3.9-0.3-5.9-0.9c-1.9-0.6-3.7-1.4-5.2-2.5l2.3-4.4
		c0.2,0.2,0.6,0.5,1.2,0.9s1.3,0.7,2.1,1.1c0.8,0.4,1.7,0.7,2.6,0.9c1,0.2,2,0.4,3,0.4c2.8,0,4.2-0.9,4.2-2.7c0-0.6-0.2-1.1-0.5-1.5
		s-0.8-0.7-1.4-1s-1.3-0.6-2.2-0.8c-0.8-0.2-1.8-0.5-2.8-0.8c-1.3-0.3-2.4-0.7-3.3-1.1s-1.7-0.9-2.3-1.5c-0.6-0.6-1.1-1.2-1.4-1.9
		c-0.3-0.7-0.5-1.6-0.5-2.6c0-1.3,0.2-2.5,0.7-3.6c0.5-1,1.2-1.9,2.1-2.6s1.9-1.2,3.1-1.6s2.4-0.5,3.8-0.5c1.9,0,3.6,0.3,5.1,0.9
		c1.6,0.6,2.9,1.3,4.1,2.1L274.7,217z"/>
	
		<linearGradient id="SVGID_43_" gradientUnits="userSpaceOnUse" x1="303.65" y1="98" x2="303.65" y2="74.9132" gradientTransform="matrix(1 0 0 -1 0 310)">
		<stop  offset="0" style="stop-color:#BCBEC0"/>
		<stop  offset="2.439079e-02" style="stop-color:#CACCCE"/>
		<stop  offset="6.459801e-02" style="stop-color:#DCDEDF"/>
		<stop  offset="0.1121" style="stop-color:#EBEBEC"/>
		<stop  offset="0.1708" style="stop-color:#F5F5F5"/>
		<stop  offset="0.2533" style="stop-color:#FCFCFC"/>
		<stop  offset="0.4821" style="stop-color:#FFFFFF"/>
		<stop  offset="0.7279" style="stop-color:#FCFCFC"/>
		<stop  offset="0.8164" style="stop-color:#F5F5F5"/>
		<stop  offset="0.8796" style="stop-color:#EBEBEC"/>
		<stop  offset="0.9306" style="stop-color:#DCDEDF"/>
		<stop  offset="0.9738" style="stop-color:#CACCCE"/>
		<stop  offset="1" style="stop-color:#BCBEC0"/>
	</linearGradient>
	<path class="st43" d="M309.5,236.6l-2.1-2.2c-1.1,0.8-2.3,1.5-3.5,1.9c-1.3,0.4-2.6,0.7-3.9,0.7c-1.4,0-2.6-0.2-3.7-0.6
		s-2-1-2.8-1.7s-1.4-1.6-1.8-2.5c-0.4-1-0.6-2-0.6-3c0-0.8,0.1-1.6,0.4-2.3c0.2-0.7,0.6-1.3,1-1.9s0.9-1.1,1.5-1.6s1.1-1,1.8-1.4
		c-1.1-1.2-1.8-2.2-2.3-3.1c-0.4-0.9-0.7-1.8-0.7-2.7c0-0.9,0.2-1.8,0.6-2.6c0.4-0.8,0.9-1.5,1.5-2c0.6-0.6,1.4-1,2.3-1.3
		s1.8-0.4,2.9-0.4c0.9,0,1.8,0.1,2.6,0.4c0.8,0.2,1.6,0.6,2.2,1.1s1.2,1.1,1.6,1.8c0.4,0.7,0.6,1.6,0.6,2.6c0,1.4-0.4,2.7-1.3,3.8
		c-0.8,1.1-1.9,2.1-3.2,3l5.1,5.3c0.4-0.8,0.7-1.7,0.9-2.6c0.2-0.9,0.3-2,0.3-3.1h4.1c0,1.8-0.2,3.4-0.6,4.8s-1,2.8-1.7,3.9l5.5,5.7
		L309.5,236.6L309.5,236.6z M300.4,233c1.5,0,3-0.5,4.3-1.5l-6.1-6.4c-0.9,0.6-1.6,1.3-2,1.9c-0.5,0.6-0.7,1.4-0.7,2.2
		c0,0.5,0.1,1,0.3,1.5c0.2,0.5,0.5,0.9,0.9,1.2c0.4,0.3,0.9,0.6,1.5,0.8C299.1,232.9,299.7,233,300.4,233z M297.3,216
		c0,0.2,0,0.4,0.1,0.7c0.1,0.2,0.2,0.4,0.4,0.7s0.4,0.5,0.7,0.9c0.3,0.3,0.7,0.7,1.1,1.2c0.9-0.6,1.7-1.2,2.2-1.8
		c0.5-0.6,0.7-1.2,0.7-1.8s-0.2-1.2-0.7-1.6s-1-0.6-1.8-0.6s-1.4,0.2-2,0.7C297.5,214.7,297.3,215.3,297.3,216z"/>
	
		<linearGradient id="SVGID_44_" gradientUnits="userSpaceOnUse" x1="339.5001" y1="98" x2="339.5001" y2="74.9132" gradientTransform="matrix(1 0 0 -1 0 310)">
		<stop  offset="0" style="stop-color:#BCBEC0"/>
		<stop  offset="2.439079e-02" style="stop-color:#CACCCE"/>
		<stop  offset="6.459801e-02" style="stop-color:#DCDEDF"/>
		<stop  offset="0.1121" style="stop-color:#EBEBEC"/>
		<stop  offset="0.1708" style="stop-color:#F5F5F5"/>
		<stop  offset="0.2533" style="stop-color:#FCFCFC"/>
		<stop  offset="0.4821" style="stop-color:#FFFFFF"/>
		<stop  offset="0.7279" style="stop-color:#FCFCFC"/>
		<stop  offset="0.8164" style="stop-color:#F5F5F5"/>
		<stop  offset="0.8796" style="stop-color:#EBEBEC"/>
		<stop  offset="0.9306" style="stop-color:#DCDEDF"/>
		<stop  offset="0.9738" style="stop-color:#CACCCE"/>
		<stop  offset="1" style="stop-color:#BCBEC0"/>
	</linearGradient>
	<path class="st44" d="M327.6,223.2c0-1.6,0.3-3.2,0.9-4.8c0.6-1.6,1.4-3,2.6-4.2c1.1-1.2,2.5-2.2,4.1-3s3.5-1.2,5.5-1.2
		c2.4,0,4.5,0.5,6.3,1.6s3.1,2.5,4,4.2l-3.9,2.7c-0.3-0.7-0.8-1.4-1.3-1.9s-1-0.9-1.6-1.2c-0.6-0.3-1.2-0.5-1.8-0.7
		c-0.6-0.1-1.2-0.2-1.8-0.2c-1.3,0-2.4,0.3-3.4,0.8s-1.7,1.2-2.4,2s-1.1,1.8-1.4,2.8c-0.3,1.1-0.5,2.1-0.5,3.1
		c0,1.2,0.2,2.3,0.6,3.4s0.9,2,1.6,2.9c0.7,0.8,1.5,1.5,2.5,2s2,0.7,3.1,0.7c0.6,0,1.2-0.1,1.9-0.2c0.6-0.1,1.3-0.4,1.8-0.7
		c0.6-0.3,1.1-0.7,1.6-1.2s0.9-1.1,1.2-1.8l4.2,2.4c-0.4,1-1,1.9-1.8,2.6c-0.8,0.8-1.7,1.4-2.6,1.9c-1,0.5-2,0.9-3.1,1.2
		c-1.1,0.3-2.2,0.4-3.3,0.4c-1.9,0-3.6-0.4-5.2-1.2c-1.6-0.8-2.9-1.8-4-3.1c-1.1-1.3-2-2.7-2.6-4.4S327.6,224.8,327.6,223.2z"/>
	
		<linearGradient id="SVGID_45_" gradientUnits="userSpaceOnUse" x1="366.45" y1="98" x2="366.45" y2="74.9132" gradientTransform="matrix(1 0 0 -1 0 310)">
		<stop  offset="0" style="stop-color:#BCBEC0"/>
		<stop  offset="2.439079e-02" style="stop-color:#CACCCE"/>
		<stop  offset="6.459801e-02" style="stop-color:#DCDEDF"/>
		<stop  offset="0.1121" style="stop-color:#EBEBEC"/>
		<stop  offset="0.1708" style="stop-color:#F5F5F5"/>
		<stop  offset="0.2533" style="stop-color:#FCFCFC"/>
		<stop  offset="0.4821" style="stop-color:#FFFFFF"/>
		<stop  offset="0.7279" style="stop-color:#FCFCFC"/>
		<stop  offset="0.8164" style="stop-color:#F5F5F5"/>
		<stop  offset="0.8796" style="stop-color:#EBEBEC"/>
		<stop  offset="0.9306" style="stop-color:#DCDEDF"/>
		<stop  offset="0.9738" style="stop-color:#CACCCE"/>
		<stop  offset="1" style="stop-color:#BCBEC0"/>
	</linearGradient>
	<path class="st45" d="M366.5,236.7c-1.9,0-3.7-0.4-5.3-1.1c-1.6-0.8-2.9-1.8-4.1-3c-1.1-1.3-2-2.7-2.6-4.3c-0.6-1.6-0.9-3.3-0.9-5
		c0-1.8,0.3-3.5,1-5.1s1.6-3,2.7-4.3c1.2-1.2,2.5-2.2,4.1-3c1.6-0.7,3.3-1.1,5.2-1.1c1.9,0,3.7,0.4,5.2,1.2c1.6,0.8,2.9,1.8,4,3.1
		c1.1,1.3,2,2.7,2.6,4.3c0.6,1.6,0.9,3.3,0.9,4.9c0,1.8-0.3,3.4-1,5c-0.6,1.6-1.5,3-2.7,4.2c-1.1,1.2-2.5,2.2-4.1,2.9
		C370.1,236.4,368.4,236.7,366.5,236.7z M358.8,223.3c0,1.1,0.2,2.2,0.5,3.3c0.3,1.1,0.9,2,1.5,2.8c0.7,0.8,1.5,1.5,2.4,2
		c1,0.5,2,0.7,3.3,0.7c1.2,0,2.3-0.3,3.3-0.8s1.8-1.2,2.4-2c0.7-0.8,1.2-1.8,1.5-2.8c0.3-1.1,0.5-2.1,0.5-3.2s-0.2-2.2-0.5-3.3
		c-0.4-1.1-0.9-2-1.5-2.8c-0.7-0.8-1.5-1.5-2.4-2c-1-0.5-2-0.7-3.2-0.7s-2.3,0.3-3.3,0.8s-1.8,1.2-2.4,2s-1.1,1.8-1.5,2.8
		C359,221.2,358.8,222.2,358.8,223.3z"/>
	
		<linearGradient id="SVGID_46_" gradientUnits="userSpaceOnUse" x1="395.65" y1="98" x2="395.65" y2="74.9132" gradientTransform="matrix(1 0 0 -1 0 310)">
		<stop  offset="0" style="stop-color:#BCBEC0"/>
		<stop  offset="2.439079e-02" style="stop-color:#CACCCE"/>
		<stop  offset="6.459801e-02" style="stop-color:#DCDEDF"/>
		<stop  offset="0.1121" style="stop-color:#EBEBEC"/>
		<stop  offset="0.1708" style="stop-color:#F5F5F5"/>
		<stop  offset="0.2533" style="stop-color:#FCFCFC"/>
		<stop  offset="0.4821" style="stop-color:#FFFFFF"/>
		<stop  offset="0.7279" style="stop-color:#FCFCFC"/>
		<stop  offset="0.8164" style="stop-color:#F5F5F5"/>
		<stop  offset="0.8796" style="stop-color:#EBEBEC"/>
		<stop  offset="0.9306" style="stop-color:#DCDEDF"/>
		<stop  offset="0.9738" style="stop-color:#CACCCE"/>
		<stop  offset="1" style="stop-color:#BCBEC0"/>
	</linearGradient>
	<path class="st46" d="M389.3,219.6v16.9h-5.1v-26.4h4l13.8,17.4v-17.3h5.1v26.4h-4.2L389.3,219.6z"/>
	
		<linearGradient id="SVGID_47_" gradientUnits="userSpaceOnUse" x1="422.05" y1="98" x2="422.05" y2="74.9132" gradientTransform="matrix(1 0 0 -1 0 310)">
		<stop  offset="0" style="stop-color:#BCBEC0"/>
		<stop  offset="2.439079e-02" style="stop-color:#CACCCE"/>
		<stop  offset="6.459801e-02" style="stop-color:#DCDEDF"/>
		<stop  offset="0.1121" style="stop-color:#EBEBEC"/>
		<stop  offset="0.1708" style="stop-color:#F5F5F5"/>
		<stop  offset="0.2533" style="stop-color:#FCFCFC"/>
		<stop  offset="0.4821" style="stop-color:#FFFFFF"/>
		<stop  offset="0.7279" style="stop-color:#FCFCFC"/>
		<stop  offset="0.8164" style="stop-color:#F5F5F5"/>
		<stop  offset="0.8796" style="stop-color:#EBEBEC"/>
		<stop  offset="0.9306" style="stop-color:#DCDEDF"/>
		<stop  offset="0.9738" style="stop-color:#CACCCE"/>
		<stop  offset="1" style="stop-color:#BCBEC0"/>
	</linearGradient>
	<path class="st47" d="M433.1,214.6h-8.5v21.9h-5.1v-21.9H411v-4.5h22L433.1,214.6L433.1,214.6z"/>
	
		<linearGradient id="SVGID_48_" gradientUnits="userSpaceOnUse" x1="447.8" y1="98" x2="447.8" y2="74.9132" gradientTransform="matrix(1 0 0 -1 0 310)">
		<stop  offset="0" style="stop-color:#BCBEC0"/>
		<stop  offset="2.439079e-02" style="stop-color:#CACCCE"/>
		<stop  offset="6.459801e-02" style="stop-color:#DCDEDF"/>
		<stop  offset="0.1121" style="stop-color:#EBEBEC"/>
		<stop  offset="0.1708" style="stop-color:#F5F5F5"/>
		<stop  offset="0.2533" style="stop-color:#FCFCFC"/>
		<stop  offset="0.4821" style="stop-color:#FFFFFF"/>
		<stop  offset="0.7279" style="stop-color:#FCFCFC"/>
		<stop  offset="0.8164" style="stop-color:#F5F5F5"/>
		<stop  offset="0.8796" style="stop-color:#EBEBEC"/>
		<stop  offset="0.9306" style="stop-color:#DCDEDF"/>
		<stop  offset="0.9738" style="stop-color:#CACCCE"/>
		<stop  offset="1" style="stop-color:#BCBEC0"/>
	</linearGradient>
	<path class="st48" d="M437.1,236.6v-26.4h11.7c1.2,0,2.3,0.3,3.4,0.8c1,0.5,1.9,1.2,2.7,2c0.7,0.8,1.3,1.8,1.8,2.8
		c0.4,1.1,0.6,2.1,0.6,3.2c0,1.7-0.4,3.3-1.3,4.7c-0.9,1.4-2,2.4-3.5,3l6,9.9h-5.8l-5.4-8.9h-5.1v8.9H437.1z M442.2,223.2h6.4
		c0.5,0,0.9-0.1,1.3-0.3c0.4-0.2,0.8-0.5,1.1-0.9s0.5-0.8,0.7-1.4c0.2-0.5,0.3-1.1,0.3-1.7s-0.1-1.2-0.3-1.7s-0.5-1-0.8-1.4
		s-0.7-0.7-1.2-0.9c-0.4-0.2-0.9-0.3-1.3-0.3h-6.2V223.2z"/>
	
		<linearGradient id="SVGID_49_" gradientUnits="userSpaceOnUse" x1="473.8501" y1="98" x2="473.8501" y2="74.9132" gradientTransform="matrix(1 0 0 -1 0 310)">
		<stop  offset="0" style="stop-color:#BCBEC0"/>
		<stop  offset="2.439079e-02" style="stop-color:#CACCCE"/>
		<stop  offset="6.459801e-02" style="stop-color:#DCDEDF"/>
		<stop  offset="0.1121" style="stop-color:#EBEBEC"/>
		<stop  offset="0.1708" style="stop-color:#F5F5F5"/>
		<stop  offset="0.2533" style="stop-color:#FCFCFC"/>
		<stop  offset="0.4821" style="stop-color:#FFFFFF"/>
		<stop  offset="0.7279" style="stop-color:#FCFCFC"/>
		<stop  offset="0.8164" style="stop-color:#F5F5F5"/>
		<stop  offset="0.8796" style="stop-color:#EBEBEC"/>
		<stop  offset="0.9306" style="stop-color:#DCDEDF"/>
		<stop  offset="0.9738" style="stop-color:#CACCCE"/>
		<stop  offset="1" style="stop-color:#BCBEC0"/>
	</linearGradient>
	<path class="st49" d="M473.9,236.7c-1.9,0-3.7-0.4-5.3-1.1c-1.6-0.8-2.9-1.8-4.1-3c-1.1-1.3-2-2.7-2.6-4.3c-0.6-1.6-0.9-3.3-0.9-5
		c0-1.8,0.3-3.5,1-5.1s1.6-3,2.7-4.3c1.2-1.2,2.5-2.2,4.1-3c1.6-0.7,3.3-1.1,5.2-1.1s3.7,0.4,5.2,1.2c1.6,0.8,2.9,1.8,4,3.1
		c1.1,1.3,2,2.7,2.6,4.3c0.6,1.6,0.9,3.3,0.9,4.9c0,1.8-0.3,3.4-1,5c-0.6,1.6-1.5,3-2.7,4.2c-1.1,1.2-2.5,2.2-4.1,2.9
		C477.5,236.4,475.7,236.7,473.9,236.7z M466.2,223.3c0,1.1,0.2,2.2,0.5,3.3c0.3,1.1,0.8,2,1.5,2.8s1.5,1.5,2.4,2
		c1,0.5,2,0.7,3.3,0.7c1.2,0,2.3-0.3,3.3-0.8s1.8-1.2,2.4-2c0.7-0.8,1.2-1.8,1.5-2.8c0.3-1.1,0.5-2.1,0.5-3.2s-0.2-2.2-0.5-3.3
		c-0.4-1.1-0.9-2-1.5-2.8c-0.7-0.8-1.5-1.5-2.4-2c-1-0.5-2-0.7-3.2-0.7s-2.3,0.3-3.3,0.8s-1.8,1.2-2.4,2c-0.6,0.8-1.1,1.8-1.5,2.8
		C466.4,221.2,466.2,222.2,466.2,223.3z"/>
	
		<linearGradient id="SVGID_50_" gradientUnits="userSpaceOnUse" x1="500.8" y1="98" x2="500.8" y2="74.9132" gradientTransform="matrix(1 0 0 -1 0 310)">
		<stop  offset="0" style="stop-color:#BCBEC0"/>
		<stop  offset="2.439079e-02" style="stop-color:#CACCCE"/>
		<stop  offset="6.459801e-02" style="stop-color:#DCDEDF"/>
		<stop  offset="0.1121" style="stop-color:#EBEBEC"/>
		<stop  offset="0.1708" style="stop-color:#F5F5F5"/>
		<stop  offset="0.2533" style="stop-color:#FCFCFC"/>
		<stop  offset="0.4821" style="stop-color:#FFFFFF"/>
		<stop  offset="0.7279" style="stop-color:#FCFCFC"/>
		<stop  offset="0.8164" style="stop-color:#F5F5F5"/>
		<stop  offset="0.8796" style="stop-color:#EBEBEC"/>
		<stop  offset="0.9306" style="stop-color:#DCDEDF"/>
		<stop  offset="0.9738" style="stop-color:#CACCCE"/>
		<stop  offset="1" style="stop-color:#BCBEC0"/>
	</linearGradient>
	<path class="st50" d="M491.5,236.6v-26.4h5.1v21.9h13.5v4.5H491.5z"/>
	
		<linearGradient id="SVGID_51_" gradientUnits="userSpaceOnUse" x1="522.55" y1="98" x2="522.55" y2="74.9132" gradientTransform="matrix(1 0 0 -1 0 310)">
		<stop  offset="0" style="stop-color:#BCBEC0"/>
		<stop  offset="2.439079e-02" style="stop-color:#CACCCE"/>
		<stop  offset="6.459801e-02" style="stop-color:#DCDEDF"/>
		<stop  offset="0.1121" style="stop-color:#EBEBEC"/>
		<stop  offset="0.1708" style="stop-color:#F5F5F5"/>
		<stop  offset="0.2533" style="stop-color:#FCFCFC"/>
		<stop  offset="0.4821" style="stop-color:#FFFFFF"/>
		<stop  offset="0.7279" style="stop-color:#FCFCFC"/>
		<stop  offset="0.8164" style="stop-color:#F5F5F5"/>
		<stop  offset="0.8796" style="stop-color:#EBEBEC"/>
		<stop  offset="0.9306" style="stop-color:#DCDEDF"/>
		<stop  offset="0.9738" style="stop-color:#CACCCE"/>
		<stop  offset="1" style="stop-color:#BCBEC0"/>
	</linearGradient>
	<path class="st51" d="M529.7,217c-0.2-0.2-0.5-0.4-0.9-0.7s-1-0.6-1.7-0.9s-1.4-0.5-2.1-0.7c-0.8-0.2-1.6-0.3-2.3-0.3
		c-1.4,0-2.5,0.3-3.2,0.8s-1,1.3-1,2.2c0,0.5,0.1,1,0.4,1.4c0.3,0.4,0.6,0.7,1.1,0.9c0.5,0.3,1.1,0.5,1.9,0.7
		c0.8,0.2,1.6,0.5,2.6,0.7c1.3,0.3,2.5,0.7,3.5,1.1c1.1,0.4,1.9,0.9,2.7,1.5c0.7,0.6,1.3,1.3,1.7,2.1c0.4,0.8,0.6,1.9,0.6,3.1
		c0,1.4-0.3,2.6-0.8,3.6s-1.3,1.8-2.2,2.4s-1.9,1.1-3.1,1.4c-1.2,0.3-2.4,0.4-3.7,0.4c-2,0-3.9-0.3-5.9-0.9
		c-1.9-0.6-3.7-1.4-5.2-2.5l2.3-4.4c0.2,0.2,0.6,0.5,1.2,0.9c0.6,0.4,1.3,0.7,2.1,1.1s1.7,0.7,2.6,0.9c1,0.2,2,0.4,3,0.4
		c2.8,0,4.2-0.9,4.2-2.7c0-0.6-0.2-1.1-0.5-1.5s-0.8-0.7-1.4-1s-1.3-0.6-2.2-0.8c-0.8-0.2-1.8-0.5-2.8-0.8c-1.3-0.3-2.4-0.7-3.3-1.1
		c-0.9-0.4-1.7-0.9-2.3-1.5s-1.1-1.2-1.4-1.9c-0.3-0.7-0.5-1.6-0.5-2.6c0-1.3,0.2-2.5,0.7-3.6s1.2-1.9,2.1-2.6
		c0.9-0.7,1.9-1.2,3.1-1.6c1.2-0.4,2.4-0.5,3.8-0.5c1.9,0,3.6,0.3,5.1,0.9c1.6,0.6,2.9,1.3,4.1,2.1L529.7,217z"/>
</g>
<g>
	<path class="st52" d="M103.4,264.2h4.3l-5.8,27.1h-4.3L103.4,264.2z"/>
	<path class="st52" d="M114.2,264.2h3.4l10.3,19.6l4.1-19.6h4.3l-5.8,27.1H127l-10.2-19.1l-4.1,19.1h-4.3L114.2,264.2z"/>
	<path class="st52" d="M142.8,264.2h9.2c1.7,0,3.2,0.3,4.5,0.8s2.3,1.3,3.2,2.2c0.8,0.9,1.4,2.1,1.9,3.3c0.4,1.3,0.6,2.7,0.6,4.1
		c0,2.4-0.4,4.6-1.2,6.7c-0.8,2-1.9,3.8-3.3,5.3c-1.4,1.5-3.1,2.6-5.1,3.5c-2,0.8-4.1,1.3-6.3,1.3H137L142.8,264.2z M147.1,287.6
		c1.6,0,3.1-0.3,4.4-1c1.3-0.7,2.4-1.6,3.4-2.7c0.9-1.1,1.6-2.4,2.1-3.9s0.7-3,0.7-4.6c0-1.1-0.1-2.1-0.4-2.9
		c-0.3-0.9-0.7-1.7-1.2-2.3c-0.5-0.7-1.2-1.2-2-1.5c-0.8-0.4-1.8-0.6-2.8-0.6h-4.9l-4.2,19.6h4.9V287.6z"/>
	<path class="st52" d="M174.7,291.5c-1.6,0-3-0.2-4.1-0.7s-2-1.1-2.7-1.9s-1.2-1.8-1.5-2.9s-0.5-2.3-0.5-3.6c0-1.4,0.2-2.9,0.5-4.5
		l2.9-13.8h4.3l-2.9,13.8c-0.3,1.4-0.4,2.6-0.4,3.7c0,0.8,0.1,1.6,0.3,2.4c0.2,0.7,0.5,1.4,0.9,1.9s0.9,1,1.6,1.3
		c0.7,0.3,1.5,0.5,2.5,0.5c1.3,0,2.5-0.3,3.5-0.8s1.9-1.3,2.6-2.2c0.7-0.9,1.3-1.9,1.8-3.1s0.8-2.4,1.1-3.6l2.9-13.8h4.3l-2.9,13.8
		c-0.4,1.9-1,3.6-1.7,5.3c-0.8,1.6-1.7,3.1-2.9,4.3c-1.2,1.2-2.5,2.2-4.1,2.9C178.5,291.2,176.7,291.5,174.7,291.5z"/>
	<path class="st52" d="M200.7,291.6c-2,0-3.8-0.3-5.5-0.9s-3.2-1.5-4.4-2.7l2.8-3.7c0.2,0.3,0.6,0.7,1.1,1.1s1.1,0.8,1.8,1.1
		c0.7,0.3,1.5,0.6,2.4,0.9c0.9,0.2,1.8,0.4,2.8,0.4c1.8,0,3.2-0.4,4.2-1.1s1.5-1.7,1.5-3c0-0.6-0.1-1-0.4-1.4s-0.7-0.7-1.2-1.1
		c-0.5-0.3-1.2-0.6-1.9-0.8s-1.6-0.5-2.5-0.8c-2-0.6-3.6-1.3-4.7-2.2c-1.1-0.9-1.6-2.1-1.6-3.7c0-1.5,0.3-2.9,0.9-4.1
		s1.4-2.2,2.5-3.1c1-0.8,2.2-1.5,3.6-1.9s2.8-0.7,4.3-0.7c1.8,0,3.3,0.3,4.7,0.9c1.4,0.6,2.5,1.3,3.4,2.2l-2.7,3.5
		c-0.2-0.3-0.4-0.6-0.8-0.9s-0.9-0.6-1.5-0.9s-1.2-0.5-1.9-0.7c-0.7-0.2-1.4-0.3-2.2-0.3c-1.9,0-3.4,0.4-4.3,1.2
		c-0.9,0.8-1.4,1.9-1.4,3.2c0,0.5,0.1,0.9,0.3,1.3c0.2,0.4,0.6,0.7,1,0.9c0.5,0.3,1,0.5,1.7,0.7s1.5,0.5,2.4,0.7
		c1.1,0.3,2,0.6,2.9,1s1.6,0.8,2.2,1.3s1.1,1.1,1.4,1.7c0.3,0.7,0.5,1.5,0.5,2.4c0,1.6-0.3,3-0.9,4.2s-1.5,2.1-2.5,2.9
		c-1.1,0.8-2.3,1.3-3.6,1.7C203.6,291.4,202.2,291.6,200.7,291.6z"/>
	<path class="st52" d="M225.5,267.9H217l0.8-3.8h21.3l-0.8,3.8h-8.5l-5,23.4h-4.3L225.5,267.9z"/>
	<path class="st52" d="M237.4,291.3l5.8-27.2h11.3c1,0,1.9,0.2,2.7,0.6c0.8,0.4,1.5,1,2,1.6c0.5,0.7,1,1.5,1.2,2.4
		c0.3,0.9,0.4,1.8,0.4,2.7c0,1-0.2,2-0.5,3c-0.4,1-0.8,1.9-1.5,2.8c-0.6,0.9-1.3,1.6-2.2,2.3c-0.8,0.7-1.7,1.1-2.7,1.4l3.8,10.3H253
		l-3.5-9.5h-5.7l-2,9.5h-4.4V291.3z M251.5,278.1c0.6,0,1.3-0.2,1.9-0.5s1.1-0.8,1.6-1.4s0.8-1.2,1.1-2c0.3-0.7,0.4-1.5,0.4-2.3
		c0-1.1-0.3-2.1-0.8-2.9c-0.6-0.8-1.3-1.1-2.1-1.1h-6.7l-2.2,10.1L251.5,278.1L251.5,278.1z"/>
	<path class="st52" d="M268,264.2h4.3l-5.8,27.1h-4.3L268,264.2z"/>
	<path class="st52" d="M286.4,264.2h3.8l4.4,27.2h-4.5L289,284h-9.8l-4.2,7.4h-4.5L286.4,264.2z M288.8,280.8l-1.5-11.7l-6.7,11.7
		H288.8z"/>
	<path class="st52" d="M304.1,264.2h4.3l-5,23.4h13.7l-0.8,3.8h-18L304.1,264.2z"/>
	<path class="st52" d="M337.5,291.6c-2,0-3.8-0.3-5.5-0.9s-3.2-1.5-4.4-2.7l2.8-3.7c0.2,0.3,0.6,0.7,1.1,1.1s1.1,0.8,1.8,1.1
		c0.7,0.3,1.5,0.6,2.4,0.9s1.8,0.4,2.8,0.4c1.8,0,3.2-0.4,4.2-1.1s1.5-1.7,1.5-3c0-0.6-0.1-1-0.4-1.4s-0.7-0.7-1.2-1.1
		c-0.5-0.3-1.2-0.6-1.9-0.8c-0.8-0.2-1.6-0.5-2.5-0.8c-2-0.6-3.6-1.3-4.7-2.2c-1.1-0.9-1.6-2.1-1.6-3.7c0-1.5,0.3-2.9,0.9-4.1
		s1.4-2.2,2.5-3.1c1-0.8,2.2-1.5,3.6-1.9s2.8-0.7,4.3-0.7c1.8,0,3.3,0.3,4.7,0.9c1.4,0.6,2.5,1.3,3.4,2.2l-2.7,3.5
		c-0.2-0.3-0.4-0.6-0.8-0.9s-0.9-0.6-1.5-0.9s-1.2-0.5-1.9-0.7c-0.7-0.2-1.4-0.3-2.2-0.3c-1.9,0-3.4,0.4-4.3,1.2
		c-0.9,0.8-1.4,1.9-1.4,3.2c0,0.5,0.1,0.9,0.3,1.3c0.2,0.4,0.6,0.7,1,0.9s1,0.5,1.7,0.7s1.5,0.5,2.4,0.7c1.1,0.3,2,0.6,2.9,1
		s1.6,0.8,2.2,1.3s1.1,1.1,1.4,1.7c0.3,0.7,0.5,1.5,0.5,2.4c0,1.6-0.3,3-0.9,4.2s-1.5,2.1-2.5,2.9c-1.1,0.8-2.3,1.3-3.6,1.7
		C340.4,291.4,339,291.6,337.5,291.6z"/>
	<path class="st52" d="M362.6,291.5c-1.6,0-3-0.3-4.2-0.9s-2.2-1.5-3.1-2.5c-0.8-1-1.5-2.2-1.9-3.6s-0.7-2.8-0.7-4.3
		c0-2.1,0.4-4.1,1.3-6c0.9-2,2-3.7,3.5-5.2s3.1-2.8,5-3.7c1.9-0.9,3.9-1.4,5.9-1.4c1.6,0,3,0.3,4.2,1s2.2,1.5,3,2.5s1.4,2.3,1.9,3.6
		c0.4,1.4,0.6,2.8,0.6,4.2c0,2-0.4,4-1.3,6s-2,3.7-3.5,5.2c-1.4,1.5-3.1,2.7-5,3.7C366.6,291.1,364.6,291.5,362.6,291.5z
		 M363.4,287.7c1.5,0,2.9-0.4,4.1-1.1c1.3-0.7,2.4-1.7,3.3-2.8c0.9-1.2,1.7-2.5,2.2-3.9s0.8-2.8,0.8-4.2c0-1-0.1-2-0.4-2.9
		s-0.7-1.8-1.2-2.5s-1.2-1.3-1.9-1.7c-0.8-0.4-1.7-0.6-2.7-0.6c-1.5,0-2.9,0.4-4.2,1.1s-2.4,1.7-3.3,2.8c-0.9,1.1-1.7,2.4-2.2,3.9
		c-0.5,1.4-0.8,2.9-0.8,4.3c0,1,0.1,2,0.4,3c0.3,0.9,0.7,1.7,1.2,2.5c0.5,0.7,1.2,1.3,1.9,1.7C361.4,287.5,362.4,287.7,363.4,287.7z
		"/>
	<path class="st52" d="M385.7,264.2h4.3l-5,23.4h13.7l-0.8,3.8h-18L385.7,264.2z"/>
	<path class="st52" d="M410.7,291.5c-1.6,0-3-0.2-4.1-0.7s-2-1.1-2.7-1.9s-1.2-1.8-1.5-2.9s-0.5-2.3-0.5-3.6c0-1.4,0.2-2.9,0.5-4.5
		l2.9-13.8h4.3l-2.9,13.8c-0.3,1.4-0.4,2.6-0.4,3.7c0,0.8,0.1,1.6,0.3,2.4c0.2,0.7,0.5,1.4,0.9,1.9s0.9,1,1.6,1.3s1.5,0.5,2.5,0.5
		c1.3,0,2.5-0.3,3.5-0.8c1-0.6,1.9-1.3,2.6-2.2c0.7-0.9,1.3-1.9,1.8-3.1s0.8-2.4,1.1-3.6l2.9-13.8h4.3l-2.9,13.8
		c-0.4,1.9-1,3.6-1.7,5.3c-0.8,1.6-1.7,3.1-2.9,4.3c-1.2,1.2-2.5,2.2-4.1,2.9C414.5,291.2,412.7,291.5,410.7,291.5z"/>
	<path class="st52" d="M439,267.9h-8.5l0.8-3.8h21.3l-0.8,3.8h-8.5l-5,23.4H434L439,267.9z"/>
	<path class="st52" d="M456.8,264.2h4.3l-5.8,27.1H451L456.8,264.2z"/>
	<path class="st52" d="M472.6,291.5c-1.6,0-3-0.3-4.2-0.9s-2.2-1.5-3.1-2.5c-0.8-1-1.5-2.2-1.9-3.6s-0.7-2.8-0.7-4.3
		c0-2.1,0.4-4.1,1.3-6c0.9-2,2-3.7,3.5-5.2s3.1-2.8,5-3.7c1.9-0.9,3.9-1.4,5.9-1.4c1.6,0,3,0.3,4.2,1c1.2,0.6,2.2,1.5,3,2.5
		s1.4,2.3,1.9,3.6c0.4,1.4,0.6,2.8,0.6,4.2c0,2-0.4,4-1.3,6c-0.9,2-2,3.7-3.5,5.2c-1.4,1.5-3.1,2.7-5,3.7
		C476.6,291.1,474.6,291.5,472.6,291.5z M473.4,287.7c1.5,0,2.9-0.4,4.1-1.1c1.3-0.7,2.4-1.7,3.3-2.8c0.9-1.2,1.7-2.5,2.2-3.9
		s0.8-2.8,0.8-4.2c0-1-0.1-2-0.4-2.9c-0.3-0.9-0.7-1.8-1.2-2.5s-1.2-1.3-1.9-1.7c-0.8-0.4-1.7-0.6-2.7-0.6c-1.5,0-2.9,0.4-4.2,1.1
		s-2.4,1.7-3.3,2.8c-0.9,1.1-1.7,2.4-2.2,3.9c-0.5,1.4-0.8,2.9-0.8,4.3c0,1,0.1,2,0.4,3c0.3,0.9,0.7,1.7,1.2,2.5
		c0.5,0.7,1.2,1.3,1.9,1.7C471.5,287.5,472.4,287.7,473.4,287.7z"/>
	<path class="st52" d="M495.7,264.2h3.4l10.3,19.6l4.1-19.6h4.3l-5.8,27.1h-3.5l-10.2-19.1l-4.1,19.1H490L495.7,264.2z"/>
	<path class="st52" d="M527.3,291.6c-2,0-3.8-0.3-5.5-0.9s-3.2-1.5-4.4-2.7l2.8-3.7c0.2,0.3,0.6,0.7,1.1,1.1s1.1,0.8,1.8,1.1
		c0.7,0.3,1.5,0.6,2.4,0.9c0.9,0.2,1.8,0.4,2.8,0.4c1.8,0,3.2-0.4,4.2-1.1s1.5-1.7,1.5-3c0-0.6-0.1-1-0.4-1.4
		c-0.3-0.4-0.7-0.7-1.2-1.1c-0.5-0.3-1.2-0.6-1.9-0.8c-0.8-0.2-1.6-0.5-2.5-0.8c-2-0.6-3.6-1.3-4.7-2.2c-1.1-0.9-1.6-2.1-1.6-3.7
		c0-1.5,0.3-2.9,0.9-4.1c0.6-1.2,1.4-2.2,2.5-3.1c1-0.8,2.2-1.5,3.6-1.9c1.4-0.4,2.8-0.7,4.3-0.7c1.8,0,3.3,0.3,4.7,0.9
		s2.5,1.3,3.4,2.2l-2.7,3.5c-0.2-0.3-0.4-0.6-0.8-0.9c-0.4-0.3-0.9-0.6-1.5-0.9s-1.2-0.5-1.9-0.7s-1.4-0.3-2.2-0.3
		c-1.9,0-3.4,0.4-4.3,1.2c-0.9,0.8-1.4,1.9-1.4,3.2c0,0.5,0.1,0.9,0.3,1.3s0.6,0.7,1,0.9s1,0.5,1.7,0.7s1.5,0.5,2.4,0.7
		c1.1,0.3,2,0.6,2.9,1s1.6,0.8,2.2,1.3s1.1,1.1,1.4,1.7c0.3,0.7,0.5,1.5,0.5,2.4c0,1.6-0.3,3-0.9,4.2c-0.6,1.2-1.5,2.1-2.5,2.9
		c-1.1,0.8-2.3,1.3-3.6,1.7C530.2,291.4,528.8,291.6,527.3,291.6z"/>
</g>
</svg>
