<svg xmlns="http://www.w3.org/2000/svg" viewBox="-17112.09 -965.449 963.176 618.933">
  <defs>
    <style>
      .cls-1 {
        fill: #edc220;
      }
    </style>
  </defs>
  <g id="Group_362" data-name="Group 362" transform="translate(-769 -130)">
    <g id="Group_360" data-name="Group 360" transform="matrix(0.035, -0.999, 0.999, 0.035, -16246.986, -430.199)">
      <path id="Path_36" data-name="Path 36" class="cls-1" d="M0,0V8.309H0V0Z" transform="translate(165.012 202.217)"/>
      <path id="Path_37" data-name="Path 37" class="cls-1" d="M139.6,0V58.166h-1.662l-1.662,1.662h0l-8.309,13.295-9.971-9.971H69.8V43.209c0-1.662,0-1.662-1.662-1.662H1.662C0,41.547,0,41.547,0,43.209v139.6c0,1.662,0,1.662,1.662,1.662H29.914v209.4H9.971c-1.662,0-1.662,0-1.662,1.662V513.518c0,1.662,0,1.662,1.662,1.662H29.914V756.152c0,1.662,0,1.662,1.662,1.662H139.6v9.971h0v-9.971H249.281c1.662,0,1.662,0,1.662-1.662V515.18h19.942c1.662,0,1.662,0,1.662-1.662V496.9h126.3c1.662,0,1.662,0,1.662-1.662V457.015h0V418.792c0-1.662,0-1.662-1.662-1.662h-126.3v-21.6c0-1.662,0-1.662-1.662-1.662H250.942v-209.4h28.252c1.662,0,1.662,0,1.662-1.662V43.209c0-1.662,0-1.662-1.662-1.662H212.719c-1.662,0-1.662,0-1.662,1.662V63.151H162.863L151.23,73.122l-6.647-11.633h0l-1.662-3.324h0L139.6,0Zm63.151,66.475v44.871H164.525l-11.633-8.309V76.446l11.633-9.971Zm11.633-21.6h31.576v6.647l-3.324,1.662h0l-3.324,1.662h0l-6.647,4.986h0v3.324h0l1.662,4.986h0l3.324,3.324h0l4.986,1.662h3.324V86.417l-3.324,1.662h0l-3.324,1.662h0l-6.647,8.309h0v3.324h0l1.662,4.986h0l3.324,3.324h0l3.324,6.647h3.324v3.324H212.719v-6.647h0V44.871Zm34.9,136.274h0l-1.662,214.381c0,1.662,0,1.662,1.662,1.662h19.942V511.856H11.633V397.187H31.576c1.662,0,1.662,0,1.662-1.662V182.806c0-1.662,0-1.662-1.662-1.662H3.324V122.979H34.9V126.3h0v-3.324H66.475v58.166H54.842c-1.662,0-1.662,0-1.662,1.662v212.72c0,1.662,0,1.662,1.662,1.662H74.784v18.281H31.576c-1.662,0-1.662,0-1.662,1.662v76.446c0,1.662,0,1.662,1.662,1.662H139.6v6.647h0v-6.647H249.281c1.662,0,1.662,0,1.662-1.662V417.13c0-1.662,0-1.662-1.662-1.662H206.072V395.525h19.942c1.662,0,1.662,0,1.662-1.662V182.806c0-1.662,0-1.662-1.662-1.662H214.381V122.979h31.576V126.3h0v-3.324h31.576v58.166ZM212.719,568.36l8.309,9.971,6.647,11.633,4.986,11.633,3.324,13.295,1.662,13.295v1.662H199.424v-3.324h0l-1.662-9.971h0l-3.324-9.971h0l-6.647-8.309h0l-6.647-8.309h0l-8.309-6.647h0l-8.309-4.986h0l-9.971-3.324h0l-9.971-1.662h-3.324V535.123h1.662l13.295,1.662,13.295,3.324,11.633,4.986,11.633,6.647,9.971,8.309Zm23.266,74.784-3.324,13.3-4.986,13.295-4.986,11.633-8.309,9.971-8.309,9.971-9.971,8.309-11.633,6.648-11.633,4.986-13.295,3.324-13.295,1.662h-4.986V688.015h8.309l9.971-1.662h0l9.971-4.986h0l8.309-6.647h0l6.647-8.31h0l4.986-8.309h0l3.324-9.971h0l1.662-9.971h0v-6.647h38.223ZM132.95,727.9l-13.295-1.662-13.295-3.324-11.633-4.985-11.633-8.309-9.971-8.309-8.309-9.971-6.647-9.971-8.309-13.3-3.324-13.3-1.662-13.295v-9.971H83.094V636.5h0l1.662,9.971h0l3.324,9.971h0l4.986,8.309h0l6.647,8.309h0l8.309,6.647h0l9.971,4.986h0l9.971,3.324h0l9.971,1.662h0V727.9ZM44.871,628.187V614.893L48.194,601.6,53.18,588.3l6.647-11.633,8.309-9.971,9.971-9.971,9.971-8.309,11.633-6.647,13.295-4.986,13.295-3.324L139.6,531.8v38.223l-9.971,1.662h0l-9.971,3.324h0l-9.971,6.647h0l-8.309,6.648h0l-6.647,8.309h0l-4.986,8.309h0l-4.986,9.971h0l-1.662,9.971h0v6.648H44.871ZM139.6,515.18v4.986h0V515.18h83.094l-24.928,36.561-3.324-3.324h0l-11.633-6.648h0l-11.633-4.986h0l-13.295-3.324h0L141.259,531.8h0V523.49h0V531.8l-13.295,1.662h0l-13.295,3.324h0l-14.957,3.324h0l-11.633,6.647h0l-4.986,3.324-24.928-34.9Zm-84.755,0L79.77,553.4l-3.324,1.662h0l-9.971,9.971h0L64.813,566.7,33.237,515.18Zm114.669,71.461,8.309,6.648,6.647,8.309,4.986,8.309,3.324,9.971,1.662,9.971v3.324h0v6.648l-3.324,8.309-3.324,9.971-4.986,6.648-6.647,6.648-8.309,6.648-9.971,3.324-8.309,3.324h-8.309V658.1h0v-26.59h0V576.67h1.662l9.971,1.662,8.309,3.324Zm-49.856,94.727-9.971-4.986-8.309-6.648-4.986-4.986L91.4,656.439l-3.324-9.971L86.417,636.5v-4.986h0v-4.986l1.662-9.971,3.324-9.971,4.986-8.309,6.647-6.647,8.309-6.648,9.971-3.324,9.971-3.324,9.971-1.662v54.842H139.6v28.252h0v26.59h0l-9.971-1.662Zm84.755-124.64h0l-4.986-3.324,26.59-38.223h18.281l-34.9,46.532ZM63.151,570.022l-4.986,6.648h0L51.518,588.3h0L46.532,601.6h0l-3.324,13.295h0l-1.662,13.295h0v3.324H33.237V520.166Zm-21.6,61.489v9.971h0l1.662,13.295h0l3.324,13.3h0l6.647,13.295h0L61.489,693h0l8.309,9.971h0l9.971,8.309h0L91.4,717.929h0l11.633,4.985h0l13.295,3.324h0l16.619,4.986H139.6V754.49H33.237V631.511ZM141.259,754.49V731.224h4.986l13.295-1.662h0l13.295-3.324h0l11.633-4.986h0L196.1,714.6h0l9.971-8.309h0l8.309-9.971h0l8.309-11.633h0l6.647-11.633h0l4.986-13.3h0l1.662-13.3h0V634.835h8.309V757.813H141.259Zm98.05-122.979h0l-1.662-16.619h0L234.324,601.6h0l-4.986-11.633h0l-6.647-11.633h0L216.043,566.7h0l-3.324-3.324,34.9-46.532V631.511ZM66.475,119.655H34.9v-3.324h3.324l4.986-1.662h0l3.324-3.324h0l1.662-4.986h0v-3.324h0l-3.324-8.309h0L39.885,91.4H34.9V76.446h3.324l4.986-1.662h0l3.324-3.324h0l1.662-4.986h0V63.151h0L44.871,56.5h0L39.885,53.18h0L34.9,51.518V44.871H66.475Zm61.489-43.209v26.59l-11.633,6.648H88.079V66.475h28.252ZM84.755,66.475v44.871H78.108V66.475Zm0,48.194v54.842l-6.647,8.309V114.669Zm18.281,51.518H88.079V129.626h14.957v36.561Zm14.957-14.957v-8.309l21.6-8.309V151.23Zm23.266-16.619,23.266-8.309H174.5V151.23H141.259Zm61.489,24.928H177.82v-34.9h24.928Zm0,21.6H177.82V162.863h24.928Zm21.6,212.72H206.072v-209.4h18.281v209.4Zm23.266,99.712H141.259V475.3h43.209c1.662,0,1.662,0,1.662-1.662v-53.18h61.489ZM33.237,418.792H94.727v53.18c0,1.662,0,1.662,1.662,1.662H139.6v18.281H33.237Zm151.23-3.324c-1.662,0-1.662,1.662,0,0l-1.662,54.842H141.259V395.525h0V470.31H98.05V417.13c0-1.662,0-1.662-1.662-1.662H78.108v-231H139.6v34.9H104.7c-1.662,0-1.662,0-1.662,1.662v96.389h0l11.633,29.914,1.662,6.648h0l3.324,6.647h0v4.986h0l1.662,6.647h0l3.324,4.986h0l4.986,4.986h0l3.324,4.986h0l6.647,1.662h6.647l4.986-3.324h0l4.986-3.324h0l3.324-4.986h0L161.2,370.6h0V363.95h0v-1.662l1.662-4.986h0l1.662-8.309h0l11.633-29.914h0V222.691c0-1.662,0-1.662-1.662-1.662H141.259v-34.9h61.489V415.468ZM56.5,184.468H74.784v209.4H56.5ZM174.5,317.418l-11.633,29.914h0l-1.662,4.986-3.324,4.986-3.324,8.309-4.986,1.662-4.986,1.662h-3.324v-104.7h0v104.7h-4.986l-6.647-1.662-4.986-3.324-3.324-4.986h0l-3.324-4.986-1.662-6.648h0L104.7,317.418V222.691h33.237V239.31h0V222.691h33.237v94.727ZM159.54,367.274l-1.662,4.986-3.324,4.986-3.324,4.986-4.986,3.324h-4.986v-6.648h0v6.648h-4.986l-6.647-3.324-3.324-3.324-3.324-4.986-1.662-4.986v-1.662l1.662,1.662h0l4.986,3.324h0l6.647,1.662h6.647l8.309-3.324h0l4.986-3.324h0l3.324-3.324ZM174.5,152.892v28.252H141.259V152.892ZM79.77,181.144l8.309-9.971h14.957v11.633H79.77Zm-4.986,0H69.8V114.669h4.986Zm-49.856-79.77L26.59,98.05l3.324-1.662,3.324-1.662h0v8.309l-8.309-1.662Zm19.942-1.662v3.324H34.9V94.727h3.324l3.324,1.662ZM24.928,104.7h0l8.309-1.662v8.309H29.914l-3.324-3.324Zm9.971-1.662h9.971l-1.662,4.986-1.662,3.324-4.986,1.662H34.9v-9.971ZM24.928,66.475h0l8.309-1.662v8.309H29.914L26.59,69.8Zm0-3.324,1.662-3.324,3.324-1.662L33.237,56.5h0v8.309l-8.309-1.662Zm19.942-1.662v1.662H34.9V54.842h3.324L41.547,56.5ZM34.9,64.813h9.971L43.209,69.8,41.547,71.46l-4.986,1.662H34.9V64.813Zm0-19.942v6.647h0L29.914,53.18h0L24.928,56.5h0l-1.662,4.986h0v1.662h0v3.324h0l1.662,4.986h0l3.324,3.324h0l4.986,3.324h0V91.4H29.914l-4.986,3.324h0l-1.662,4.986h0v1.662h0v1.662h0l1.662,4.986h0l3.324,3.324h0l4.986,4.986h0v3.324H3.324V44.871Zm211.058,74.784v-3.324h1.662l4.986-1.662h0l3.324-3.324h0l1.662-4.986h0v-3.324h0v-1.662h0l-1.662-4.986h0L252.6,93.065h0L247.619,91.4h0V78.108h1.662l4.986-1.662h0l3.324-3.324h0l1.662-4.986h0V64.813h0V61.489h0L257.59,56.5h0l-3.324-3.324h0l-4.986-1.662h0V44.871h31.576v74.784Zm-3.324-6.647-3.324-1.662-1.662-3.324V104.7h8.309v8.309Zm-6.647-13.295,1.662-3.324,3.324-1.662h3.324v8.309h-8.309Zm18.281,1.662h0l-8.309,1.662V94.727h3.324l3.324,1.662Zm0,3.324-1.662,3.324-3.324,3.324-3.324,1.662h-1.662v-9.971l9.971,1.662ZM242.633,73.122l-3.324-1.662-1.662-3.324V64.813h8.309v8.309Zm-6.647-11.633,1.662-3.324,3.324-1.662h3.324v8.309h-8.309Zm18.281,1.662h0l-8.309,1.662V54.842h0l3.324,1.662,3.324,1.662Zm0,3.324L252.6,69.8l-3.324,1.662-3.324,1.662h-1.662V64.813l9.971,1.662ZM211.058,181.144h-4.986V114.669h4.986Zm-8.309-59.827H162.863L116.331,139.6h0V151.23c0,1.662,0,1.662,1.662,1.662h23.266v28.252H108.022v-53.18c0-1.662,0-1.662-1.662-1.662H89.741V114.669h28.252l11.633-6.648,6.647,13.295h0l1.662,1.662h0V126.3h0v-4.986H139.6l1.662-1.662h0l8.309-13.3,11.633,6.648h39.885v8.309Zm-53.18-44.871v26.59l-8.309,14.957h0v-1.662h0v3.324H139.6l-8.309-16.619V76.446L139.6,63.151l1.662-1.662h0v46.532h0V61.489l1.662,1.662ZM74.784,66.475v44.871H69.8V66.475Zm322.4,352.317v36.561h-1.662v-3.324h0l-3.324-4.986h0l-4.986-3.324h0L382.23,440.4h0l-6.647-1.662h0v-9.971h0v9.971H370.6L363.95,440.4h0l-4.986,3.324h0l-8.31,4.986h0l-1.662,6.647h0l1.662,4.986h0l3.324,4.986h0l4.986,3.324h0l6.647,1.662h0l6.647,1.662h0v9.971h0v-9.971l6.647-1.662h0l6.648-1.662h0l4.986-3.324h0l3.324-4.986h0l1.662-4.986h1.662v36.561H272.547V418.792ZM392.2,462l-3.324,3.324-4.986,3.324-6.647,1.662h-4.986V455.353H392.2Zm-36.561,3.324-3.324-4.986v-3.324h19.943v14.957l-6.647-1.662-4.986-1.662Zm-3.324-14.957,3.324-3.324,4.986-3.324,6.648-1.662h4.986v14.957H352.316Zm36.561-1.662,3.324,4.986v3.324H372.259V442.058h0l6.647,1.662,4.986,3.324Zm-177.82-337.36h-4.986V66.475h4.986Z" transform="translate(0)"/>
      <path id="Path_38" data-name="Path 38" class="cls-1" d="M0,0Z" transform="translate(201.573 586.109)"/>
      <path id="Path_39" data-name="Path 39" class="cls-1" d="M8.309,0Z" transform="translate(121.804 586.109)"/>
    </g>
    <g id="Group_361" data-name="Group 361" transform="translate(-16343.09 -405.067) rotate(-6)">
      <path id="Path_1" data-name="Path 1" class="cls-1" d="M0,1.126v9.005H0V1.126Z" transform="translate(121.946 99.382) rotate(-90)"/>
      <path id="Path_2" data-name="Path 2" class="cls-1" d="M0,0V9.005H0V0Z" transform="translate(679.897 99.382) rotate(-90)"/>
      <path id="Path_3" data-name="Path 3" class="cls-1" d="M0,0V114.067H0V0Z" transform="translate(696.407 99.382) rotate(-90)"/>
      <path id="Path_4" data-name="Path 4" class="cls-1" d="M1.147,0h0Z" transform="translate(118.569 103.586) rotate(-90)"/>
      <path id="Path_5" data-name="Path 5" class="cls-1" d="M1.147,9.005V0h0V9.005Z" transform="translate(496.79 126.521) rotate(-90)"/>
      <path id="Path_6" data-name="Path 6" class="cls-1" d="M1.147,40.524V0h0V40.524Z" transform="translate(384.224 126.521) rotate(-90)"/>
      <path id="Path_7" data-name="Path 7" class="cls-1" d="M166.655,552.323V537.314h0V495.289a5.212,5.212,0,0,0,1.529-3c0-1.5,0-1.5-1.529-3V457.767c0-1.5,0-1.5-1.529-1.5H145.25V367.715c0-1.5,0-1.5-1.529-1.5h-6.116V345.2h0l-1.529-6h-1.529l-3.058-3h0l-3.058-1.5V285.167a5.213,5.213,0,0,0,1.529-3c0-1.5,0-1.5-1.529-3V238.639l1.529-13.508,3.058-13.508,6.116-16.51,6.116-13.508V144.084h0l-4.587-25.515h0l-15.289-69.04-1.529-4.5h0l-3.058-7.5h0l-6.116-6h0l-6.116-6h0l-7.645-3h0l-7.645-1.5H91.737V0h0V21.012H85.621l-9.174,3h0l-7.645,4.5h0l-6.116,6h0l-4.587,7.5h0l-1.529,7.5h0l-15.289,69.04h0l-6.116,24.014h0v40.524l7.645,12.007L47.4,208.622l3.058,13.508,1.529,13.508v40.524a5.213,5.213,0,0,0-1.529,3c0,1.5,0,1.5,1.529,3v49.529l-3.058,1.5h0l-3.058,3h0L42.811,345.2h0v21.012H36.695c-1.529,0-1.529,0-1.529,1.5v88.552H16.818c-1.529,0-1.529,0-1.529,1.5v31.518a5.213,5.213,0,0,0-1.529,3c0,1.5,0,1.5,1.529,3v42.025h0v46.527l-3.058,1.5h0V828.484h0v1.5L29.05,848h0l33.637,37.522v40.524c0,1.5,0,1.5,1.529,1.5H90.208v21.012h0V927.542H116.2c1.529,0,1.529,0,1.529-1.5V885.517l48.926-55.532h0v-1.5h0V585.342h0l-1.529-1.5V552.323ZM102.439,924.54,116.2,912.533v6l-6.116,6Zm-7.645,0,18.347-18.011,3.058,1.5v3L100.911,924.54Zm-16.818,0,12.232-12.007v6l-4.587,4.5H77.976Zm-7.645,0,19.876-19.511v6L76.447,923.039H70.332Zm-4.587,0v-1.5l24.463-25.515v6L68.8,924.54ZM22.934,837.489l16.818-16.509h6.116L25.992,840.491Zm-4.587-4.5,12.232-12.007h7.645L21.405,835.988Zm-3.058-4.5,9.174-9.005H29.05l-10.7,10.506Zm7.645-369.216,29.05,28.517v1.5H47.4l-29.05-28.517v-1.5h4.587Zm9.174,0L51.984,480.28v7.5L24.463,460.769h7.645ZM64.216,318.186h0v10.506H61.158l-6.116,1.5V283.666H77.976v45.026h0v1.5H73.39l-6.116-1.5H64.216V318.186Zm-9.174-76.545v-7.5h0V223.631h0l-3.058-15.009h0l-6.116-13.508h0l-3.058-4.5,4.587,3,10.7,10.506,7.645,12.007,6.116,13.508,4.587,13.508v34.52H55.042ZM61.158,43.525l1.529-3H68.8L59.629,51.03h0Zm-1.529,9.005L71.861,40.524h6.116L56.571,61.536ZM56.571,63.037,79.505,40.524h0v6L62.687,63.037ZM79.505,48.028v6l-9.174,9.005H64.216Zm0,7.5v7.5H71.861Zm3.058-15.009h7.645V63.037H82.563Zm9.174-16.51,7.645,1.5,7.645,3,6.116,4.5,3.058,4.5H91.737V24.014Zm33.637,39.023h-4.587l3.058-3Zm10.7,130.576h0l-4.587,13.508h0l-3.058,15.009h0L126.9,232.636v45.026H103.968V244.643l1.529-1.5h0l4.587-13.508,6.116-13.508,7.645-12.007,10.7-10.506,4.587-3Zm-10.7,136.58-4.587-1.5h-1.529V318.186h0v10.506h-4.587l-6.116,1.5h-6.116l1.529-1.5v-1.5h0V282.165H126.9v48.028Zm-7.645,28.517h0V337.7h12.232l1.529,1.5,1.529,4.5v21.012H100.911V343.7l1.529-4.5,1.529-3h13.761v22.513Zm35.166,100.559,9.174,9.005v7.5l-16.818-16.51Zm9.174,0,1.529,1.5v6l-9.174-9.005h7.645Zm1.529,102.06-6.116,6h-7.645l12.232-13.508v7.5Zm0,1.5v4.5h-4.587Zm-13.761,6h-7.645l15.29-15.009H163.6Zm-9.174,0h-6.116l15.289-15.009h7.645Zm-7.645,0h-7.645l16.818-16.51h0c0,1.5,0,1.5,1.529,1.5h3.058Zm18.347,12.007h0L131.49,601.852h-6.116l21.405-21.012Zm-1.529,24.014V813.475H47.4v-1.5H41.282v1.5h-10.7V604.853H73.389l3.058,1.5h0l4.587-3h9.174v67.539h0V603.352h59.629Zm15.289-18.01-13.76,13.508h-1.529l15.289-13.508Zm-10.7,255.149-3.058,3H145.25L163.6,826.983l3.058,3Zm-12.232,3h0l-7.645,1.5,22.934-22.513,3.058,3Zm15.289-22.513-24.463,24.014h-3.058l-6.116,1.5,27.521-27.016h3.058ZM113.142,854h0l-7.645,7.5h0l-1.529,1.5h0v4.5L91.737,879.513v-6l53.513-52.531h6.116L122.316,849.5h-1.529ZM70.332,906.529h0l4.587-3h0l3.058-4.5h0v-3l12.232-12.007v7.5L65.745,915.535v-6ZM50.455,846.494H47.4l25.992-25.515h6.116L53.513,846.494Zm-10.7-1.5h0l22.934-24.014h7.645L44.339,846.494Zm39.753-24.014H87.15L58.1,849.5,53.513,848ZM59.629,849.5h0L87.15,820.979h1.529v4.5L61.158,852.5Zm35.166-28.517-3.058,3v-3Zm-4.587,6h0v1.5s1.529,0,0-1.5h0l6.116-6h7.645L70.332,854l-4.587-3ZM70.332,855.5l35.166-34.52h6.116L91.737,840.491v-4.5h0v4.5L74.918,857Zm50.455-28.517Zm0,1.5Zm-1.529,1.5Zm3.058,0h0v-1.5h-1.529l1.529,1.5Zm-1.529-3Zm-1.529,3,3.058,1.5h0l-3.058-1.5Zm3.058,1.5,1.529-3h1.529l-3.058,3Zm-3.058-6Zm-1.529,4.5h0l1.529-1.5Zm4.587,3h0L91.737,864.5V857l25.992-25.515ZM90.208,864.5l-10.7,10.506v-7.5L90.208,857Zm-10.7,3V863h0L91.737,851v6Zm0,24.014h0v-4.5l10.7-10.506v6l-10.7,9.005Zm0-7.5v-7.5l10.7-10.506v7.5Zm12.232-18.01,45.868-45.026h7.645l-53.513,51.03Zm32.108-33.019,1.529-4.5h0l-1.529-3,6.116-6h7.645Zm-1.529-7.5-3.058-1.5h0l-3.058,4.5h0L91.737,855.5v-6l29.05-28.517H126.9ZM91.737,848v-7.5l21.405-21.012h7.645Zm-1.529-6v7.5L77.976,861.5h0l-3.058-3Zm12.232,34.52-10.7,12.007v-7.5l10.7-10.506ZM65.745,915.535l24.463-24.014v6L65.745,923.039ZM91.737,890.02l10.7-10.506v6l-10.7,10.506Zm10.7-4.5v6h0v1.5l-10.7,10.506v-6Zm1.529,7.5v3h0l1.529,1.5L91.737,911.032v-6Zm1.529,6,1.529,3h1.529l-16.818,18.01v-6ZM47.4,817.978Zm-18.347,0ZM45.868,537.314h0l6.116-7.5v6L38.224,549.321v-6l4.587-4.5,3.058-1.5ZM39.753,520.8c0-1.5,0-1.5-1.529-1.5h0l15.289-15.009v7.5L39.753,525.307ZM62.687,369.216h0l-3.058,1.5h0v6h6.116v-6h0l-3.058-1.5H84.092v9.005H42.811v-9.005Zm3.058,7.5h0v-4.5h0Zm0-1.5h0v-3h0Zm-3.058-1.5Zm1.529,1.5Zm-3.058,0v1.5h0Zm1.529-1.5v1.5h0v-1.5Zm-1.529-1.5ZM42.811,184.608h9.174l-4.587,4.5-4.587-4.5Zm13.761,0Zm-3.058-4.5Zm3.058,0Zm-3.058,0Zm-1.529,0Zm-1.529,4.5Zm0,6h0l3.058-4.5h3.058v-1.5h9.174l-10.7,10.506Zm16.818-6h10.7l-18.347,18.01-4.587-6Zm12.232,0h10.7L64.216,210.123l-3.058-7.5Zm33.637,30.018h0l-6.116,13.508h0L91.737,243.142V232.636l29.05-28.517Zm4.587,160.594h0v-6h19.876v9.005H97.853v-9.005h19.876v6ZM163.6,484.783l-29.05-28.517h1.529c1.529,0,1.529,0,1.529-1.5v-1.5l4.587,4.5v1.5c0,1.5,0,1.5,1.529,1.5h1.529L163.6,478.78v6Zm-39.753,61.536-3.058,1.5h-1.529v-1.5ZM90.208,601.852H84.092l6.116-6Zm-12.232-1.5Zm1.529,0Zm-3.058,4.5Zm0,1.5,3.058-1.5h0l-3.058,1.5Zm6.116-4.5H81.034l-1.529-3h0l12.232-12.007v6Zm-6.116-1.5H68.8l21.405-21.012h1.529v6Zm-45.868,1.5h0l18.347-21.012h7.645L35.166,601.852Zm25.992-21.012h6.116L41.282,601.852H35.166Zm9.174,0h7.645L51.984,601.852H44.339Zm7.645,0h6.116L58.1,601.852H51.984Zm7.645,0h7.645L67.274,601.852H59.629Zm-48.926-4.5h0v-4.5h58.1v4.5ZM73.39,382.724v57.033H64.216v-6h0v6h-10.7V382.724ZM85.621,336.2l4.587-1.5h0v4.5H87.15Zm12.232-3,3.058,3-1.529,3h0v1.5l-7.645-7.5Zm42.811,49.529,3.058,3v6l-9.174-9.005Zm-10.7,54.031,1.529,1.5h-1.529Zm0-31.518,12.232,12.007v7.5l-12.232-12.007Zm12.232,10.506-12.232-12.007v-6l12.232,12.007ZM126.9,439.757h-7.645v-6h0v6h-10.7V382.724H126.9Zm-24.463,0h0l-10.7-10.506v-6L105.5,436.755v3h-3.058Zm15.289,103.561h-7.645v-6h7.645ZM90.208,556.825h0v4.5l-6.116,6H76.447l30.579-28.517v7.5L91.737,561.328l-1.529-4.5Zm-4.587,12.007,4.587-4.5v4.5ZM55.042,537.314h7.645v6H55.042Zm7.645,9.005v1.5H61.158l-3.058-1.5h4.587Zm1.529-97.557h0v4.5H47.4V442.759H77.976v10.506H64.216v-4.5Zm25.992-31.518h0v3L76.447,406.737v-7.5L105.5,427.75v7.5L91.737,421.746l-1.529-4.5C91.737,418.744,91.737,417.244,90.208,417.244ZM74.918,498.291l4.587-3H87.15L76.447,505.8v-7.5Zm16.818-9.005v-3l3.058,3Zm1.529,6-1.529,3v-3Zm-3.058-6H87.15L73.389,475.778v-7.5l15.289,15.009v6ZM74.918,477.279,87.15,489.286H79.505l-4.587-4.5Zm0,30.018L87.15,495.289h3.058v3L74.918,513.3Zm0,16.51L90.208,508.8v6L74.918,529.809Zm0-1.5v-6l15.29-15.009v6Zm16.818-24.014,3.058-3h6.116L91.737,505.8Zm4.587-9.005-4.587-4.5v-6l10.7,10.506Zm-6.116-6L74.918,468.273v-6l15.289,15.009Zm-12.232,6H74.918v-3Zm0,6-3.058,3v-3ZM74.918,531.31,90.208,516.3v7.5L74.918,538.815h0Zm32.108-16.51L91.737,529.809v-7.5L107.026,507.3Zm0-9.005L91.737,520.8v-7.5l15.289-15.009ZM74.918,537.314Zm0,9.005h0v-7.5l1.529-1.5h7.645l-10.7,10.506Zm1.529-9.005,13.761-13.508v7.5l-6.116,6Zm13.761-6h0L107.026,516.3v6L91.737,537.314H85.621Zm16.818-7.5v7.5l-6.116,6H93.266Zm0-25.515L91.737,513.3v-6l12.232-12.007h3.058Zm-3.058-9.005L91.737,477.279v-7.5l15.289,15.009v4.5ZM90.208,409.739h0v-3L105.5,420.245v7.5l-29.05-30.017v-7.5l13.761,15.009v4.5Zm1.529,36.021v-7.5l9.174,9.005v7.5Zm-1.529-1.5L76.447,430.752v-7.5l13.761,13.508ZM76.447,432.252,90.208,445.76v6l-9.174-9.005v-1.5c0-1.5,0-1.5-1.529-1.5H76.447v-7.5Zm30.579,43.525L91.737,460.769v-7.5l15.289,15.009ZM90.208,460.769l-9.174-10.506v-7.5l9.174,9.005Zm-10.7-4.5c1.529,0,1.529,0,1.529-1.5v-3l9.174,9.005v7.5l-10.7-12.007Zm12.232,6,15.289,15.009v7.5L91.737,469.774Zm15.289,6L91.737,453.265v-6l15.289,15.009Zm-6.116-27.016v6l-9.174-10.506v-7.5l9.174,12.007Zm-10.7-4.5L76.447,421.746v-7.5L90.208,427.75ZM76.447,414.242v-6l13.761,13.508v6Zm29.05-10.506L91.737,390.228v-7.5L105.5,396.231Zm0,15.009L91.737,405.237v-4.5h0v3L76.447,390.228v-6l29.05,28.517Zm-29.05,37.522,13.761,13.508v7.5L74.918,462.27v-4.5h1.529ZM68.8,546.319l-3.058,1.5H64.216v-1.5Zm-12.232,3h0l4.587,1.5-16.818,16.51H36.695Zm4.587,3h0l1.529,3h0v-3h1.529l4.587-1.5-18.347,18.01H44.339Zm22.934-15.009h6.116L59.629,567.331H53.513Zm7.645,0h6.116l-6.116,7.5v-4.5h0v6L68.8,568.832H61.158ZM90.208,547.82h0v1.5s1.529,0,0-1.5h0l10.7-10.506h6.116L76.447,567.331H68.8Zm10.7-10.506,6.116-6v6h-6.116Zm6.116-76.545-4.587-4.5h4.587ZM105.5,387.226l-4.587-4.5H105.5Zm-6.116-4.5,6.116,6v6L91.737,381.223v-6l3.058,3v4.5c0,1.5,0,1.5,1.529,1.5h3.058ZM87.15,370.716l3.058,3v6l-3.058-3Zm6.116,4.5-1.529-1.5v-6l3.058,3v4.5Zm3.058-9.005c-1.529,0-1.529,0-1.529,1.5h0l-3.058-1.5v-7.5l6.116,6v1.5ZM82.563,351.205l7.645,7.5v7.5l-7.645-7.5ZM94.795,337.7H91.737v-3Zm-6.116-3Zm-7.645-45.026,9.174-9.005V291.17l-9.174,9.005Zm0,12.007,9.174-9.005v10.506l-9.174,9.005Zm19.876-19.511v10.506l-9.174,9.005V291.17ZM91.737,325.69V315.184l9.174-9.005v10.506l-9.174,9.005Zm9.174-21.012-9.174,9.005V303.177l9.174-9.005Zm-19.876,9.005,9.174-9.005v10.506l-9.174,9.005Zm0,12.007,9.174-9.005v9.005Zm6.116,3Zm-3.058,4.5Zm4.587-3Zm12.232-12.007v7.5H93.266Zm-1.529-37.522v1.5l-7.645,7.5V279.163l9.174-9.005v7.5C99.382,279.163,99.382,279.163,99.382,280.664Zm1.529-24.014-9.174,9.005v-4.5h0v6l-9.174,9.005V265.655l19.876-19.511V256.65ZM81.034,244.643h0v-3h0l10.7-10.506v10.506l-9.174,9.005v-6Zm0,33.019h0l9.174-9.005v1.5h0v-3l9.174-9.005v10.506l-9.174,9.005h0l-9.174,9.005v-6a5.212,5.212,0,0,0,1.529-3C82.563,279.163,81.034,279.163,81.034,277.662Zm1.529,51.03Zm1.529,6h0Zm6.116,4.5v1.5l-1.529-1.5Zm1.529,0h4.587l3.058,3-1.529,3h0v3l-6.116-6ZM97.853,349.7v6l-6.116-6v-6Zm0,7.5v7.5l-6.116-7.5v-7.5Zm-7.645,0-7.645-7.5v-4.5h0l-1.529-3,7.645,7.5v7.5Zm-7.645,1.5,7.645,7.5v6l-3.058-3v-1.5c0-1.5,0-1.5-1.529-1.5H84.092l-1.529-1.5Zm3.058,24.014c1.529,0,1.529,0,1.529-1.5v-3l3.058,3v7.5l-4.587-6Zm-3.058,0,7.645,7.5v3h0v-3l13.761,13.508v7.5L76.447,382.724Zm-32.108,0h0v6l-6.116-6Zm-10.7-1.5c0,1.5,0,1.5,1.529,1.5h1.529l7.645,7.5v6L38.224,384.224v-6l1.529,3Zm10.7,18.01v6L38.224,393.23v-6Zm0,7.5v6L38.224,400.734v-6Zm0,7.5v7.5L38.224,409.739v-7.5Zm0,9.005v6L38.224,417.244v-6Zm0,7.5v6L38.224,424.748v-6Zm0,7.5H44.339l-6.116-6v-6Zm-6.116,1.5h0v6l-4.587-4.5v-6Zm-4.587,3,4.587,4.5v6l-4.587-4.5Zm12.232,13.508v6l-6.116-6Zm3.058,33.019V456.266h7.645v33.019h0V456.266h7.645v33.019a5.213,5.213,0,0,0-1.529,3c0,1.5,0,1.5,1.529,3v48.028H64.216V514.8h0v21.012H55.042V493.788a5.212,5.212,0,0,0,1.529-3A1.479,1.479,0,0,0,55.042,489.286Zm-3.058,55.533h0l3.058,4.5L35.166,568.832H29.05ZM30.579,573.335Zm1.529,1.5h0l-1.529-1.5h0Zm-3.058,1.5h0Zm3.058,0Zm0-4.5Zm-1.529,1.5Zm-3.058,0h0v1.5h0v-1.5Zm64.216-4.5v-6l15.289-16.51,3.058,3h0L91.737,568.832Zm21.405-22.513h4.587v1.5H116.2Zm16.818-45.026,6.116-6h7.645L129.961,508.8Zm6.116-12.007-7.645-7.5v-7.5l13.761,13.508h-6.116Zm0,0h-6.116v-6Zm-1.529,6-4.587,4.5v-4.5ZM129.961,508.8l15.289-15.009h6.116L129.961,514.8Zm15.289-19.511-15.289-15.009v-6l21.405,21.012Zm-15.289,48.028h3.058l-3.058,3Zm0-19.511,21.405-22.513h6.116l-29.05,28.517v-6Zm22.934-28.517-22.934-22.513v-7.5l30.579,30.017Zm-27.521,0a5.213,5.213,0,0,0-1.529,3c0,1.5,0,1.5,1.529,3v48.028h-6.116V514.8h0v21.012h-9.174V493.788a5.212,5.212,0,0,0,1.529-3c0-1.5,0-1.5-1.529-3V454.766h7.645v33.019h0V454.766h7.645Zm-6.116-36.021v-3h3.058v-6H116.2v6h1.529l1.529,3H103.968V442.759h30.579v10.506Zm-1.529-7.5h0v0Zm3.058,4.5h0v0Zm0-1.5Zm-1.529-1.5Zm1.529-1.5Zm-3.058,0h0v0Zm3.058,0h0Zm-4.587,3Zm3.058,1.5Zm18.347,1.5v-7.5l4.587,4.5v7.5Zm0-9.005v-3c0-1.5,0-1.5-1.529-1.5h-1.529l-4.587-3v-6l12.232,12.007v6Zm-7.645-15.009v-7.5l12.232,12.007v7.5Zm0-7.5v-6l12.232,12.007v6Zm0-24.014v-7.5l12.232,12.007v7.5Zm0-9.005v-4.5h1.529l10.7,10.506v6Zm10.7-4.5c1.529,0,1.529-1.5,0,0l1.529-6h0v7.5Zm1.529-7.5h0v-6h0Zm-38.224-42.025h0l-1.529,1.5-1.529-3,3.058,1.5Zm-12.232-3h0l7.645-1.5v1.5Zm9.174-88.552-1.529,1.5h0v1.5L79.505,264.154V253.648l9.174-9.005v9.005h0V243.142l13.761-13.508Zm32.108-52.531h0l-1.529,1.5-1.529,1.5L91.737,229.634V219.128l36.695-36.021h10.7ZM91.737,219.128V208.622L116.2,184.608h10.7Zm-16.818,9.005h0l-1.529-3,16.818-16.51v10.506L76.447,232.636l-1.529-4.5Zm16.818-21.012V196.615l12.232-12.007h10.7Zm0-12.007V184.608h10.7Zm-1.529-10.506v10.506L68.8,216.126l-1.529-1.5h0l-1.529-4.5Zm0,12.007v10.506L73.39,223.631l-3.058-6Zm0,24.014v10.506l-10.7,10.506-3.058-7.5ZM82.563,333.195h0l1.529,3h1.529l1.529,1.5h0l3.058,3v6L81.034,337.7h0l-3.058-4.5h4.587ZM39.753,378.221h0v-7.5h0Zm0,72.042,4.587,4.5h0l7.645,7.5v6L38.224,454.766v-4.5Zm0,75.044L53.513,511.8v7.5L39.753,532.811Zm-3.058,28.517c1.529,0,1.529,0,1.529-1.5v-1.5l13.761-13.508v6L27.521,567.331H19.876l15.289-15.009h1.529Zm-7.645,18.01h0Zm-1.529,4.5Zm12.232,4.5L24.463,595.848l-3.058-3,12.232-12.007Zm1.529,0H47.4L29.05,600.351l-3.058-3ZM47.4,813.475Zm-4.587,3Zm4.587,0Zm-4.587-3Zm0,3Zm81.034-214.625h-6.116l19.876-21.012h6.116Zm-7.645,0h-7.645l21.405-21.012h7.645Zm-9.174,0h-6.116l21.405-21.012h6.116Zm-7.645,0H93.266l21.405-21.012h6.116Zm-7.645,0h0v-7.5L105.5,580.839h7.645Zm0-9.005v-6l6.116-6h6.116Zm0-7.5v-4.5h4.587Zm19.876-34.52,3.058,1.5h3.058l-16.818,16.51H93.266Zm6.116,1.5v3h0v-3l3.058-1.5h0l4.587-1.5h0l3.058-3v-4.5l3.058-3h3.058l9.174-9.005v6l-33.637,33.019h-9.174Zm24.463-16.51v7.5L116.2,568.832h-6.116Zm0,9.005v6l-18.347,18.01h-6.116Zm1.529-25.515c-1.529,0-1.529,0-1.529,1.5v6l-9.174,10.506h-3.058v-3L163.6,501.293v6L149.837,520.8h-6.116ZM163.6,507.3v7.5l-6.116,6h-6.116Zm0,9.005v4.5h-4.587Zm0-18.011L129.961,531.31v-6l30.579-30.018H163.6Zm-3.058-9.005-32.108-31.518v-1.5h4.587L163.6,486.284v4.5H160.54Zm3.058-28.517ZM105.5,337.7h0l4.587-4.5,4.587-1.5h3.058v6Zm36.695-157.592H91.737v-7.5h50.455ZM117.729,40.524l-15.29,16.51v-7.5l9.174-9.005Zm-15.29,7.5v-6l1.529-1.5h7.645Zm0,10.506,16.818-16.51,1.529,4.5h0L102.44,63.037h0Zm18.347-10.506v3h0v3l-9.174,9.005h-7.645Zm1.529,6,1.529,4.5-4.587,4.5h-6.116ZM99.382,40.524V63.037H91.737V40.524ZM90.208,67.539v48.028h0V67.539h9.174V169.6H91.737V139.582h0V169.6H82.563V67.539ZM81.034,172.6h9.174v7.5H58.1l-6.116-1.5h0v1.5H39.753v-7.5ZM65.745,331.694l4.587,1.5,6.116,3v1.5H67.274l-3.058-4.5v-1.5ZM62.687,342.2Zm0-3h0l1.529,1.5-1.529-1.5Zm3.058,0Zm0-1.5-1.529-3h0l1.529,3Zm-3.058-1.5Zm-1.529,3,1.529,3-1.529-3Zm3.058,1.5,1.529-1.5-1.529,1.5Zm3.058-1.5Zm-4.587-4.5-1.529,3h0l1.529-3Zm-3.058,4.5,3.058,4.5h0v15.009h0V342.2l4.587-3h9.174l1.529,3,1.529,4.5v21.012H47.4V346.7l1.529-4.5,1.529-1.5h9.174ZM39.753,370.716Zm-3.058,88.552h0l15.289,12.007v7.5L32.108,459.268ZM29.05,501.293h0l-3.058,1.5Zm-3.058,4.5Zm0-1.5Zm3.058,1.5Zm-1.529-1.5Zm-3.058,0h0l1.529,3h0l-1.529-3Zm1.529,3h0Zm3.058-1.5h0v-3h0v3Zm0-4.5h0l-6.116,1.5h0l1.529,4.5-6.116,6v-7.5l12.232-10.506h6.116l-7.645,6Zm-10.7-3,4.587-3H29.05L18.347,505.8Zm12.232-9.005L18.347,477.279v-6l19.876,18.01ZM18.347,477.279l10.7,10.506H22.934l-4.587-4.5Zm21.405,12.007L18.347,469.774v-6l27.521,25.515Zm-18.347,0H18.347v-3Zm0,6-3.058,3v-3ZM18.347,514.8l6.116-6h0l6.116-1.5h0v-4.5l7.645-7.5h7.645L19.876,520.8H18.347ZM47.4,495.289h6.116v1.5L29.05,520.8H21.405Zm4.587,1.5v6L35.166,519.3H29.05ZM39.753,534.312,53.513,520.8v6l-9.174,9.005H39.753Zm3.058,3-3.058,3v-3ZM18.347,568.832h0l-1.529-6,9.174-9.005h6.116Zm0-7.5v-6h7.645Zm0,10.506h7.645l1.529,4.5H18.347Zm12.232,9.005h0l-9.174,10.506-3.058-3v-3Zm-3.058,22.513V813.475L15.289,825.482V591.345ZM47.4,820.979h6.116L29.05,844.993l-3.058-4.5ZM30.579,844.993l25.992-24.014h6.116L38.224,844.993Zm9.174,3,9.174,1.5,9.174,3,9.174,4.5,7.645,6,1.529,1.5v27.016l-1.529,6-3.058,3-4.587,3-3.058,1.5V885.517h0v-1.5L32.108,848Zm50.455,73.543v3H87.15Zm1.529,3v-4.5l16.818-16.51,3.058,1.5h1.529L93.266,924.54Zm24.463-4.5v4.5h-4.587Zm0-36.021h0v19.511l-3.058-1.5-3.058-1.5-3.058-4.5-1.529-6V863h1.529l7.645-6,9.174-4.5,9.174-3,9.174-1.5h6.116Zm50.455-58.534-7.645-6c0-1.5,0-1.5-1.529-1.5h0l-4.587-3V604.853l13.761-13.508ZM148.308,601.852h-7.645l16.818-18.011,4.587,3Zm-7.645,0h-7.645l19.876-19.511,4.587,1.5Zm10.7-25.515H91.737v-4.5H163.6v4.5ZM163.6,550.822H145.25V537.314h16.818v13.508ZM145.25,537.314V523.806h16.818v13.508ZM119.258,337.7v-6h1.529l4.587,1.5,4.587,3,1.529,1.5ZM103.968,118.569h33.637l6.116,24.014V168.1H102.44V67.539h22.934l12.232,51.03ZM90.208,37.522H65.745l6.116-6,6.116-4.5,7.645-3h6.116V37.522ZM77.976,118.569H44.34l10.7-51.03H77.976V169.6H39.753V144.084l6.116-24.014,32.108-1.5ZM51.984,336.2l4.587-3,4.587-1.5h1.529v1.5L58.1,337.7l-6.116-1.5ZM18.347,522.3H35.166v13.508H18.347Zm16.818,15.009v13.508H18.347V537.314ZM18.347,580.839h4.587l-4.587,1.5Zm140.663,0H163.6v3Z" transform="translate(0 189.59) rotate(-90)"/>
      <path id="Path_8" data-name="Path 8" class="cls-1" d="M0,.667V9.672H0V.667c1.529,0,0-1.5,0,0Z" transform="translate(497.624 71.86) rotate(-90)"/>
      <path id="Path_9" data-name="Path 9" class="cls-1" d="M1.147,40.524V0h0V40.524Z" transform="translate(384.224 71.478) rotate(-90)"/>
      <path id="Path_10" data-name="Path 10" class="cls-1" d="M1.529,0,0,6H0L6.116,7.5h0l1.529-6h0L1.529,0Zm0,1.5Zm4.587,6L1.529,6h0L6.116,7.5h0L7.645,3h0Zm0-4.5H4.587V4.5h0v-3ZM4.587,4.5Zm0,1.5Z" transform="translate(352.706 140.663) rotate(-90)"/>
    </g>
  </g>
</svg>
